%TF.GenerationSoftware,KiCad,Pcbnew,8.0.4*%
%TF.CreationDate,2024-10-02T01:17:14-05:00*%
%TF.ProjectId,malenki-hv,6d616c65-6e6b-4692-9d68-762e6b696361,rev?*%
%TF.SameCoordinates,Original*%
%TF.FileFunction,Legend,Bot*%
%TF.FilePolarity,Positive*%
%FSLAX46Y46*%
G04 Gerber Fmt 4.6, Leading zero omitted, Abs format (unit mm)*
G04 Created by KiCad (PCBNEW 8.0.4) date 2024-10-02 01:17:14*
%MOMM*%
%LPD*%
G01*
G04 APERTURE LIST*
%ADD10C,0.010000*%
%ADD11O,0.850000X0.850000*%
%ADD12R,0.850000X0.850000*%
%ADD13C,0.990600*%
G04 APERTURE END LIST*
D10*
%TO.C,G\u002A\u002A\u002A*%
X111793725Y-76937293D02*
X111746102Y-76984917D01*
X111698474Y-76937293D01*
X111746102Y-76889665D01*
X111793725Y-76937293D01*
G36*
X111793725Y-76937293D02*
G01*
X111746102Y-76984917D01*
X111698474Y-76937293D01*
X111746102Y-76889665D01*
X111793725Y-76937293D01*
G37*
X112650975Y-87319540D02*
X112603352Y-87367168D01*
X112555724Y-87319540D01*
X112603352Y-87271917D01*
X112650975Y-87319540D01*
G36*
X112650975Y-87319540D02*
G01*
X112603352Y-87367168D01*
X112555724Y-87319540D01*
X112603352Y-87271917D01*
X112650975Y-87319540D01*
G37*
X114365475Y-88272042D02*
X114317852Y-88319665D01*
X114270224Y-88272042D01*
X114317852Y-88224418D01*
X114365475Y-88272042D01*
G36*
X114365475Y-88272042D02*
G01*
X114317852Y-88319665D01*
X114270224Y-88272042D01*
X114317852Y-88224418D01*
X114365475Y-88272042D01*
G37*
X115222725Y-88748290D02*
X115175102Y-88795918D01*
X115127474Y-88748290D01*
X115175102Y-88700667D01*
X115222725Y-88748290D01*
G36*
X115222725Y-88748290D02*
G01*
X115175102Y-88795918D01*
X115127474Y-88748290D01*
X115175102Y-88700667D01*
X115222725Y-88748290D01*
G37*
X115748627Y-71955902D02*
X115699689Y-72091059D01*
X115583351Y-72312950D01*
X115366793Y-72689235D01*
X115618757Y-73902084D01*
X115870721Y-75114938D01*
X115477871Y-75907050D01*
X115382061Y-76094556D01*
X115208969Y-76404620D01*
X115069482Y-76618109D01*
X114987186Y-76697048D01*
X114865515Y-76652435D01*
X114676794Y-76530363D01*
X114464232Y-76365794D01*
X115263657Y-74815013D01*
X115092968Y-73923527D01*
X115054241Y-73721504D01*
X114976755Y-73318650D01*
X114913175Y-72989876D01*
X114874416Y-72791700D01*
X114867162Y-72747461D01*
X114885144Y-72593489D01*
X115003256Y-72441533D01*
X115254522Y-72244010D01*
X115432259Y-72119981D01*
X115637459Y-71987928D01*
X115741202Y-71936669D01*
X115748627Y-71955902D01*
G36*
X115748627Y-71955902D02*
G01*
X115699689Y-72091059D01*
X115583351Y-72312950D01*
X115366793Y-72689235D01*
X115618757Y-73902084D01*
X115870721Y-75114938D01*
X115477871Y-75907050D01*
X115382061Y-76094556D01*
X115208969Y-76404620D01*
X115069482Y-76618109D01*
X114987186Y-76697048D01*
X114865515Y-76652435D01*
X114676794Y-76530363D01*
X114464232Y-76365794D01*
X115263657Y-74815013D01*
X115092968Y-73923527D01*
X115054241Y-73721504D01*
X114976755Y-73318650D01*
X114913175Y-72989876D01*
X114874416Y-72791700D01*
X114867162Y-72747461D01*
X114885144Y-72593489D01*
X115003256Y-72441533D01*
X115254522Y-72244010D01*
X115432259Y-72119981D01*
X115637459Y-71987928D01*
X115741202Y-71936669D01*
X115748627Y-71955902D01*
G37*
X117071150Y-87867717D02*
X117335804Y-87995197D01*
X117513761Y-88095930D01*
X117715824Y-88246950D01*
X117794475Y-88361587D01*
X117788535Y-88402573D01*
X117687897Y-88600398D01*
X117502808Y-88836157D01*
X117285413Y-89049453D01*
X117087872Y-89179881D01*
X117063819Y-89189205D01*
X116640450Y-89261119D01*
X116160876Y-89206813D01*
X115698974Y-89034040D01*
X115538904Y-88943437D01*
X115389626Y-88841607D01*
X115374947Y-88800220D01*
X115402721Y-88790005D01*
X115516773Y-88662975D01*
X115640816Y-88438276D01*
X115696764Y-88323369D01*
X115825415Y-88149763D01*
X116019387Y-88030887D01*
X116339612Y-87921703D01*
X116393670Y-87905751D01*
X116681477Y-87828994D01*
X116880174Y-87814315D01*
X117071150Y-87867717D01*
G36*
X117071150Y-87867717D02*
G01*
X117335804Y-87995197D01*
X117513761Y-88095930D01*
X117715824Y-88246950D01*
X117794475Y-88361587D01*
X117788535Y-88402573D01*
X117687897Y-88600398D01*
X117502808Y-88836157D01*
X117285413Y-89049453D01*
X117087872Y-89179881D01*
X117063819Y-89189205D01*
X116640450Y-89261119D01*
X116160876Y-89206813D01*
X115698974Y-89034040D01*
X115538904Y-88943437D01*
X115389626Y-88841607D01*
X115374947Y-88800220D01*
X115402721Y-88790005D01*
X115516773Y-88662975D01*
X115640816Y-88438276D01*
X115696764Y-88323369D01*
X115825415Y-88149763D01*
X116019387Y-88030887D01*
X116339612Y-87921703D01*
X116393670Y-87905751D01*
X116681477Y-87828994D01*
X116880174Y-87814315D01*
X117071150Y-87867717D01*
G37*
X113898470Y-71898365D02*
X114037515Y-72065756D01*
X114192702Y-72361460D01*
X114352376Y-72760884D01*
X114504885Y-73239432D01*
X114638567Y-73772516D01*
X114841553Y-74703489D01*
X114458819Y-75464709D01*
X114076085Y-76225925D01*
X113792157Y-76079099D01*
X113768226Y-76066512D01*
X113583825Y-75952077D01*
X113508225Y-75872436D01*
X113508563Y-75869129D01*
X113558814Y-75750387D01*
X113677772Y-75517193D01*
X113841599Y-75216467D01*
X114008279Y-74880920D01*
X114127367Y-74568620D01*
X114171548Y-74350064D01*
X114157962Y-74205375D01*
X114109088Y-73893678D01*
X114033222Y-73487252D01*
X113939388Y-73037103D01*
X113862452Y-72667455D01*
X113795568Y-72299625D01*
X113758862Y-72035651D01*
X113758898Y-71916365D01*
X113787225Y-71883879D01*
X113898470Y-71898365D01*
G36*
X113898470Y-71898365D02*
G01*
X114037515Y-72065756D01*
X114192702Y-72361460D01*
X114352376Y-72760884D01*
X114504885Y-73239432D01*
X114638567Y-73772516D01*
X114841553Y-74703489D01*
X114458819Y-75464709D01*
X114076085Y-76225925D01*
X113792157Y-76079099D01*
X113768226Y-76066512D01*
X113583825Y-75952077D01*
X113508225Y-75872436D01*
X113508563Y-75869129D01*
X113558814Y-75750387D01*
X113677772Y-75517193D01*
X113841599Y-75216467D01*
X114008279Y-74880920D01*
X114127367Y-74568620D01*
X114171548Y-74350064D01*
X114157962Y-74205375D01*
X114109088Y-73893678D01*
X114033222Y-73487252D01*
X113939388Y-73037103D01*
X113862452Y-72667455D01*
X113795568Y-72299625D01*
X113758862Y-72035651D01*
X113758898Y-71916365D01*
X113787225Y-71883879D01*
X113898470Y-71898365D01*
G37*
X110521710Y-86904573D02*
X110805984Y-87032463D01*
X111207618Y-87228631D01*
X111705260Y-87482463D01*
X112277556Y-87783351D01*
X112903151Y-88120666D01*
X113545629Y-88470906D01*
X114167147Y-88809738D01*
X114651968Y-89075598D01*
X115016342Y-89278957D01*
X115276527Y-89430283D01*
X115448774Y-89540043D01*
X115549344Y-89618707D01*
X115594484Y-89676744D01*
X115600446Y-89724619D01*
X115583495Y-89772810D01*
X115559874Y-89831773D01*
X115552197Y-89855034D01*
X115527650Y-89903373D01*
X115479482Y-89942127D01*
X115389149Y-89972353D01*
X115238115Y-89995114D01*
X115007837Y-90011463D01*
X114679764Y-90022461D01*
X114235367Y-90029170D01*
X113656095Y-90032653D01*
X112923405Y-90033963D01*
X112018761Y-90034165D01*
X108541881Y-90034165D01*
X108948519Y-89295981D01*
X109034343Y-89140542D01*
X109340838Y-88591101D01*
X109634261Y-88073110D01*
X109898888Y-87613678D01*
X110118996Y-87239917D01*
X110278863Y-86978926D01*
X110362766Y-86857818D01*
X110376153Y-86855581D01*
X110521710Y-86904573D01*
G36*
X110521710Y-86904573D02*
G01*
X110805984Y-87032463D01*
X111207618Y-87228631D01*
X111705260Y-87482463D01*
X112277556Y-87783351D01*
X112903151Y-88120666D01*
X113545629Y-88470906D01*
X114167147Y-88809738D01*
X114651968Y-89075598D01*
X115016342Y-89278957D01*
X115276527Y-89430283D01*
X115448774Y-89540043D01*
X115549344Y-89618707D01*
X115594484Y-89676744D01*
X115600446Y-89724619D01*
X115583495Y-89772810D01*
X115559874Y-89831773D01*
X115552197Y-89855034D01*
X115527650Y-89903373D01*
X115479482Y-89942127D01*
X115389149Y-89972353D01*
X115238115Y-89995114D01*
X115007837Y-90011463D01*
X114679764Y-90022461D01*
X114235367Y-90029170D01*
X113656095Y-90032653D01*
X112923405Y-90033963D01*
X112018761Y-90034165D01*
X108541881Y-90034165D01*
X108948519Y-89295981D01*
X109034343Y-89140542D01*
X109340838Y-88591101D01*
X109634261Y-88073110D01*
X109898888Y-87613678D01*
X110118996Y-87239917D01*
X110278863Y-86978926D01*
X110362766Y-86857818D01*
X110376153Y-86855581D01*
X110521710Y-86904573D01*
G37*
X113498496Y-71124117D02*
X113512640Y-71138486D01*
X113587646Y-71250086D01*
X113572323Y-71385653D01*
X113461470Y-71614046D01*
X113277020Y-71956550D01*
X113789579Y-74418473D01*
X113485365Y-75035387D01*
X113401814Y-75203363D01*
X113265527Y-75452744D01*
X113158035Y-75579090D01*
X113043510Y-75615972D01*
X112886145Y-75596951D01*
X112655736Y-75586214D01*
X112466516Y-75691761D01*
X112383563Y-75777306D01*
X112275230Y-75841917D01*
X112270176Y-75841692D01*
X112130208Y-75792795D01*
X111902594Y-75679238D01*
X111638853Y-75531165D01*
X111390507Y-75378723D01*
X111209081Y-75252048D01*
X111146085Y-75181290D01*
X111193794Y-75083699D01*
X111307946Y-74862137D01*
X111460352Y-74572089D01*
X111633035Y-74276727D01*
X111796106Y-74089073D01*
X111947567Y-74032391D01*
X112027104Y-74024178D01*
X112303044Y-73901184D01*
X112548137Y-73677242D01*
X112690202Y-73412592D01*
X112706366Y-73223471D01*
X112600143Y-72889782D01*
X112341461Y-72593493D01*
X112307193Y-72565580D01*
X112242767Y-72491991D01*
X112239819Y-72402077D01*
X112313390Y-72263261D01*
X112478531Y-72042990D01*
X112750286Y-71708690D01*
X113006390Y-71401389D01*
X113201001Y-71187576D01*
X113329971Y-71084094D01*
X113420174Y-71069942D01*
X113498496Y-71124117D01*
G36*
X113498496Y-71124117D02*
G01*
X113512640Y-71138486D01*
X113587646Y-71250086D01*
X113572323Y-71385653D01*
X113461470Y-71614046D01*
X113277020Y-71956550D01*
X113789579Y-74418473D01*
X113485365Y-75035387D01*
X113401814Y-75203363D01*
X113265527Y-75452744D01*
X113158035Y-75579090D01*
X113043510Y-75615972D01*
X112886145Y-75596951D01*
X112655736Y-75586214D01*
X112466516Y-75691761D01*
X112383563Y-75777306D01*
X112275230Y-75841917D01*
X112270176Y-75841692D01*
X112130208Y-75792795D01*
X111902594Y-75679238D01*
X111638853Y-75531165D01*
X111390507Y-75378723D01*
X111209081Y-75252048D01*
X111146085Y-75181290D01*
X111193794Y-75083699D01*
X111307946Y-74862137D01*
X111460352Y-74572089D01*
X111633035Y-74276727D01*
X111796106Y-74089073D01*
X111947567Y-74032391D01*
X112027104Y-74024178D01*
X112303044Y-73901184D01*
X112548137Y-73677242D01*
X112690202Y-73412592D01*
X112706366Y-73223471D01*
X112600143Y-72889782D01*
X112341461Y-72593493D01*
X112307193Y-72565580D01*
X112242767Y-72491991D01*
X112239819Y-72402077D01*
X112313390Y-72263261D01*
X112478531Y-72042990D01*
X112750286Y-71708690D01*
X113006390Y-71401389D01*
X113201001Y-71187576D01*
X113329971Y-71084094D01*
X113420174Y-71069942D01*
X113498496Y-71124117D01*
G37*
X110597436Y-71276307D02*
X110688363Y-71385401D01*
X110854706Y-71601639D01*
X111068249Y-71888591D01*
X111522510Y-72507269D01*
X111324744Y-72758688D01*
X111197970Y-72962826D01*
X111136806Y-73295511D01*
X111262235Y-73609148D01*
X111295179Y-73659233D01*
X111328776Y-73770810D01*
X111302199Y-73922028D01*
X111204351Y-74154993D01*
X111024108Y-74511825D01*
X110962769Y-74631287D01*
X110803446Y-74958054D01*
X110692413Y-75210842D01*
X110650725Y-75342804D01*
X110662223Y-75369332D01*
X110793749Y-75489041D01*
X111041064Y-75657827D01*
X111365100Y-75848064D01*
X111497733Y-75921455D01*
X111795269Y-76091163D01*
X112002012Y-76216560D01*
X112079475Y-76274669D01*
X112049523Y-76363985D01*
X111968937Y-76551810D01*
X111872039Y-76717491D01*
X111779442Y-76794418D01*
X111681378Y-76755948D01*
X111449534Y-76640879D01*
X111121844Y-76467615D01*
X110734385Y-76254788D01*
X109768280Y-75715161D01*
X109447862Y-75012045D01*
X109127439Y-74308929D01*
X109319517Y-73932423D01*
X109392921Y-73799939D01*
X109555160Y-73610786D01*
X109739997Y-73555917D01*
X109962860Y-73538655D01*
X110227500Y-73420238D01*
X110421032Y-73158612D01*
X110486349Y-72993120D01*
X110489364Y-72640887D01*
X110304837Y-72308787D01*
X110278760Y-72276842D01*
X110229350Y-72157677D01*
X110257043Y-71989764D01*
X110368184Y-71713473D01*
X110441993Y-71550560D01*
X110540246Y-71348748D01*
X110589188Y-71269917D01*
X110597436Y-71276307D01*
G36*
X110597436Y-71276307D02*
G01*
X110688363Y-71385401D01*
X110854706Y-71601639D01*
X111068249Y-71888591D01*
X111522510Y-72507269D01*
X111324744Y-72758688D01*
X111197970Y-72962826D01*
X111136806Y-73295511D01*
X111262235Y-73609148D01*
X111295179Y-73659233D01*
X111328776Y-73770810D01*
X111302199Y-73922028D01*
X111204351Y-74154993D01*
X111024108Y-74511825D01*
X110962769Y-74631287D01*
X110803446Y-74958054D01*
X110692413Y-75210842D01*
X110650725Y-75342804D01*
X110662223Y-75369332D01*
X110793749Y-75489041D01*
X111041064Y-75657827D01*
X111365100Y-75848064D01*
X111497733Y-75921455D01*
X111795269Y-76091163D01*
X112002012Y-76216560D01*
X112079475Y-76274669D01*
X112049523Y-76363985D01*
X111968937Y-76551810D01*
X111872039Y-76717491D01*
X111779442Y-76794418D01*
X111681378Y-76755948D01*
X111449534Y-76640879D01*
X111121844Y-76467615D01*
X110734385Y-76254788D01*
X109768280Y-75715161D01*
X109447862Y-75012045D01*
X109127439Y-74308929D01*
X109319517Y-73932423D01*
X109392921Y-73799939D01*
X109555160Y-73610786D01*
X109739997Y-73555917D01*
X109962860Y-73538655D01*
X110227500Y-73420238D01*
X110421032Y-73158612D01*
X110486349Y-72993120D01*
X110489364Y-72640887D01*
X110304837Y-72308787D01*
X110278760Y-72276842D01*
X110229350Y-72157677D01*
X110257043Y-71989764D01*
X110368184Y-71713473D01*
X110441993Y-71550560D01*
X110540246Y-71348748D01*
X110589188Y-71269917D01*
X110597436Y-71276307D01*
G37*
X112253634Y-80817679D02*
X112459271Y-80889666D01*
X112749921Y-81010059D01*
X112356765Y-81726409D01*
X111963605Y-82442764D01*
X112225145Y-83648593D01*
X112486680Y-84854422D01*
X112000419Y-85756438D01*
X111927290Y-85892424D01*
X111740445Y-86248905D01*
X111633336Y-86481807D01*
X111595842Y-86624007D01*
X111617856Y-86708382D01*
X111689258Y-86767804D01*
X111717279Y-86783563D01*
X111798594Y-86796577D01*
X111888068Y-86737380D01*
X112005320Y-86581599D01*
X112169952Y-86304880D01*
X112401581Y-85882848D01*
X112938809Y-84888541D01*
X112699643Y-83829052D01*
X112616865Y-83450895D01*
X112535847Y-83053099D01*
X112480785Y-82749259D01*
X112460477Y-82585126D01*
X112460675Y-82577350D01*
X112509104Y-82393755D01*
X112623449Y-82127935D01*
X112775576Y-81831390D01*
X112937373Y-81555603D01*
X113080712Y-81352077D01*
X113177471Y-81272296D01*
X113292099Y-81307063D01*
X113482670Y-81416386D01*
X113689998Y-81561606D01*
X113347809Y-82145458D01*
X113005620Y-82729315D01*
X113293080Y-83976679D01*
X113580545Y-85224043D01*
X113103086Y-86128917D01*
X112948488Y-86418861D01*
X112759497Y-86764600D01*
X112612577Y-87023229D01*
X112530614Y-87153787D01*
X112446572Y-87190714D01*
X112284176Y-87156114D01*
X112016115Y-87039622D01*
X111614603Y-86831452D01*
X111218526Y-86614579D01*
X110881301Y-86418357D01*
X110701386Y-86294292D01*
X110670827Y-86236728D01*
X110781648Y-86240017D01*
X110864979Y-86230063D01*
X110992392Y-86127225D01*
X111156264Y-85899363D01*
X111376962Y-85521903D01*
X111460208Y-85368975D01*
X111630884Y-85032501D01*
X111749144Y-84766096D01*
X111793235Y-84617029D01*
X111774299Y-84468862D01*
X111722531Y-84176254D01*
X111645882Y-83782225D01*
X111552314Y-83329291D01*
X111311879Y-82196542D01*
X111709854Y-81519540D01*
X111771239Y-81415297D01*
X111948557Y-81116358D01*
X112079124Y-80899503D01*
X112138227Y-80805907D01*
X112141535Y-80803387D01*
X112253634Y-80817679D01*
G36*
X112253634Y-80817679D02*
G01*
X112459271Y-80889666D01*
X112749921Y-81010059D01*
X112356765Y-81726409D01*
X111963605Y-82442764D01*
X112225145Y-83648593D01*
X112486680Y-84854422D01*
X112000419Y-85756438D01*
X111927290Y-85892424D01*
X111740445Y-86248905D01*
X111633336Y-86481807D01*
X111595842Y-86624007D01*
X111617856Y-86708382D01*
X111689258Y-86767804D01*
X111717279Y-86783563D01*
X111798594Y-86796577D01*
X111888068Y-86737380D01*
X112005320Y-86581599D01*
X112169952Y-86304880D01*
X112401581Y-85882848D01*
X112938809Y-84888541D01*
X112699643Y-83829052D01*
X112616865Y-83450895D01*
X112535847Y-83053099D01*
X112480785Y-82749259D01*
X112460477Y-82585126D01*
X112460675Y-82577350D01*
X112509104Y-82393755D01*
X112623449Y-82127935D01*
X112775576Y-81831390D01*
X112937373Y-81555603D01*
X113080712Y-81352077D01*
X113177471Y-81272296D01*
X113292099Y-81307063D01*
X113482670Y-81416386D01*
X113689998Y-81561606D01*
X113347809Y-82145458D01*
X113005620Y-82729315D01*
X113293080Y-83976679D01*
X113580545Y-85224043D01*
X113103086Y-86128917D01*
X112948488Y-86418861D01*
X112759497Y-86764600D01*
X112612577Y-87023229D01*
X112530614Y-87153787D01*
X112446572Y-87190714D01*
X112284176Y-87156114D01*
X112016115Y-87039622D01*
X111614603Y-86831452D01*
X111218526Y-86614579D01*
X110881301Y-86418357D01*
X110701386Y-86294292D01*
X110670827Y-86236728D01*
X110781648Y-86240017D01*
X110864979Y-86230063D01*
X110992392Y-86127225D01*
X111156264Y-85899363D01*
X111376962Y-85521903D01*
X111460208Y-85368975D01*
X111630884Y-85032501D01*
X111749144Y-84766096D01*
X111793235Y-84617029D01*
X111774299Y-84468862D01*
X111722531Y-84176254D01*
X111645882Y-83782225D01*
X111552314Y-83329291D01*
X111311879Y-82196542D01*
X111709854Y-81519540D01*
X111771239Y-81415297D01*
X111948557Y-81116358D01*
X112079124Y-80899503D01*
X112138227Y-80805907D01*
X112141535Y-80803387D01*
X112253634Y-80817679D01*
G37*
X111328434Y-77770621D02*
X111053394Y-78290767D01*
X110772527Y-78796702D01*
X110684925Y-78954504D01*
X110649668Y-79018728D01*
X110489792Y-79417995D01*
X110490048Y-79716259D01*
X110650370Y-79915339D01*
X110657111Y-79919556D01*
X110756858Y-79994229D01*
X110781189Y-80082483D01*
X110723936Y-80235037D01*
X110578932Y-80502607D01*
X110436782Y-80733318D01*
X110264391Y-80916216D01*
X110042825Y-81021322D01*
X109725192Y-81069265D01*
X109264608Y-81080668D01*
X109184202Y-81081177D01*
X108896733Y-81103618D01*
X108713979Y-81177238D01*
X108566064Y-81326647D01*
X108414554Y-81550333D01*
X108314609Y-81755272D01*
X108239913Y-81867952D01*
X108020601Y-81937918D01*
X107837730Y-81969144D01*
X107575655Y-82142281D01*
X107393823Y-82424814D01*
X107318547Y-82768294D01*
X107376143Y-83124276D01*
X107438441Y-83224077D01*
X107661645Y-83392939D01*
X107950464Y-83497416D01*
X108222534Y-83500858D01*
X108311490Y-83472108D01*
X108593816Y-83275165D01*
X108774000Y-82981059D01*
X108827465Y-82646587D01*
X108729644Y-82328559D01*
X108712832Y-82299921D01*
X108667962Y-82111015D01*
X108738833Y-81859303D01*
X108796667Y-81742078D01*
X108888876Y-81641958D01*
X109039496Y-81571168D01*
X109281483Y-81520012D01*
X109647810Y-81478788D01*
X110171435Y-81437797D01*
X110313905Y-81417309D01*
X110480459Y-81343576D01*
X110639642Y-81189222D01*
X110820780Y-80923591D01*
X111053205Y-80516022D01*
X111087410Y-80454012D01*
X111195432Y-80296759D01*
X111309498Y-80275789D01*
X111506576Y-80365564D01*
X111557754Y-80392128D01*
X111668967Y-80461288D01*
X111721284Y-80543562D01*
X111706938Y-80669031D01*
X111618149Y-80867769D01*
X111447144Y-81169854D01*
X111186153Y-81605364D01*
X110864043Y-82140085D01*
X111090267Y-83205816D01*
X111170826Y-83592717D01*
X111246467Y-83972904D01*
X111297897Y-84251544D01*
X111316982Y-84386337D01*
X111272063Y-84424668D01*
X111074963Y-84395175D01*
X110716223Y-84274818D01*
X110603921Y-84233395D01*
X109875375Y-84008881D01*
X109118151Y-83858424D01*
X108280535Y-83774022D01*
X107310821Y-83747665D01*
X105963130Y-83747665D01*
X104869270Y-83152356D01*
X104422546Y-82901409D01*
X103992706Y-82628281D01*
X103694099Y-82382149D01*
X103501841Y-82136922D01*
X103391047Y-81866485D01*
X103336831Y-81544749D01*
X103292240Y-81080668D01*
X103676891Y-81080668D01*
X103848454Y-81072474D01*
X104091260Y-80992473D01*
X104308133Y-80787606D01*
X104511506Y-80429014D01*
X104526215Y-80152701D01*
X106262407Y-80152701D01*
X106303244Y-80489013D01*
X106489679Y-80778313D01*
X106781490Y-80953165D01*
X107091927Y-80978379D01*
X107381646Y-80877412D01*
X107616843Y-80678985D01*
X107763732Y-80411815D01*
X107788509Y-80104614D01*
X107657379Y-79786108D01*
X107605476Y-79674288D01*
X107621294Y-79407379D01*
X107784077Y-79113268D01*
X108073994Y-78821772D01*
X108471200Y-78562716D01*
X109004468Y-78283140D01*
X109775331Y-78684184D01*
X109801080Y-78697576D01*
X110156603Y-78879484D01*
X110382566Y-78981324D01*
X110515491Y-79011897D01*
X110591901Y-78979992D01*
X110648322Y-78894402D01*
X110651288Y-78888804D01*
X110680479Y-78796702D01*
X110643867Y-78709735D01*
X110514857Y-78606244D01*
X110266857Y-78464562D01*
X109873269Y-78263029D01*
X108996089Y-77822484D01*
X108342140Y-78138843D01*
X108031973Y-78297994D01*
X107771292Y-78472302D01*
X107580596Y-78675135D01*
X107400344Y-78958311D01*
X107290814Y-79135710D01*
X107096112Y-79375789D01*
X106941830Y-79461415D01*
X106937757Y-79461469D01*
X106744302Y-79520946D01*
X106520198Y-79658830D01*
X106365389Y-79834470D01*
X106262407Y-80152701D01*
X104526215Y-80152701D01*
X104530798Y-80066620D01*
X104364226Y-79721173D01*
X104354857Y-79709208D01*
X104226616Y-79531552D01*
X104173727Y-79431679D01*
X104175986Y-79425577D01*
X104236493Y-79301076D01*
X104371547Y-79032714D01*
X104570533Y-78641101D01*
X104822839Y-78146857D01*
X105117854Y-77570587D01*
X105444968Y-76932910D01*
X105774530Y-76291485D01*
X107199914Y-76291485D01*
X107317377Y-76574684D01*
X107544785Y-76790337D01*
X107860203Y-76901703D01*
X108241691Y-76872034D01*
X108362057Y-76846114D01*
X108506894Y-76845808D01*
X108684941Y-76889971D01*
X108929610Y-76990443D01*
X109274328Y-77159080D01*
X109752512Y-77407728D01*
X109902128Y-77486113D01*
X110319750Y-77701060D01*
X110667677Y-77874544D01*
X110913138Y-77990451D01*
X111023361Y-78032665D01*
X111038792Y-78029443D01*
X111128607Y-77938710D01*
X111200063Y-77795925D01*
X111200657Y-77699697D01*
X111183615Y-77689797D01*
X111035826Y-77609782D01*
X110762262Y-77463856D01*
X110393514Y-77268300D01*
X109960164Y-77039394D01*
X109694916Y-76897927D01*
X109253228Y-76650072D01*
X108959544Y-76462422D01*
X108796244Y-76323093D01*
X108745727Y-76220214D01*
X108739755Y-76113834D01*
X108625793Y-75771996D01*
X108399353Y-75526341D01*
X108102956Y-75398222D01*
X107779127Y-75408986D01*
X107470395Y-75579981D01*
X107382555Y-75669441D01*
X107214327Y-75977489D01*
X107199914Y-76291485D01*
X105774530Y-76291485D01*
X105793565Y-76254437D01*
X106153043Y-75555776D01*
X106512778Y-74857547D01*
X106862171Y-74180360D01*
X107190603Y-73544825D01*
X107487464Y-72971561D01*
X107742141Y-72481178D01*
X107944029Y-72094290D01*
X108082512Y-71831508D01*
X108146984Y-71713442D01*
X108217314Y-71722644D01*
X108385677Y-71837957D01*
X108608675Y-72037631D01*
X108701919Y-72130893D01*
X108894515Y-72353580D01*
X108974268Y-72526758D01*
X108968967Y-72701655D01*
X108962303Y-72917070D01*
X109031094Y-73174200D01*
X109049666Y-73211118D01*
X109086899Y-73364973D01*
X109042169Y-73550841D01*
X108903218Y-73831704D01*
X108661316Y-74276156D01*
X109042304Y-75142041D01*
X109423287Y-76007931D01*
X110441817Y-76567862D01*
X110450957Y-76572884D01*
X110852640Y-76787515D01*
X111198398Y-76961220D01*
X111451631Y-77076330D01*
X111575732Y-77115174D01*
X111589659Y-77178786D01*
X111507903Y-77398489D01*
X111362639Y-77699697D01*
X111328434Y-77770621D01*
G36*
X111328434Y-77770621D02*
G01*
X111053394Y-78290767D01*
X110772527Y-78796702D01*
X110684925Y-78954504D01*
X110649668Y-79018728D01*
X110489792Y-79417995D01*
X110490048Y-79716259D01*
X110650370Y-79915339D01*
X110657111Y-79919556D01*
X110756858Y-79994229D01*
X110781189Y-80082483D01*
X110723936Y-80235037D01*
X110578932Y-80502607D01*
X110436782Y-80733318D01*
X110264391Y-80916216D01*
X110042825Y-81021322D01*
X109725192Y-81069265D01*
X109264608Y-81080668D01*
X109184202Y-81081177D01*
X108896733Y-81103618D01*
X108713979Y-81177238D01*
X108566064Y-81326647D01*
X108414554Y-81550333D01*
X108314609Y-81755272D01*
X108239913Y-81867952D01*
X108020601Y-81937918D01*
X107837730Y-81969144D01*
X107575655Y-82142281D01*
X107393823Y-82424814D01*
X107318547Y-82768294D01*
X107376143Y-83124276D01*
X107438441Y-83224077D01*
X107661645Y-83392939D01*
X107950464Y-83497416D01*
X108222534Y-83500858D01*
X108311490Y-83472108D01*
X108593816Y-83275165D01*
X108774000Y-82981059D01*
X108827465Y-82646587D01*
X108729644Y-82328559D01*
X108712832Y-82299921D01*
X108667962Y-82111015D01*
X108738833Y-81859303D01*
X108796667Y-81742078D01*
X108888876Y-81641958D01*
X109039496Y-81571168D01*
X109281483Y-81520012D01*
X109647810Y-81478788D01*
X110171435Y-81437797D01*
X110313905Y-81417309D01*
X110480459Y-81343576D01*
X110639642Y-81189222D01*
X110820780Y-80923591D01*
X111053205Y-80516022D01*
X111087410Y-80454012D01*
X111195432Y-80296759D01*
X111309498Y-80275789D01*
X111506576Y-80365564D01*
X111557754Y-80392128D01*
X111668967Y-80461288D01*
X111721284Y-80543562D01*
X111706938Y-80669031D01*
X111618149Y-80867769D01*
X111447144Y-81169854D01*
X111186153Y-81605364D01*
X110864043Y-82140085D01*
X111090267Y-83205816D01*
X111170826Y-83592717D01*
X111246467Y-83972904D01*
X111297897Y-84251544D01*
X111316982Y-84386337D01*
X111272063Y-84424668D01*
X111074963Y-84395175D01*
X110716223Y-84274818D01*
X110603921Y-84233395D01*
X109875375Y-84008881D01*
X109118151Y-83858424D01*
X108280535Y-83774022D01*
X107310821Y-83747665D01*
X105963130Y-83747665D01*
X104869270Y-83152356D01*
X104422546Y-82901409D01*
X103992706Y-82628281D01*
X103694099Y-82382149D01*
X103501841Y-82136922D01*
X103391047Y-81866485D01*
X103336831Y-81544749D01*
X103292240Y-81080668D01*
X103676891Y-81080668D01*
X103848454Y-81072474D01*
X104091260Y-80992473D01*
X104308133Y-80787606D01*
X104511506Y-80429014D01*
X104526215Y-80152701D01*
X106262407Y-80152701D01*
X106303244Y-80489013D01*
X106489679Y-80778313D01*
X106781490Y-80953165D01*
X107091927Y-80978379D01*
X107381646Y-80877412D01*
X107616843Y-80678985D01*
X107763732Y-80411815D01*
X107788509Y-80104614D01*
X107657379Y-79786108D01*
X107605476Y-79674288D01*
X107621294Y-79407379D01*
X107784077Y-79113268D01*
X108073994Y-78821772D01*
X108471200Y-78562716D01*
X109004468Y-78283140D01*
X109775331Y-78684184D01*
X109801080Y-78697576D01*
X110156603Y-78879484D01*
X110382566Y-78981324D01*
X110515491Y-79011897D01*
X110591901Y-78979992D01*
X110648322Y-78894402D01*
X110651288Y-78888804D01*
X110680479Y-78796702D01*
X110643867Y-78709735D01*
X110514857Y-78606244D01*
X110266857Y-78464562D01*
X109873269Y-78263029D01*
X108996089Y-77822484D01*
X108342140Y-78138843D01*
X108031973Y-78297994D01*
X107771292Y-78472302D01*
X107580596Y-78675135D01*
X107400344Y-78958311D01*
X107290814Y-79135710D01*
X107096112Y-79375789D01*
X106941830Y-79461415D01*
X106937757Y-79461469D01*
X106744302Y-79520946D01*
X106520198Y-79658830D01*
X106365389Y-79834470D01*
X106262407Y-80152701D01*
X104526215Y-80152701D01*
X104530798Y-80066620D01*
X104364226Y-79721173D01*
X104354857Y-79709208D01*
X104226616Y-79531552D01*
X104173727Y-79431679D01*
X104175986Y-79425577D01*
X104236493Y-79301076D01*
X104371547Y-79032714D01*
X104570533Y-78641101D01*
X104822839Y-78146857D01*
X105117854Y-77570587D01*
X105444968Y-76932910D01*
X105774530Y-76291485D01*
X107199914Y-76291485D01*
X107317377Y-76574684D01*
X107544785Y-76790337D01*
X107860203Y-76901703D01*
X108241691Y-76872034D01*
X108362057Y-76846114D01*
X108506894Y-76845808D01*
X108684941Y-76889971D01*
X108929610Y-76990443D01*
X109274328Y-77159080D01*
X109752512Y-77407728D01*
X109902128Y-77486113D01*
X110319750Y-77701060D01*
X110667677Y-77874544D01*
X110913138Y-77990451D01*
X111023361Y-78032665D01*
X111038792Y-78029443D01*
X111128607Y-77938710D01*
X111200063Y-77795925D01*
X111200657Y-77699697D01*
X111183615Y-77689797D01*
X111035826Y-77609782D01*
X110762262Y-77463856D01*
X110393514Y-77268300D01*
X109960164Y-77039394D01*
X109694916Y-76897927D01*
X109253228Y-76650072D01*
X108959544Y-76462422D01*
X108796244Y-76323093D01*
X108745727Y-76220214D01*
X108739755Y-76113834D01*
X108625793Y-75771996D01*
X108399353Y-75526341D01*
X108102956Y-75398222D01*
X107779127Y-75408986D01*
X107470395Y-75579981D01*
X107382555Y-75669441D01*
X107214327Y-75977489D01*
X107199914Y-76291485D01*
X105774530Y-76291485D01*
X105793565Y-76254437D01*
X106153043Y-75555776D01*
X106512778Y-74857547D01*
X106862171Y-74180360D01*
X107190603Y-73544825D01*
X107487464Y-72971561D01*
X107742141Y-72481178D01*
X107944029Y-72094290D01*
X108082512Y-71831508D01*
X108146984Y-71713442D01*
X108217314Y-71722644D01*
X108385677Y-71837957D01*
X108608675Y-72037631D01*
X108701919Y-72130893D01*
X108894515Y-72353580D01*
X108974268Y-72526758D01*
X108968967Y-72701655D01*
X108962303Y-72917070D01*
X109031094Y-73174200D01*
X109049666Y-73211118D01*
X109086899Y-73364973D01*
X109042169Y-73550841D01*
X108903218Y-73831704D01*
X108661316Y-74276156D01*
X109042304Y-75142041D01*
X109423287Y-76007931D01*
X110441817Y-76567862D01*
X110450957Y-76572884D01*
X110852640Y-76787515D01*
X111198398Y-76961220D01*
X111451631Y-77076330D01*
X111575732Y-77115174D01*
X111589659Y-77178786D01*
X111507903Y-77398489D01*
X111362639Y-77699697D01*
X111328434Y-77770621D01*
G37*
X107523099Y-71774957D02*
X107513415Y-71793299D01*
X107334914Y-72133616D01*
X107083886Y-72615044D01*
X106774011Y-73211217D01*
X106418966Y-73895766D01*
X106032425Y-74642316D01*
X105628064Y-75424511D01*
X105219568Y-76215971D01*
X104152951Y-78284278D01*
X103479395Y-79590403D01*
X103693096Y-79774219D01*
X103731310Y-79807092D01*
X103875346Y-79975360D01*
X103972811Y-80218639D01*
X103963937Y-80436871D01*
X103840160Y-80570044D01*
X103801838Y-80578275D01*
X103593349Y-80558070D01*
X103327633Y-80477119D01*
X102958174Y-80329290D01*
X102845989Y-80899512D01*
X102834302Y-80962057D01*
X102809890Y-81366418D01*
X102796921Y-81581298D01*
X102922025Y-82129042D01*
X103216154Y-82616482D01*
X103685833Y-83054800D01*
X104337595Y-83455192D01*
X104585896Y-83583897D01*
X104872033Y-83743782D01*
X104987831Y-83850193D01*
X104931883Y-83925861D01*
X104702774Y-83993523D01*
X104299102Y-84075913D01*
X103951261Y-84146235D01*
X103589933Y-84228882D01*
X103376125Y-84300436D01*
X103286120Y-84373912D01*
X103296196Y-84462310D01*
X103382636Y-84578653D01*
X103554599Y-84777031D01*
X104649976Y-84540547D01*
X105052609Y-84461991D01*
X106039171Y-84331095D01*
X107049551Y-84274372D01*
X108043290Y-84290311D01*
X108979934Y-84377409D01*
X109819026Y-84534157D01*
X110520113Y-84759054D01*
X110848991Y-84896466D01*
X110535543Y-85446204D01*
X110469717Y-85561827D01*
X110288165Y-85881367D01*
X110040498Y-86317755D01*
X109744547Y-86839570D01*
X109418139Y-87415377D01*
X109079100Y-88013751D01*
X107936100Y-90031564D01*
X99816040Y-90032865D01*
X98919082Y-90032811D01*
X97733143Y-90032118D01*
X96613403Y-90030754D01*
X95573674Y-90028770D01*
X94627765Y-90026223D01*
X93789487Y-90023158D01*
X93072655Y-90019635D01*
X92491075Y-90015702D01*
X92058562Y-90011413D01*
X91788926Y-90006823D01*
X91695974Y-90001981D01*
X91718209Y-89932443D01*
X91796824Y-89704900D01*
X91924025Y-89342880D01*
X92091236Y-88870650D01*
X92289893Y-88312474D01*
X92511428Y-87692608D01*
X93326878Y-85415424D01*
X93059114Y-85201134D01*
X92905543Y-85089156D01*
X92403190Y-84807024D01*
X91772920Y-84542046D01*
X91059359Y-84314026D01*
X90781394Y-84237171D01*
X90188317Y-84064344D01*
X89755615Y-83916856D01*
X89465176Y-83781834D01*
X89298878Y-83646402D01*
X89238614Y-83497695D01*
X89266271Y-83322834D01*
X89363737Y-83108944D01*
X89653946Y-82633812D01*
X90127499Y-81997404D01*
X90720590Y-81300705D01*
X91410256Y-80565432D01*
X92173541Y-79813297D01*
X92760407Y-79274481D01*
X98918834Y-79274481D01*
X98981911Y-79677510D01*
X99002593Y-79795648D01*
X99188600Y-80389140D01*
X99485452Y-80846362D01*
X99883846Y-81152106D01*
X100320872Y-81310947D01*
X100871015Y-81366418D01*
X101433187Y-81366418D01*
X100827019Y-80965756D01*
X100736906Y-80904129D01*
X100356769Y-80615211D01*
X99942805Y-80266344D01*
X99569845Y-79919790D01*
X98918834Y-79274481D01*
X92760407Y-79274481D01*
X92987474Y-79066005D01*
X93829105Y-78345271D01*
X94307039Y-77965534D01*
X99595571Y-77965534D01*
X99614323Y-78178785D01*
X99708319Y-78556542D01*
X99822394Y-78875047D01*
X100099553Y-79315228D01*
X100464098Y-79606941D01*
X100671103Y-79685011D01*
X100968620Y-79755625D01*
X101291720Y-79806039D01*
X101587717Y-79830069D01*
X101803946Y-79821528D01*
X101887727Y-79774219D01*
X101887678Y-79772901D01*
X101810309Y-79674211D01*
X101613911Y-79510321D01*
X101340037Y-79315993D01*
X101296540Y-79286590D01*
X100945162Y-79021909D01*
X100552982Y-78691150D01*
X100197037Y-78358825D01*
X100104206Y-78266967D01*
X99829171Y-78014215D01*
X99663404Y-77912209D01*
X99595571Y-77965534D01*
X94307039Y-77965534D01*
X94675465Y-77672805D01*
X95503591Y-77070318D01*
X96290524Y-76559523D01*
X96742384Y-76286913D01*
X100363726Y-76286913D01*
X100365818Y-76612101D01*
X100373536Y-76730347D01*
X100482287Y-77156569D01*
X100687105Y-77578737D01*
X100946476Y-77904474D01*
X100980527Y-77933080D01*
X101246288Y-78093699D01*
X101554349Y-78213507D01*
X101587816Y-78222151D01*
X101851102Y-78270742D01*
X102155945Y-78304668D01*
X102444859Y-78320512D01*
X102660368Y-78314851D01*
X102744977Y-78284278D01*
X102744842Y-78283423D01*
X102665993Y-78214393D01*
X102469847Y-78072607D01*
X102197287Y-77887662D01*
X102121156Y-77835655D01*
X101767127Y-77567856D01*
X101371559Y-77238141D01*
X101006663Y-76906050D01*
X100363726Y-76286913D01*
X96742384Y-76286913D01*
X97027448Y-76114932D01*
X97548967Y-75049737D01*
X97848950Y-74460129D01*
X98568064Y-73220177D01*
X99374176Y-72065405D01*
X99817944Y-71531381D01*
X104078476Y-71531381D01*
X104112959Y-71816438D01*
X104252666Y-72064779D01*
X104280053Y-72089178D01*
X104443025Y-72197057D01*
X104607739Y-72193119D01*
X104851765Y-72079247D01*
X104947358Y-72013484D01*
X105176017Y-71745689D01*
X105345622Y-71399607D01*
X105411974Y-71055974D01*
X105334732Y-70798065D01*
X105141101Y-70591727D01*
X104894888Y-70507919D01*
X104828405Y-70523232D01*
X104628151Y-70639220D01*
X104402327Y-70831766D01*
X104241371Y-71009520D01*
X104112469Y-71247030D01*
X104078476Y-71531381D01*
X99817944Y-71531381D01*
X100299772Y-70951556D01*
X101377342Y-69834372D01*
X102357986Y-68943192D01*
X103868254Y-67773579D01*
X105501272Y-66719891D01*
X107233569Y-65792076D01*
X109041683Y-65000108D01*
X110902140Y-64353935D01*
X112791474Y-63863516D01*
X114686222Y-63538818D01*
X116562915Y-63389796D01*
X117383855Y-63377453D01*
X118056560Y-63399678D01*
X118571558Y-63460050D01*
X118944050Y-63561363D01*
X119189219Y-63706412D01*
X119322266Y-63898004D01*
X119343816Y-63968352D01*
X119390913Y-64308372D01*
X119407334Y-64818488D01*
X119393901Y-65485244D01*
X119351435Y-66295181D01*
X119280758Y-67234839D01*
X119182689Y-68290764D01*
X119058053Y-69449501D01*
X118907663Y-70697585D01*
X118793282Y-71601630D01*
X118079568Y-72146216D01*
X117902057Y-72280595D01*
X117615749Y-72492261D01*
X117408272Y-72638903D01*
X117315531Y-72694734D01*
X117284396Y-72650684D01*
X117200169Y-72460541D01*
X117081711Y-72154464D01*
X116944088Y-71769980D01*
X116845781Y-71490449D01*
X116716946Y-71139426D01*
X116617167Y-70885806D01*
X116562326Y-70771155D01*
X116561376Y-70770233D01*
X116461184Y-70799361D01*
X116241764Y-70923269D01*
X115934796Y-71122560D01*
X115571948Y-71377836D01*
X115558583Y-71387556D01*
X115199568Y-71644047D01*
X114901290Y-71848536D01*
X114694493Y-71980512D01*
X114609929Y-72019473D01*
X114557265Y-71933469D01*
X114430563Y-71713217D01*
X114249731Y-71393325D01*
X114034221Y-71007981D01*
X113825259Y-70635350D01*
X113646317Y-70321722D01*
X113521748Y-70109619D01*
X113470394Y-70031666D01*
X113468081Y-70033137D01*
X113389718Y-70121855D01*
X113219145Y-70327806D01*
X112979345Y-70622970D01*
X112693298Y-70979316D01*
X112656749Y-71024951D01*
X112366575Y-71377377D01*
X112116119Y-71665049D01*
X111931074Y-71859390D01*
X111837137Y-71931818D01*
X111774506Y-71891381D01*
X111614990Y-71725119D01*
X111393594Y-71459709D01*
X111138030Y-71127042D01*
X110943149Y-70868976D01*
X110717127Y-70583856D01*
X110549543Y-70389353D01*
X110466882Y-70317416D01*
X110418287Y-70374413D01*
X110308019Y-70575360D01*
X110158268Y-70887093D01*
X109987007Y-71273796D01*
X109842935Y-71599713D01*
X109689381Y-71919537D01*
X109572413Y-72131955D01*
X109509750Y-72202484D01*
X109454954Y-72157682D01*
X109290533Y-71996379D01*
X109050062Y-71747439D01*
X108763659Y-71441579D01*
X108086459Y-70708367D01*
X107902854Y-71055974D01*
X107523099Y-71774957D01*
G36*
X107523099Y-71774957D02*
G01*
X107513415Y-71793299D01*
X107334914Y-72133616D01*
X107083886Y-72615044D01*
X106774011Y-73211217D01*
X106418966Y-73895766D01*
X106032425Y-74642316D01*
X105628064Y-75424511D01*
X105219568Y-76215971D01*
X104152951Y-78284278D01*
X103479395Y-79590403D01*
X103693096Y-79774219D01*
X103731310Y-79807092D01*
X103875346Y-79975360D01*
X103972811Y-80218639D01*
X103963937Y-80436871D01*
X103840160Y-80570044D01*
X103801838Y-80578275D01*
X103593349Y-80558070D01*
X103327633Y-80477119D01*
X102958174Y-80329290D01*
X102845989Y-80899512D01*
X102834302Y-80962057D01*
X102809890Y-81366418D01*
X102796921Y-81581298D01*
X102922025Y-82129042D01*
X103216154Y-82616482D01*
X103685833Y-83054800D01*
X104337595Y-83455192D01*
X104585896Y-83583897D01*
X104872033Y-83743782D01*
X104987831Y-83850193D01*
X104931883Y-83925861D01*
X104702774Y-83993523D01*
X104299102Y-84075913D01*
X103951261Y-84146235D01*
X103589933Y-84228882D01*
X103376125Y-84300436D01*
X103286120Y-84373912D01*
X103296196Y-84462310D01*
X103382636Y-84578653D01*
X103554599Y-84777031D01*
X104649976Y-84540547D01*
X105052609Y-84461991D01*
X106039171Y-84331095D01*
X107049551Y-84274372D01*
X108043290Y-84290311D01*
X108979934Y-84377409D01*
X109819026Y-84534157D01*
X110520113Y-84759054D01*
X110848991Y-84896466D01*
X110535543Y-85446204D01*
X110469717Y-85561827D01*
X110288165Y-85881367D01*
X110040498Y-86317755D01*
X109744547Y-86839570D01*
X109418139Y-87415377D01*
X109079100Y-88013751D01*
X107936100Y-90031564D01*
X99816040Y-90032865D01*
X98919082Y-90032811D01*
X97733143Y-90032118D01*
X96613403Y-90030754D01*
X95573674Y-90028770D01*
X94627765Y-90026223D01*
X93789487Y-90023158D01*
X93072655Y-90019635D01*
X92491075Y-90015702D01*
X92058562Y-90011413D01*
X91788926Y-90006823D01*
X91695974Y-90001981D01*
X91718209Y-89932443D01*
X91796824Y-89704900D01*
X91924025Y-89342880D01*
X92091236Y-88870650D01*
X92289893Y-88312474D01*
X92511428Y-87692608D01*
X93326878Y-85415424D01*
X93059114Y-85201134D01*
X92905543Y-85089156D01*
X92403190Y-84807024D01*
X91772920Y-84542046D01*
X91059359Y-84314026D01*
X90781394Y-84237171D01*
X90188317Y-84064344D01*
X89755615Y-83916856D01*
X89465176Y-83781834D01*
X89298878Y-83646402D01*
X89238614Y-83497695D01*
X89266271Y-83322834D01*
X89363737Y-83108944D01*
X89653946Y-82633812D01*
X90127499Y-81997404D01*
X90720590Y-81300705D01*
X91410256Y-80565432D01*
X92173541Y-79813297D01*
X92760407Y-79274481D01*
X98918834Y-79274481D01*
X98981911Y-79677510D01*
X99002593Y-79795648D01*
X99188600Y-80389140D01*
X99485452Y-80846362D01*
X99883846Y-81152106D01*
X100320872Y-81310947D01*
X100871015Y-81366418D01*
X101433187Y-81366418D01*
X100827019Y-80965756D01*
X100736906Y-80904129D01*
X100356769Y-80615211D01*
X99942805Y-80266344D01*
X99569845Y-79919790D01*
X98918834Y-79274481D01*
X92760407Y-79274481D01*
X92987474Y-79066005D01*
X93829105Y-78345271D01*
X94307039Y-77965534D01*
X99595571Y-77965534D01*
X99614323Y-78178785D01*
X99708319Y-78556542D01*
X99822394Y-78875047D01*
X100099553Y-79315228D01*
X100464098Y-79606941D01*
X100671103Y-79685011D01*
X100968620Y-79755625D01*
X101291720Y-79806039D01*
X101587717Y-79830069D01*
X101803946Y-79821528D01*
X101887727Y-79774219D01*
X101887678Y-79772901D01*
X101810309Y-79674211D01*
X101613911Y-79510321D01*
X101340037Y-79315993D01*
X101296540Y-79286590D01*
X100945162Y-79021909D01*
X100552982Y-78691150D01*
X100197037Y-78358825D01*
X100104206Y-78266967D01*
X99829171Y-78014215D01*
X99663404Y-77912209D01*
X99595571Y-77965534D01*
X94307039Y-77965534D01*
X94675465Y-77672805D01*
X95503591Y-77070318D01*
X96290524Y-76559523D01*
X96742384Y-76286913D01*
X100363726Y-76286913D01*
X100365818Y-76612101D01*
X100373536Y-76730347D01*
X100482287Y-77156569D01*
X100687105Y-77578737D01*
X100946476Y-77904474D01*
X100980527Y-77933080D01*
X101246288Y-78093699D01*
X101554349Y-78213507D01*
X101587816Y-78222151D01*
X101851102Y-78270742D01*
X102155945Y-78304668D01*
X102444859Y-78320512D01*
X102660368Y-78314851D01*
X102744977Y-78284278D01*
X102744842Y-78283423D01*
X102665993Y-78214393D01*
X102469847Y-78072607D01*
X102197287Y-77887662D01*
X102121156Y-77835655D01*
X101767127Y-77567856D01*
X101371559Y-77238141D01*
X101006663Y-76906050D01*
X100363726Y-76286913D01*
X96742384Y-76286913D01*
X97027448Y-76114932D01*
X97548967Y-75049737D01*
X97848950Y-74460129D01*
X98568064Y-73220177D01*
X99374176Y-72065405D01*
X99817944Y-71531381D01*
X104078476Y-71531381D01*
X104112959Y-71816438D01*
X104252666Y-72064779D01*
X104280053Y-72089178D01*
X104443025Y-72197057D01*
X104607739Y-72193119D01*
X104851765Y-72079247D01*
X104947358Y-72013484D01*
X105176017Y-71745689D01*
X105345622Y-71399607D01*
X105411974Y-71055974D01*
X105334732Y-70798065D01*
X105141101Y-70591727D01*
X104894888Y-70507919D01*
X104828405Y-70523232D01*
X104628151Y-70639220D01*
X104402327Y-70831766D01*
X104241371Y-71009520D01*
X104112469Y-71247030D01*
X104078476Y-71531381D01*
X99817944Y-71531381D01*
X100299772Y-70951556D01*
X101377342Y-69834372D01*
X102357986Y-68943192D01*
X103868254Y-67773579D01*
X105501272Y-66719891D01*
X107233569Y-65792076D01*
X109041683Y-65000108D01*
X110902140Y-64353935D01*
X112791474Y-63863516D01*
X114686222Y-63538818D01*
X116562915Y-63389796D01*
X117383855Y-63377453D01*
X118056560Y-63399678D01*
X118571558Y-63460050D01*
X118944050Y-63561363D01*
X119189219Y-63706412D01*
X119322266Y-63898004D01*
X119343816Y-63968352D01*
X119390913Y-64308372D01*
X119407334Y-64818488D01*
X119393901Y-65485244D01*
X119351435Y-66295181D01*
X119280758Y-67234839D01*
X119182689Y-68290764D01*
X119058053Y-69449501D01*
X118907663Y-70697585D01*
X118793282Y-71601630D01*
X118079568Y-72146216D01*
X117902057Y-72280595D01*
X117615749Y-72492261D01*
X117408272Y-72638903D01*
X117315531Y-72694734D01*
X117284396Y-72650684D01*
X117200169Y-72460541D01*
X117081711Y-72154464D01*
X116944088Y-71769980D01*
X116845781Y-71490449D01*
X116716946Y-71139426D01*
X116617167Y-70885806D01*
X116562326Y-70771155D01*
X116561376Y-70770233D01*
X116461184Y-70799361D01*
X116241764Y-70923269D01*
X115934796Y-71122560D01*
X115571948Y-71377836D01*
X115558583Y-71387556D01*
X115199568Y-71644047D01*
X114901290Y-71848536D01*
X114694493Y-71980512D01*
X114609929Y-72019473D01*
X114557265Y-71933469D01*
X114430563Y-71713217D01*
X114249731Y-71393325D01*
X114034221Y-71007981D01*
X113825259Y-70635350D01*
X113646317Y-70321722D01*
X113521748Y-70109619D01*
X113470394Y-70031666D01*
X113468081Y-70033137D01*
X113389718Y-70121855D01*
X113219145Y-70327806D01*
X112979345Y-70622970D01*
X112693298Y-70979316D01*
X112656749Y-71024951D01*
X112366575Y-71377377D01*
X112116119Y-71665049D01*
X111931074Y-71859390D01*
X111837137Y-71931818D01*
X111774506Y-71891381D01*
X111614990Y-71725119D01*
X111393594Y-71459709D01*
X111138030Y-71127042D01*
X110943149Y-70868976D01*
X110717127Y-70583856D01*
X110549543Y-70389353D01*
X110466882Y-70317416D01*
X110418287Y-70374413D01*
X110308019Y-70575360D01*
X110158268Y-70887093D01*
X109987007Y-71273796D01*
X109842935Y-71599713D01*
X109689381Y-71919537D01*
X109572413Y-72131955D01*
X109509750Y-72202484D01*
X109454954Y-72157682D01*
X109290533Y-71996379D01*
X109050062Y-71747439D01*
X108763659Y-71441579D01*
X108086459Y-70708367D01*
X107902854Y-71055974D01*
X107523099Y-71774957D01*
G37*
X123783894Y-75150087D02*
X123999912Y-75562418D01*
X124080975Y-75984450D01*
X124050690Y-76154820D01*
X123949958Y-76450785D01*
X123803051Y-76778920D01*
X123761318Y-76861266D01*
X123618330Y-77123287D01*
X123504903Y-77258116D01*
X123378044Y-77301933D01*
X123194768Y-77290921D01*
X122832212Y-77305992D01*
X122523885Y-77474449D01*
X122306589Y-77809200D01*
X122224631Y-78102775D01*
X122270036Y-78442228D01*
X122493965Y-78775840D01*
X122694804Y-78995143D01*
X122448200Y-79442592D01*
X122366516Y-79595488D01*
X122202554Y-79908225D01*
X121970385Y-80354175D01*
X121679847Y-80914344D01*
X121340763Y-81569755D01*
X120992616Y-82244008D01*
X120962970Y-82301428D01*
X120556301Y-83090373D01*
X120130578Y-83917612D01*
X118059557Y-87945189D01*
X117547461Y-87656176D01*
X117289553Y-87515925D01*
X117036054Y-87412092D01*
X116802311Y-87385893D01*
X116521700Y-87432130D01*
X116127599Y-87545620D01*
X115833699Y-87644346D01*
X115613771Y-87761130D01*
X115453922Y-87932800D01*
X115287381Y-88212345D01*
X115018659Y-88703421D01*
X114464439Y-88376037D01*
X114829241Y-87712503D01*
X115194042Y-87048973D01*
X115946573Y-86829337D01*
X116050505Y-86799322D01*
X116403408Y-86702316D01*
X116678858Y-86633934D01*
X116824406Y-86607433D01*
X116847716Y-86610102D01*
X117026352Y-86666122D01*
X117313056Y-86780031D01*
X117657842Y-86932342D01*
X117774779Y-86985253D01*
X118076652Y-87110002D01*
X118287000Y-87178951D01*
X118365975Y-87178258D01*
X118370156Y-87135364D01*
X118417365Y-86963077D01*
X118419926Y-86929962D01*
X118328652Y-86819262D01*
X118083249Y-86670028D01*
X117669848Y-86473176D01*
X116870940Y-86117194D01*
X115975395Y-86370967D01*
X115750121Y-86438260D01*
X115371932Y-86567491D01*
X115079180Y-86688393D01*
X114921455Y-86781642D01*
X114916167Y-86787033D01*
X114790424Y-86955814D01*
X114617862Y-87234364D01*
X114434195Y-87565258D01*
X114105330Y-88191973D01*
X113428764Y-87820008D01*
X113166954Y-87674379D01*
X112944272Y-87537624D01*
X112845186Y-87442791D01*
X112844219Y-87362529D01*
X112915899Y-87269496D01*
X112985343Y-87176724D01*
X113141367Y-86928684D01*
X113338890Y-86586733D01*
X113551322Y-86195800D01*
X114023043Y-85300651D01*
X113764325Y-84166971D01*
X113763686Y-84164163D01*
X113663556Y-83713704D01*
X113581778Y-83323743D01*
X113526765Y-83035936D01*
X113506916Y-82891927D01*
X113530874Y-82788513D01*
X113625063Y-82550080D01*
X113766026Y-82258170D01*
X113904977Y-82004991D01*
X114024006Y-81851217D01*
X114148544Y-81800002D01*
X114324836Y-81814627D01*
X114394482Y-81824181D01*
X114615419Y-81801339D01*
X114774309Y-81651516D01*
X114922773Y-81439557D01*
X115456478Y-81744913D01*
X115787853Y-81960036D01*
X116035938Y-82206582D01*
X116236454Y-82536256D01*
X116482721Y-83022243D01*
X116234757Y-83527831D01*
X116184636Y-83627880D01*
X116035547Y-83879304D01*
X115901136Y-84001420D01*
X115743308Y-84033415D01*
X115734483Y-84033564D01*
X115497041Y-84104871D01*
X115266020Y-84267213D01*
X115145208Y-84415605D01*
X115032141Y-84722199D01*
X115060883Y-85022205D01*
X115202493Y-85285414D01*
X115428038Y-85481623D01*
X115708572Y-85580623D01*
X116015166Y-85552215D01*
X116318876Y-85366189D01*
X116489241Y-85123716D01*
X116555715Y-84769219D01*
X116458646Y-84410056D01*
X116440344Y-84368845D01*
X116428860Y-84211705D01*
X116498021Y-83982426D01*
X116659211Y-83637091D01*
X116957363Y-83046462D01*
X116638196Y-82386712D01*
X116487783Y-82091809D01*
X116318106Y-81830152D01*
X116133899Y-81652834D01*
X115889940Y-81506661D01*
X115635281Y-81375837D01*
X115352784Y-81213459D01*
X115212677Y-81069391D01*
X115200243Y-80897662D01*
X115300755Y-80652295D01*
X115389439Y-80489427D01*
X115540025Y-80489427D01*
X115574463Y-80584233D01*
X115594344Y-80593575D01*
X115752465Y-80674804D01*
X116034737Y-80823196D01*
X116408718Y-81021642D01*
X116841974Y-81253023D01*
X116879009Y-81272868D01*
X117339741Y-81522636D01*
X117659660Y-81706744D01*
X117865323Y-81845763D01*
X117983282Y-81960234D01*
X118040081Y-82070722D01*
X118062275Y-82197780D01*
X118119627Y-82414783D01*
X118337058Y-82697613D01*
X118345424Y-82704129D01*
X118689350Y-82869418D01*
X119032988Y-82847364D01*
X119353113Y-82639302D01*
X119418098Y-82568179D01*
X119584508Y-82244008D01*
X119568789Y-81911175D01*
X119370429Y-81600211D01*
X119203110Y-81478819D01*
X118907910Y-81377529D01*
X118614452Y-81370450D01*
X118397921Y-81467821D01*
X118379880Y-81478707D01*
X118241991Y-81466287D01*
X117980712Y-81368628D01*
X117583380Y-81180411D01*
X117037323Y-80896321D01*
X116820603Y-80781117D01*
X116399106Y-80560783D01*
X116051144Y-80383870D01*
X115808040Y-80266159D01*
X115701116Y-80223418D01*
X115669121Y-80232382D01*
X115583117Y-80339266D01*
X115540025Y-80489427D01*
X115389439Y-80489427D01*
X115499493Y-80287314D01*
X115900749Y-79560415D01*
X116768336Y-79996146D01*
X116822538Y-80023335D01*
X117209754Y-80212245D01*
X117486203Y-80327449D01*
X117703548Y-80382682D01*
X117913469Y-80391691D01*
X118167638Y-80368210D01*
X118570761Y-80314552D01*
X118879421Y-80249388D01*
X119087289Y-80157489D01*
X119241275Y-80017296D01*
X119388303Y-79807249D01*
X119468075Y-79675768D01*
X119588616Y-79450449D01*
X119636154Y-79319098D01*
X119636190Y-79317618D01*
X119722185Y-79247647D01*
X119923772Y-79212250D01*
X120072987Y-79184175D01*
X120355677Y-79016356D01*
X120568158Y-78750748D01*
X120651975Y-78448654D01*
X120646044Y-78392953D01*
X120544830Y-78160362D01*
X120359426Y-77918518D01*
X120143601Y-77728569D01*
X119951127Y-77651668D01*
X119781032Y-77667238D01*
X119443743Y-77811036D01*
X119213177Y-78072031D01*
X119117237Y-78409167D01*
X119183805Y-78781371D01*
X119203844Y-78830191D01*
X119264769Y-79037466D01*
X119238773Y-79216696D01*
X119116620Y-79461253D01*
X119002721Y-79643994D01*
X118865786Y-79772941D01*
X118662368Y-79851286D01*
X118330997Y-79914489D01*
X118220423Y-79932192D01*
X117976406Y-79962198D01*
X117777267Y-79955313D01*
X117569282Y-79899279D01*
X117298724Y-79781833D01*
X116911863Y-79590723D01*
X116076879Y-79172196D01*
X116223746Y-78888183D01*
X116236715Y-78863464D01*
X116347478Y-78679531D01*
X116419590Y-78604165D01*
X116452098Y-78613291D01*
X116616470Y-78684585D01*
X116859245Y-78803475D01*
X116926187Y-78836802D01*
X117181881Y-78934767D01*
X117437139Y-78959391D01*
X117784139Y-78922540D01*
X117909207Y-78902650D01*
X118164776Y-78843736D01*
X118287023Y-78767281D01*
X118318352Y-78651793D01*
X118306782Y-78561622D01*
X118237032Y-78499432D01*
X118064979Y-78478417D01*
X117746852Y-78485874D01*
X117309191Y-78476896D01*
X116961359Y-78387675D01*
X116762441Y-78207468D01*
X116699099Y-77929192D01*
X116698244Y-77875318D01*
X116671955Y-77722971D01*
X116582180Y-77597326D01*
X116393126Y-77461404D01*
X116069000Y-77278227D01*
X115777046Y-77119710D01*
X116079975Y-77119710D01*
X116115593Y-77167954D01*
X116259881Y-77264997D01*
X116351226Y-77302297D01*
X116458128Y-77264299D01*
X116558478Y-77074732D01*
X116677170Y-76788186D01*
X117783509Y-76844737D01*
X118188504Y-76867543D01*
X118604354Y-76895668D01*
X118925060Y-76922565D01*
X119103035Y-76944633D01*
X119126282Y-76948701D01*
X119270822Y-76928748D01*
X119415906Y-76801434D01*
X119601288Y-76534013D01*
X119716542Y-76341876D01*
X119839640Y-76109415D01*
X119888168Y-75976854D01*
X119888217Y-75975423D01*
X119974937Y-75903504D01*
X120176501Y-75873665D01*
X120310988Y-75860367D01*
X120627036Y-75714729D01*
X120852018Y-75447285D01*
X120937725Y-75106608D01*
X120930291Y-74993339D01*
X120809183Y-74667381D01*
X120574800Y-74440649D01*
X120272693Y-74332730D01*
X119948418Y-74363222D01*
X119647521Y-74551713D01*
X119583378Y-74623722D01*
X119429901Y-74954045D01*
X119444468Y-75309563D01*
X119628036Y-75636825D01*
X119660585Y-75673406D01*
X119750031Y-75792260D01*
X119726699Y-75806138D01*
X119691522Y-75798141D01*
X119549345Y-75886323D01*
X119366541Y-76126970D01*
X119122034Y-76514294D01*
X118101069Y-76459443D01*
X117783032Y-76441250D01*
X117364572Y-76413854D01*
X117031995Y-76388051D01*
X116837492Y-76367625D01*
X116658725Y-76359161D01*
X116493593Y-76395849D01*
X116480925Y-76405695D01*
X116372660Y-76543494D01*
X116239901Y-76760659D01*
X116127419Y-76978846D01*
X116079975Y-77119710D01*
X115777046Y-77119710D01*
X115438901Y-76936114D01*
X115876692Y-76054520D01*
X116314488Y-75172929D01*
X116062344Y-73959608D01*
X115810205Y-72746291D01*
X116064153Y-72293951D01*
X116170007Y-72112713D01*
X116297352Y-71917409D01*
X116366882Y-71841512D01*
X116384522Y-71861393D01*
X116458011Y-72017075D01*
X116567424Y-72293762D01*
X116696313Y-72651039D01*
X116759493Y-72828195D01*
X116885966Y-73152542D01*
X116988723Y-73376880D01*
X117050054Y-73460666D01*
X117109292Y-73434035D01*
X117299750Y-73316666D01*
X117582687Y-73127184D01*
X117922122Y-72889166D01*
X118163898Y-72720056D01*
X118478556Y-72512426D01*
X118716786Y-72370334D01*
X118840230Y-72317666D01*
X118844226Y-72317963D01*
X118978232Y-72369533D01*
X119248722Y-72499551D01*
X119628801Y-72693335D01*
X120091568Y-72936200D01*
X120610125Y-73213472D01*
X121157577Y-73510463D01*
X121707023Y-73812494D01*
X122231561Y-74104877D01*
X122704299Y-74372942D01*
X123098333Y-74601996D01*
X123386765Y-74777366D01*
X123542699Y-74884362D01*
X123744429Y-75106608D01*
X123783894Y-75150087D01*
G36*
X123783894Y-75150087D02*
G01*
X123999912Y-75562418D01*
X124080975Y-75984450D01*
X124050690Y-76154820D01*
X123949958Y-76450785D01*
X123803051Y-76778920D01*
X123761318Y-76861266D01*
X123618330Y-77123287D01*
X123504903Y-77258116D01*
X123378044Y-77301933D01*
X123194768Y-77290921D01*
X122832212Y-77305992D01*
X122523885Y-77474449D01*
X122306589Y-77809200D01*
X122224631Y-78102775D01*
X122270036Y-78442228D01*
X122493965Y-78775840D01*
X122694804Y-78995143D01*
X122448200Y-79442592D01*
X122366516Y-79595488D01*
X122202554Y-79908225D01*
X121970385Y-80354175D01*
X121679847Y-80914344D01*
X121340763Y-81569755D01*
X120992616Y-82244008D01*
X120962970Y-82301428D01*
X120556301Y-83090373D01*
X120130578Y-83917612D01*
X118059557Y-87945189D01*
X117547461Y-87656176D01*
X117289553Y-87515925D01*
X117036054Y-87412092D01*
X116802311Y-87385893D01*
X116521700Y-87432130D01*
X116127599Y-87545620D01*
X115833699Y-87644346D01*
X115613771Y-87761130D01*
X115453922Y-87932800D01*
X115287381Y-88212345D01*
X115018659Y-88703421D01*
X114464439Y-88376037D01*
X114829241Y-87712503D01*
X115194042Y-87048973D01*
X115946573Y-86829337D01*
X116050505Y-86799322D01*
X116403408Y-86702316D01*
X116678858Y-86633934D01*
X116824406Y-86607433D01*
X116847716Y-86610102D01*
X117026352Y-86666122D01*
X117313056Y-86780031D01*
X117657842Y-86932342D01*
X117774779Y-86985253D01*
X118076652Y-87110002D01*
X118287000Y-87178951D01*
X118365975Y-87178258D01*
X118370156Y-87135364D01*
X118417365Y-86963077D01*
X118419926Y-86929962D01*
X118328652Y-86819262D01*
X118083249Y-86670028D01*
X117669848Y-86473176D01*
X116870940Y-86117194D01*
X115975395Y-86370967D01*
X115750121Y-86438260D01*
X115371932Y-86567491D01*
X115079180Y-86688393D01*
X114921455Y-86781642D01*
X114916167Y-86787033D01*
X114790424Y-86955814D01*
X114617862Y-87234364D01*
X114434195Y-87565258D01*
X114105330Y-88191973D01*
X113428764Y-87820008D01*
X113166954Y-87674379D01*
X112944272Y-87537624D01*
X112845186Y-87442791D01*
X112844219Y-87362529D01*
X112915899Y-87269496D01*
X112985343Y-87176724D01*
X113141367Y-86928684D01*
X113338890Y-86586733D01*
X113551322Y-86195800D01*
X114023043Y-85300651D01*
X113764325Y-84166971D01*
X113763686Y-84164163D01*
X113663556Y-83713704D01*
X113581778Y-83323743D01*
X113526765Y-83035936D01*
X113506916Y-82891927D01*
X113530874Y-82788513D01*
X113625063Y-82550080D01*
X113766026Y-82258170D01*
X113904977Y-82004991D01*
X114024006Y-81851217D01*
X114148544Y-81800002D01*
X114324836Y-81814627D01*
X114394482Y-81824181D01*
X114615419Y-81801339D01*
X114774309Y-81651516D01*
X114922773Y-81439557D01*
X115456478Y-81744913D01*
X115787853Y-81960036D01*
X116035938Y-82206582D01*
X116236454Y-82536256D01*
X116482721Y-83022243D01*
X116234757Y-83527831D01*
X116184636Y-83627880D01*
X116035547Y-83879304D01*
X115901136Y-84001420D01*
X115743308Y-84033415D01*
X115734483Y-84033564D01*
X115497041Y-84104871D01*
X115266020Y-84267213D01*
X115145208Y-84415605D01*
X115032141Y-84722199D01*
X115060883Y-85022205D01*
X115202493Y-85285414D01*
X115428038Y-85481623D01*
X115708572Y-85580623D01*
X116015166Y-85552215D01*
X116318876Y-85366189D01*
X116489241Y-85123716D01*
X116555715Y-84769219D01*
X116458646Y-84410056D01*
X116440344Y-84368845D01*
X116428860Y-84211705D01*
X116498021Y-83982426D01*
X116659211Y-83637091D01*
X116957363Y-83046462D01*
X116638196Y-82386712D01*
X116487783Y-82091809D01*
X116318106Y-81830152D01*
X116133899Y-81652834D01*
X115889940Y-81506661D01*
X115635281Y-81375837D01*
X115352784Y-81213459D01*
X115212677Y-81069391D01*
X115200243Y-80897662D01*
X115300755Y-80652295D01*
X115389439Y-80489427D01*
X115540025Y-80489427D01*
X115574463Y-80584233D01*
X115594344Y-80593575D01*
X115752465Y-80674804D01*
X116034737Y-80823196D01*
X116408718Y-81021642D01*
X116841974Y-81253023D01*
X116879009Y-81272868D01*
X117339741Y-81522636D01*
X117659660Y-81706744D01*
X117865323Y-81845763D01*
X117983282Y-81960234D01*
X118040081Y-82070722D01*
X118062275Y-82197780D01*
X118119627Y-82414783D01*
X118337058Y-82697613D01*
X118345424Y-82704129D01*
X118689350Y-82869418D01*
X119032988Y-82847364D01*
X119353113Y-82639302D01*
X119418098Y-82568179D01*
X119584508Y-82244008D01*
X119568789Y-81911175D01*
X119370429Y-81600211D01*
X119203110Y-81478819D01*
X118907910Y-81377529D01*
X118614452Y-81370450D01*
X118397921Y-81467821D01*
X118379880Y-81478707D01*
X118241991Y-81466287D01*
X117980712Y-81368628D01*
X117583380Y-81180411D01*
X117037323Y-80896321D01*
X116820603Y-80781117D01*
X116399106Y-80560783D01*
X116051144Y-80383870D01*
X115808040Y-80266159D01*
X115701116Y-80223418D01*
X115669121Y-80232382D01*
X115583117Y-80339266D01*
X115540025Y-80489427D01*
X115389439Y-80489427D01*
X115499493Y-80287314D01*
X115900749Y-79560415D01*
X116768336Y-79996146D01*
X116822538Y-80023335D01*
X117209754Y-80212245D01*
X117486203Y-80327449D01*
X117703548Y-80382682D01*
X117913469Y-80391691D01*
X118167638Y-80368210D01*
X118570761Y-80314552D01*
X118879421Y-80249388D01*
X119087289Y-80157489D01*
X119241275Y-80017296D01*
X119388303Y-79807249D01*
X119468075Y-79675768D01*
X119588616Y-79450449D01*
X119636154Y-79319098D01*
X119636190Y-79317618D01*
X119722185Y-79247647D01*
X119923772Y-79212250D01*
X120072987Y-79184175D01*
X120355677Y-79016356D01*
X120568158Y-78750748D01*
X120651975Y-78448654D01*
X120646044Y-78392953D01*
X120544830Y-78160362D01*
X120359426Y-77918518D01*
X120143601Y-77728569D01*
X119951127Y-77651668D01*
X119781032Y-77667238D01*
X119443743Y-77811036D01*
X119213177Y-78072031D01*
X119117237Y-78409167D01*
X119183805Y-78781371D01*
X119203844Y-78830191D01*
X119264769Y-79037466D01*
X119238773Y-79216696D01*
X119116620Y-79461253D01*
X119002721Y-79643994D01*
X118865786Y-79772941D01*
X118662368Y-79851286D01*
X118330997Y-79914489D01*
X118220423Y-79932192D01*
X117976406Y-79962198D01*
X117777267Y-79955313D01*
X117569282Y-79899279D01*
X117298724Y-79781833D01*
X116911863Y-79590723D01*
X116076879Y-79172196D01*
X116223746Y-78888183D01*
X116236715Y-78863464D01*
X116347478Y-78679531D01*
X116419590Y-78604165D01*
X116452098Y-78613291D01*
X116616470Y-78684585D01*
X116859245Y-78803475D01*
X116926187Y-78836802D01*
X117181881Y-78934767D01*
X117437139Y-78959391D01*
X117784139Y-78922540D01*
X117909207Y-78902650D01*
X118164776Y-78843736D01*
X118287023Y-78767281D01*
X118318352Y-78651793D01*
X118306782Y-78561622D01*
X118237032Y-78499432D01*
X118064979Y-78478417D01*
X117746852Y-78485874D01*
X117309191Y-78476896D01*
X116961359Y-78387675D01*
X116762441Y-78207468D01*
X116699099Y-77929192D01*
X116698244Y-77875318D01*
X116671955Y-77722971D01*
X116582180Y-77597326D01*
X116393126Y-77461404D01*
X116069000Y-77278227D01*
X115777046Y-77119710D01*
X116079975Y-77119710D01*
X116115593Y-77167954D01*
X116259881Y-77264997D01*
X116351226Y-77302297D01*
X116458128Y-77264299D01*
X116558478Y-77074732D01*
X116677170Y-76788186D01*
X117783509Y-76844737D01*
X118188504Y-76867543D01*
X118604354Y-76895668D01*
X118925060Y-76922565D01*
X119103035Y-76944633D01*
X119126282Y-76948701D01*
X119270822Y-76928748D01*
X119415906Y-76801434D01*
X119601288Y-76534013D01*
X119716542Y-76341876D01*
X119839640Y-76109415D01*
X119888168Y-75976854D01*
X119888217Y-75975423D01*
X119974937Y-75903504D01*
X120176501Y-75873665D01*
X120310988Y-75860367D01*
X120627036Y-75714729D01*
X120852018Y-75447285D01*
X120937725Y-75106608D01*
X120930291Y-74993339D01*
X120809183Y-74667381D01*
X120574800Y-74440649D01*
X120272693Y-74332730D01*
X119948418Y-74363222D01*
X119647521Y-74551713D01*
X119583378Y-74623722D01*
X119429901Y-74954045D01*
X119444468Y-75309563D01*
X119628036Y-75636825D01*
X119660585Y-75673406D01*
X119750031Y-75792260D01*
X119726699Y-75806138D01*
X119691522Y-75798141D01*
X119549345Y-75886323D01*
X119366541Y-76126970D01*
X119122034Y-76514294D01*
X118101069Y-76459443D01*
X117783032Y-76441250D01*
X117364572Y-76413854D01*
X117031995Y-76388051D01*
X116837492Y-76367625D01*
X116658725Y-76359161D01*
X116493593Y-76395849D01*
X116480925Y-76405695D01*
X116372660Y-76543494D01*
X116239901Y-76760659D01*
X116127419Y-76978846D01*
X116079975Y-77119710D01*
X115777046Y-77119710D01*
X115438901Y-76936114D01*
X115876692Y-76054520D01*
X116314488Y-75172929D01*
X116062344Y-73959608D01*
X115810205Y-72746291D01*
X116064153Y-72293951D01*
X116170007Y-72112713D01*
X116297352Y-71917409D01*
X116366882Y-71841512D01*
X116384522Y-71861393D01*
X116458011Y-72017075D01*
X116567424Y-72293762D01*
X116696313Y-72651039D01*
X116759493Y-72828195D01*
X116885966Y-73152542D01*
X116988723Y-73376880D01*
X117050054Y-73460666D01*
X117109292Y-73434035D01*
X117299750Y-73316666D01*
X117582687Y-73127184D01*
X117922122Y-72889166D01*
X118163898Y-72720056D01*
X118478556Y-72512426D01*
X118716786Y-72370334D01*
X118840230Y-72317666D01*
X118844226Y-72317963D01*
X118978232Y-72369533D01*
X119248722Y-72499551D01*
X119628801Y-72693335D01*
X120091568Y-72936200D01*
X120610125Y-73213472D01*
X121157577Y-73510463D01*
X121707023Y-73812494D01*
X122231561Y-74104877D01*
X122704299Y-74372942D01*
X123098333Y-74601996D01*
X123386765Y-74777366D01*
X123542699Y-74884362D01*
X123744429Y-75106608D01*
X123783894Y-75150087D01*
G37*
%TD*%
%LPC*%
D11*
%TO.C,J3*%
X126000000Y-74250000D03*
D12*
X126000000Y-75250000D03*
%TD*%
D13*
%TO.C,J2*%
X126516000Y-82960000D03*
X124484000Y-82960000D03*
X125500000Y-88040000D03*
%TD*%
%LPD*%
M02*
