M48
; DRILL file {KiCad 8.0.4} date 2024-10-02T01:17:14-0500
; FORMAT={-:-/ absolute / inch / decimal}
; #@! TF.CreationDate,2024-10-02T01:17:14-05:00
; #@! TF.GenerationSoftware,Kicad,Pcbnew,8.0.4
; #@! TF.FileFunction,Plated,1,4,PTH
FMAT,2
INCH
; #@! TA.AperFunction,Plated,PTH,ViaDrill
T1C0.0118
; #@! TA.AperFunction,Plated,PTH,ComponentDrill
T2C0.0197
%
G90
G05
T1
X3.8411Y-2.6374
X3.8411Y-2.9917
X3.8411Y-3.3591
X3.8878Y-2.5748
X3.8878Y-2.6102
X3.8878Y-2.6457
X3.8878Y-2.9252
X3.8878Y-2.9606
X3.8878Y-2.9961
X3.8878Y-3.2953
X3.8878Y-3.3307
X3.8878Y-3.3661
X3.9055Y-2.5571
X3.9055Y-2.5925
X3.9055Y-2.628
X3.9055Y-2.9075
X3.9055Y-2.9429
X3.9055Y-2.9783
X3.9055Y-3.2776
X3.9055Y-3.313
X3.9055Y-3.3484
X3.9232Y-2.5748
X3.9232Y-2.6102
X3.9232Y-2.6457
X3.9232Y-2.9252
X3.9232Y-2.9606
X3.9232Y-2.9961
X3.9232Y-3.2953
X3.9232Y-3.3307
X3.9232Y-3.3661
X3.9409Y-2.5571
X3.9409Y-2.5925
X3.9409Y-2.628
X3.9409Y-2.9075
X3.9409Y-2.9429
X3.9409Y-2.9783
X3.9409Y-3.2776
X3.9409Y-3.313
X3.9409Y-3.3484
X3.9429Y-2.8051
X3.9429Y-3.1575
X3.9429Y-3.5256
X3.9541Y-2.7039
X3.9541Y-3.0579
X3.9541Y-3.426
X3.9587Y-2.5748
X3.9587Y-2.6102
X3.9587Y-2.6457
X3.9587Y-2.9252
X3.9587Y-2.9606
X3.9587Y-2.9961
X3.9587Y-3.2953
X3.9587Y-3.3307
X3.9587Y-3.3661
X3.9646Y-2.8051
X3.9646Y-3.1575
X3.9646Y-3.5256
X3.9862Y-2.7303
X3.9862Y-2.7559
X3.9862Y-2.7815
X3.9862Y-2.8051
X3.9862Y-3.0827
X3.9862Y-3.1083
X3.9862Y-3.1339
X3.9862Y-3.1575
X3.9862Y-3.4508
X3.9862Y-3.4764
X3.9862Y-3.502
X3.9862Y-3.5256
X4.0079Y-2.7303
X4.0079Y-2.7559
X4.0079Y-2.7815
X4.0079Y-3.0827
X4.0079Y-3.1083
X4.0079Y-3.1339
X4.0079Y-3.4508
X4.0079Y-3.4764
X4.0079Y-3.502
X4.0374Y-3.128
X4.0433Y-2.9232
X4.0433Y-3.2972
X4.0453Y-2.5689
X4.0512Y-2.6378
X4.0512Y-2.7165
X4.0512Y-2.9921
X4.0512Y-3.0551
X4.0512Y-3.3661
X4.0512Y-3.4449
X4.0709Y-3.126
X4.0748Y-2.8051
X4.0807Y-3.1574
X4.0886Y-2.5512
X4.0886Y-2.5866
X4.1043Y-2.9055
X4.1043Y-2.9409
X4.1043Y-3.2795
X4.1043Y-3.3169
X4.1201Y-2.5512
X4.1201Y-2.5866
X4.126Y-2.8917
X4.1535Y-2.8543
X4.1555Y-3.2283
X4.1772Y-3.1122
X4.1791Y-3.3406
X4.1859Y-2.8006
X4.1969Y-3.1575
X4.2028Y-3.5
X4.2244Y-3.1201
X4.2279Y-3.176
X4.2447Y-3.3466
X4.2598Y-3.4232
X4.262Y-3.3639
X4.2638Y-2.5433
X4.2657Y-3.1201
X4.2717Y-2.998
X4.2795Y-3.0748
X4.2978Y-3.425
X4.315Y-2.5433
X4.3169Y-2.7421
X4.3169Y-2.7677
X4.3169Y-2.8012
X4.3169Y-2.8268
X4.3169Y-2.8602
X4.3169Y-2.8858
X4.3169Y-2.9193
X4.3169Y-2.9449
X4.3406Y-2.7421
X4.3406Y-2.7677
X4.3406Y-2.8012
X4.3406Y-2.8268
X4.3406Y-2.8602
X4.3406Y-2.8858
X4.3406Y-2.9193
X4.3406Y-2.9449
X4.3583Y-3.0866
X4.3583Y-3.3366
X4.3799Y-3.0472
X4.3799Y-3.126
X4.3799Y-3.2972
X4.3799Y-3.376
X4.3898Y-2.687
X4.3898Y-2.7106
X4.3898Y-2.7461
X4.3898Y-2.7697
X4.3898Y-2.8051
X4.3898Y-2.8287
X4.3898Y-2.8642
X4.3898Y-2.8878
X4.3898Y-2.9232
X4.3898Y-2.9469
X4.3996Y-3.2303
X4.4016Y-3.0866
X4.4016Y-3.3366
X4.4026Y-3.44
X4.4193Y-2.687
X4.4193Y-2.7106
X4.4193Y-2.7461
X4.4193Y-2.7697
X4.4193Y-2.8051
X4.4193Y-2.8287
X4.4193Y-2.8642
X4.4193Y-2.8878
X4.4193Y-2.9232
X4.4193Y-2.9469
X4.4215Y-3.2335
X4.4232Y-3.0472
X4.4232Y-3.126
X4.4232Y-3.2972
X4.4232Y-3.376
X4.4272Y-3.1839
X4.4469Y-2.687
X4.4469Y-2.7106
X4.4469Y-2.7461
X4.4469Y-2.7697
X4.4469Y-2.8051
X4.4469Y-2.8287
X4.4469Y-2.8642
X4.4469Y-2.8878
X4.4469Y-2.9232
X4.4469Y-2.9469
X4.4481Y-3.1902
X4.4547Y-3.2441
X4.4783Y-3.1654
X4.48Y-3.246
X4.4823Y-3.4114
X4.498Y-2.7421
X4.498Y-2.7677
X4.498Y-2.8012
X4.498Y-2.8268
X4.498Y-2.8602
X4.498Y-2.8858
X4.498Y-2.9193
X4.498Y-2.9449
X4.5016Y-3.2479
X4.5169Y-2.9843
X4.5197Y-2.7421
X4.5197Y-2.7677
X4.5197Y-2.8012
X4.5197Y-2.8268
X4.5197Y-2.8602
X4.5197Y-2.8858
X4.5197Y-2.9193
X4.5197Y-2.9449
X4.5232Y-3.2492
X4.5252Y-3.087
X4.5512Y-3.0787
X4.5584Y-2.8695
X4.5597Y-3.2417
X4.565Y-3.2677
X4.565Y-3.3661
X4.5748Y-3.0787
X4.5866Y-3.4646
X4.5925Y-3.1535
X4.5965Y-2.7815
X4.5965Y-2.8091
X4.6063Y-2.5709
X4.6063Y-2.5984
X4.6063Y-3.1083
X4.6083Y-3.2559
X4.6083Y-3.2815
X4.6083Y-3.3543
X4.6083Y-3.3799
X4.6122Y-2.9803
X4.6181Y-3.1535
X4.6457Y-2.5709
X4.6457Y-2.5984
X4.6457Y-2.874
X4.6457Y-3.4646
X4.6575Y-2.7165
X4.6575Y-2.7953
X4.6614Y-3.3858
X4.6634Y-3.2677
X4.6673Y-2.9331
X4.6673Y-2.9921
X4.6831Y-3.3858
X4.6831Y-3.4764
X4.6841Y-3.0709
X4.685Y-2.874
X4.6867Y-3.2064
X4.687Y-2.5709
X4.689Y-2.5984
X4.6969Y-3.2677
X4.7047Y-3.3858
X4.7047Y-3.4537
X4.7087Y-2.9331
X4.7123Y-3.1808
X4.7126Y-3.2064
X4.7382Y-3.0531
X4.7382Y-3.0886
X4.7382Y-3.1713
X4.7382Y-3.2067
X4.7382Y-3.4469
X4.7382Y-3.4823
X4.7579Y-2.9331
X4.7638Y-2.5709
X4.7638Y-2.5984
X4.7638Y-2.626
X4.7656Y-3.049
X4.7677Y-3.0911
X4.7717Y-3.1713
X4.7717Y-3.2067
X4.7717Y-3.4469
X4.7717Y-3.4823
X4.8031Y-2.5709
X4.8031Y-2.5984
X4.8031Y-2.626
X4.8031Y-2.9331
X4.811Y-3.0728
X4.8445Y-2.5709
X4.8465Y-2.5984
X4.8465Y-2.626
X4.8681Y-2.9941
X4.8957Y-3.3445
X4.8976Y-3.3917
X4.8996Y-2.9902
X4.9035Y-2.5531
X4.9035Y-2.5807
X4.9035Y-2.6083
X4.9035Y-2.6378
X4.9035Y-2.6654
X4.9232Y-2.75
X4.9232Y-2.7795
X4.9232Y-2.8091
X4.9232Y-2.8386
X4.9245Y-2.8669
X4.9331Y-2.7126
X4.939Y-3.1752
X4.9528Y-3.2244
X4.998Y-2.7126
X5.0276Y-3.1772
T2
X4.9606Y-2.9232
X4.9606Y-2.9626
M30
