%TF.GenerationSoftware,KiCad,Pcbnew,8.0.4*%
%TF.CreationDate,2024-10-02T01:17:14-05:00*%
%TF.ProjectId,malenki-hv,6d616c65-6e6b-4692-9d68-762e6b696361,rev?*%
%TF.SameCoordinates,Original*%
%TF.FileFunction,Copper,L1,Top*%
%TF.FilePolarity,Positive*%
%FSLAX46Y46*%
G04 Gerber Fmt 4.6, Leading zero omitted, Abs format (unit mm)*
G04 Created by KiCad (PCBNEW 8.0.4) date 2024-10-02 01:17:14*
%MOMM*%
%LPD*%
G01*
G04 APERTURE LIST*
G04 Aperture macros list*
%AMRoundRect*
0 Rectangle with rounded corners*
0 $1 Rounding radius*
0 $2 $3 $4 $5 $6 $7 $8 $9 X,Y pos of 4 corners*
0 Add a 4 corners polygon primitive as box body*
4,1,4,$2,$3,$4,$5,$6,$7,$8,$9,$2,$3,0*
0 Add four circle primitives for the rounded corners*
1,1,$1+$1,$2,$3*
1,1,$1+$1,$4,$5*
1,1,$1+$1,$6,$7*
1,1,$1+$1,$8,$9*
0 Add four rect primitives between the rounded corners*
20,1,$1+$1,$2,$3,$4,$5,0*
20,1,$1+$1,$4,$5,$6,$7,0*
20,1,$1+$1,$6,$7,$8,$9,0*
20,1,$1+$1,$8,$9,$2,$3,0*%
%AMFreePoly0*
4,1,9,3.862500,-0.866500,0.737500,-0.866500,0.737500,-0.450000,-0.737500,-0.450000,-0.737500,0.450000,0.737500,0.450000,0.737500,0.866500,3.862500,0.866500,3.862500,-0.866500,3.862500,-0.866500,$1*%
%AMFreePoly1*
4,1,21,1.372500,0.787500,0.862500,0.787500,0.862500,0.532500,1.372500,0.532500,1.372500,0.127500,0.862500,0.127500,0.862500,-0.127500,1.372500,-0.127500,1.372500,-0.532500,0.862500,-0.532500,0.862500,-0.787500,1.372500,-0.787500,1.372500,-1.195000,0.612500,-1.195000,0.612500,-1.117500,-0.862500,-1.117500,-0.862500,1.117500,0.612500,1.117500,0.612500,1.195000,1.372500,1.195000,
1.372500,0.787500,1.372500,0.787500,$1*%
G04 Aperture macros list end*
%TA.AperFunction,SMDPad,CuDef*%
%ADD10RoundRect,0.225000X-0.225000X-0.250000X0.225000X-0.250000X0.225000X0.250000X-0.225000X0.250000X0*%
%TD*%
%TA.AperFunction,SMDPad,CuDef*%
%ADD11RoundRect,0.155000X0.155000X-0.212500X0.155000X0.212500X-0.155000X0.212500X-0.155000X-0.212500X0*%
%TD*%
%TA.AperFunction,SMDPad,CuDef*%
%ADD12RoundRect,0.135000X-0.135000X-0.185000X0.135000X-0.185000X0.135000X0.185000X-0.135000X0.185000X0*%
%TD*%
%TA.AperFunction,SMDPad,CuDef*%
%ADD13RoundRect,0.225000X-0.425000X-0.225000X0.425000X-0.225000X0.425000X0.225000X-0.425000X0.225000X0*%
%TD*%
%TA.AperFunction,SMDPad,CuDef*%
%ADD14FreePoly0,0.000000*%
%TD*%
%TA.AperFunction,SMDPad,CuDef*%
%ADD15RoundRect,0.140000X-0.170000X0.140000X-0.170000X-0.140000X0.170000X-0.140000X0.170000X0.140000X0*%
%TD*%
%TA.AperFunction,SMDPad,CuDef*%
%ADD16R,1.000000X1.000000*%
%TD*%
%TA.AperFunction,SMDPad,CuDef*%
%ADD17RoundRect,0.225000X0.225000X0.250000X-0.225000X0.250000X-0.225000X-0.250000X0.225000X-0.250000X0*%
%TD*%
%TA.AperFunction,SMDPad,CuDef*%
%ADD18RoundRect,0.155000X0.212500X0.155000X-0.212500X0.155000X-0.212500X-0.155000X0.212500X-0.155000X0*%
%TD*%
%TA.AperFunction,SMDPad,CuDef*%
%ADD19RoundRect,0.200000X0.200000X0.275000X-0.200000X0.275000X-0.200000X-0.275000X0.200000X-0.275000X0*%
%TD*%
%TA.AperFunction,ConnectorPad*%
%ADD20RoundRect,1.500000X-1.500000X1.500000X-1.500000X-1.500000X1.500000X-1.500000X1.500000X1.500000X0*%
%TD*%
%TA.AperFunction,SMDPad,CuDef*%
%ADD21RoundRect,0.135000X0.135000X0.185000X-0.135000X0.185000X-0.135000X-0.185000X0.135000X-0.185000X0*%
%TD*%
%TA.AperFunction,SMDPad,CuDef*%
%ADD22RoundRect,0.250000X0.400000X0.450000X-0.400000X0.450000X-0.400000X-0.450000X0.400000X-0.450000X0*%
%TD*%
%TA.AperFunction,SMDPad,CuDef*%
%ADD23RoundRect,0.200000X-0.200000X-0.275000X0.200000X-0.275000X0.200000X0.275000X-0.200000X0.275000X0*%
%TD*%
%TA.AperFunction,ComponentPad*%
%ADD24O,0.850000X0.850000*%
%TD*%
%TA.AperFunction,ComponentPad*%
%ADD25R,0.850000X0.850000*%
%TD*%
%TA.AperFunction,ConnectorPad*%
%ADD26C,0.787400*%
%TD*%
%TA.AperFunction,SMDPad,CuDef*%
%ADD27RoundRect,0.750000X-0.750000X-1.250000X0.750000X-1.250000X0.750000X1.250000X-0.750000X1.250000X0*%
%TD*%
%TA.AperFunction,SMDPad,CuDef*%
%ADD28RoundRect,0.250000X1.000000X0.650000X-1.000000X0.650000X-1.000000X-0.650000X1.000000X-0.650000X0*%
%TD*%
%TA.AperFunction,HeatsinkPad*%
%ADD29R,2.600000X2.600000*%
%TD*%
%TA.AperFunction,SMDPad,CuDef*%
%ADD30RoundRect,0.050000X-0.050000X-0.387500X0.050000X-0.387500X0.050000X0.387500X-0.050000X0.387500X0*%
%TD*%
%TA.AperFunction,SMDPad,CuDef*%
%ADD31RoundRect,0.050000X-0.387500X-0.050000X0.387500X-0.050000X0.387500X0.050000X-0.387500X0.050000X0*%
%TD*%
%TA.AperFunction,SMDPad,CuDef*%
%ADD32FreePoly1,180.000000*%
%TD*%
%TA.AperFunction,SMDPad,CuDef*%
%ADD33R,0.990000X0.405000*%
%TD*%
%TA.AperFunction,SMDPad,CuDef*%
%ADD34FreePoly1,0.000000*%
%TD*%
%TA.AperFunction,SMDPad,CuDef*%
%ADD35R,0.242473X1.009637*%
%TD*%
%TA.AperFunction,SMDPad,CuDef*%
%ADD36R,1.009637X0.242473*%
%TD*%
%TA.AperFunction,SMDPad,CuDef*%
%ADD37R,2.550000X2.550000*%
%TD*%
%TA.AperFunction,ViaPad*%
%ADD38C,0.400000*%
%TD*%
%TA.AperFunction,ViaPad*%
%ADD39C,0.600000*%
%TD*%
%TA.AperFunction,Conductor*%
%ADD40C,3.000000*%
%TD*%
%TA.AperFunction,Conductor*%
%ADD41C,0.200000*%
%TD*%
G04 APERTURE END LIST*
D10*
%TO.P,C2,2*%
%TO.N,GND*%
X120775000Y-78000000D03*
%TO.P,C2,1*%
%TO.N,+3V3*%
X119225000Y-78000000D03*
%TD*%
D11*
%TO.P,C28,2*%
%TO.N,+3V3*%
X115500000Y-78932500D03*
%TO.P,C28,1*%
%TO.N,GND*%
X115500000Y-80067500D03*
%TD*%
D12*
%TO.P,R25,1*%
%TO.N,/motor_driver_1_weapon/BEMF_C*%
X104490000Y-82000000D03*
%TO.P,R25,2*%
%TO.N,GND*%
X105510000Y-82000000D03*
%TD*%
D13*
%TO.P,U1,1,GND*%
%TO.N,GND*%
X118550000Y-73000000D03*
D14*
%TO.P,U1,2,IN*%
%TO.N,VBUS*%
X118637500Y-74500000D03*
D13*
%TO.P,U1,3,OUT*%
%TO.N,+3V3*%
X118550000Y-76000000D03*
%TD*%
D15*
%TO.P,C8,2*%
%TO.N,GND*%
X101700000Y-68580000D03*
%TO.P,C8,1*%
%TO.N,VBUS*%
X101700000Y-67620000D03*
%TD*%
D16*
%TO.P,TP2,1,1*%
%TO.N,Net-(U2-DT)*%
X114050000Y-65350000D03*
%TD*%
D17*
%TO.P,C4,2*%
%TO.N,Net-(U2-SHB)*%
X110725000Y-88500000D03*
%TO.P,C4,1*%
%TO.N,Net-(U2-BSTB)*%
X112275000Y-88500000D03*
%TD*%
D18*
%TO.P,C22,2*%
%TO.N,+10V*%
X116716632Y-88006745D03*
%TO.P,C22,1*%
%TO.N,GND*%
X117851632Y-88006745D03*
%TD*%
D15*
%TO.P,C9,2*%
%TO.N,GND*%
X101700000Y-86980000D03*
%TO.P,C9,1*%
%TO.N,VBUS*%
X101700000Y-86020000D03*
%TD*%
D12*
%TO.P,R12,1*%
%TO.N,GND*%
X107490000Y-74250000D03*
%TO.P,R12,2*%
%TO.N,Net-(U4-BOOT0)*%
X108510000Y-74250000D03*
%TD*%
D19*
%TO.P,R29,1*%
%TO.N,/motor_driver_1_weapon/GLB*%
X104525000Y-77600000D03*
%TO.P,R29,2*%
%TO.N,Net-(U10-G)*%
X102875000Y-77600000D03*
%TD*%
D17*
%TO.P,C40,1*%
%TO.N,VBUS*%
X111500000Y-73006755D03*
%TO.P,C40,2*%
%TO.N,GND*%
X109950000Y-73006755D03*
%TD*%
D20*
%TO.P,J6,3,Pin_3*%
%TO.N,/motor_driver_1_weapon/OUT_A*%
X91600000Y-67300000D03*
%TO.P,J6,2,Pin_2*%
%TO.N,/motor_driver_1_weapon/OUT_B*%
X91600000Y-76300000D03*
%TO.P,J6,1,Pin_1*%
%TO.N,/motor_driver_1_weapon/OUT_C*%
X91600000Y-85300000D03*
%TD*%
D21*
%TO.P,R23,1*%
%TO.N,/motor_driver_1_weapon/BEMF_COM*%
X103510000Y-80500000D03*
%TO.P,R23,2*%
%TO.N,/motor_driver_1_weapon/OUT_C*%
X102490000Y-80500000D03*
%TD*%
D22*
%TO.P,D2,1,A1*%
%TO.N,/motor_driver_1_weapon/PWM*%
X123550000Y-70250000D03*
%TO.P,D2,2,A2*%
%TO.N,GND*%
X120650000Y-70250000D03*
%TD*%
D11*
%TO.P,C23,2*%
%TO.N,+3V3*%
X117000000Y-78932500D03*
%TO.P,C23,1*%
%TO.N,GND*%
X117000000Y-80067500D03*
%TD*%
D23*
%TO.P,R28,1*%
%TO.N,Net-(U9-G)*%
X102875000Y-76000000D03*
%TO.P,R28,2*%
%TO.N,/motor_driver_1_weapon/GHB*%
X104525000Y-76000000D03*
%TD*%
D10*
%TO.P,C36,1*%
%TO.N,VBUS*%
X112959597Y-71500000D03*
%TO.P,C36,2*%
%TO.N,GND*%
X114509597Y-71500000D03*
%TD*%
D17*
%TO.P,C6,2*%
%TO.N,GND*%
X116725000Y-69000000D03*
%TO.P,C6,1*%
%TO.N,VBUS*%
X118275000Y-69000000D03*
%TD*%
D12*
%TO.P,R24,1*%
%TO.N,/motor_driver_1_weapon/OUT_C*%
X102490000Y-82000000D03*
%TO.P,R24,2*%
%TO.N,/motor_driver_1_weapon/BEMF_C*%
X103510000Y-82000000D03*
%TD*%
D23*
%TO.P,R31,1*%
%TO.N,Net-(U12-G)*%
X102875000Y-87500000D03*
%TO.P,R31,2*%
%TO.N,/motor_driver_1_weapon/GLC*%
X104525000Y-87500000D03*
%TD*%
D24*
%TO.P,J3,2,Pin_2*%
%TO.N,/motor_driver_1_weapon/PWM*%
X126000000Y-74250000D03*
D25*
%TO.P,J3,1,Pin_1*%
%TO.N,GND*%
X126000000Y-75250000D03*
%TD*%
D26*
%TO.P,J2,6,SWO*%
%TO.N,unconnected-(J2-SWO-Pad6)*%
X124865000Y-84230000D03*
%TO.P,J2,5,GND*%
%TO.N,GND*%
X126135000Y-84230000D03*
%TO.P,J2,4,SWCLK*%
%TO.N,/motor_driver_1_weapon/SWDCLK*%
X124865000Y-85500000D03*
%TO.P,J2,3,~{RESET}*%
%TO.N,/motor_driver_1_weapon/RST*%
X126135000Y-85500000D03*
%TO.P,J2,2,SWDIO*%
%TO.N,/motor_driver_1_weapon/SWDIO*%
X124865000Y-86770000D03*
%TO.P,J2,1,VCC*%
%TO.N,+3V3*%
X126135000Y-86770000D03*
%TD*%
D16*
%TO.P,TP1,1,1*%
%TO.N,Net-(U2-MODE)*%
X125450000Y-80650000D03*
%TD*%
D10*
%TO.P,C38,1*%
%TO.N,VBUS*%
X112959597Y-74500000D03*
%TO.P,C38,2*%
%TO.N,GND*%
X114509597Y-74500000D03*
%TD*%
D17*
%TO.P,C39,1*%
%TO.N,VBUS*%
X111500000Y-74500000D03*
%TO.P,C39,2*%
%TO.N,GND*%
X109950000Y-74500000D03*
%TD*%
D27*
%TO.P,J1,1,Pin_1*%
%TO.N,VBUS*%
X126200000Y-66300000D03*
%TO.P,J1,2,Pin_2*%
%TO.N,GND*%
X126200000Y-71300000D03*
%TD*%
D10*
%TO.P,C34,1*%
%TO.N,VBUS*%
X112950000Y-68500000D03*
%TO.P,C34,2*%
%TO.N,GND*%
X114500000Y-68500000D03*
%TD*%
D12*
%TO.P,R13,1*%
%TO.N,+3V3*%
X124990000Y-79000000D03*
%TO.P,R13,2*%
%TO.N,/motor_driver_1_weapon/RST*%
X126010000Y-79000000D03*
%TD*%
D28*
%TO.P,D1,1,A1*%
%TO.N,VBUS*%
X122000000Y-66000000D03*
%TO.P,D1,2,A2*%
%TO.N,GND*%
X118000000Y-66000000D03*
%TD*%
D17*
%TO.P,C42,1*%
%TO.N,VBUS*%
X111500000Y-70000000D03*
%TO.P,C42,2*%
%TO.N,GND*%
X109950000Y-70000000D03*
%TD*%
D10*
%TO.P,C37,1*%
%TO.N,VBUS*%
X112959597Y-73010000D03*
%TO.P,C37,2*%
%TO.N,GND*%
X114509597Y-73010000D03*
%TD*%
%TO.P,C35,1*%
%TO.N,VBUS*%
X112959597Y-70000000D03*
%TO.P,C35,2*%
%TO.N,GND*%
X114509597Y-70000000D03*
%TD*%
D18*
%TO.P,C20,2*%
%TO.N,GND*%
X107232500Y-79250000D03*
%TO.P,C20,1*%
%TO.N,+3V3*%
X108367500Y-79250000D03*
%TD*%
D17*
%TO.P,C3,2*%
%TO.N,Net-(U2-SHA)*%
X113725000Y-88000000D03*
%TO.P,C3,1*%
%TO.N,Net-(U2-BSTA)*%
X115275000Y-88000000D03*
%TD*%
D12*
%TO.P,R18,1*%
%TO.N,/motor_driver_1_weapon/OUT_A*%
X109490000Y-67000000D03*
%TO.P,R18,2*%
%TO.N,/motor_driver_1_weapon/BEMF_A*%
X110510000Y-67000000D03*
%TD*%
D13*
%TO.P,U3,1,VOUT*%
%TO.N,+10V*%
X119050000Y-83000000D03*
D14*
%TO.P,U3,2,VSS*%
%TO.N,GND*%
X119137500Y-84500000D03*
D13*
%TO.P,U3,3,VIN*%
%TO.N,VBUS*%
X119050000Y-86000000D03*
%TD*%
D10*
%TO.P,C10,2*%
%TO.N,GND*%
X120775000Y-88000000D03*
%TO.P,C10,1*%
%TO.N,+10V*%
X119225000Y-88000000D03*
%TD*%
D23*
%TO.P,R30,1*%
%TO.N,Net-(U11-G)*%
X102875000Y-85500000D03*
%TO.P,R30,2*%
%TO.N,/motor_driver_1_weapon/GHC*%
X104525000Y-85500000D03*
%TD*%
D12*
%TO.P,R22,1*%
%TO.N,/motor_driver_1_weapon/BEMF_B*%
X104490000Y-72500000D03*
%TO.P,R22,2*%
%TO.N,GND*%
X105510000Y-72500000D03*
%TD*%
D17*
%TO.P,C1,2*%
%TO.N,GND*%
X116725000Y-71000000D03*
%TO.P,C1,1*%
%TO.N,VBUS*%
X118275000Y-71000000D03*
%TD*%
%TO.P,C41,1*%
%TO.N,VBUS*%
X111500000Y-71500000D03*
%TO.P,C41,2*%
%TO.N,GND*%
X109950000Y-71500000D03*
%TD*%
D12*
%TO.P,R21,1*%
%TO.N,/motor_driver_1_weapon/OUT_B*%
X102490000Y-72500000D03*
%TO.P,R21,2*%
%TO.N,/motor_driver_1_weapon/BEMF_B*%
X103510000Y-72500000D03*
%TD*%
D19*
%TO.P,R26,1*%
%TO.N,/motor_driver_1_weapon/GHA*%
X104525000Y-67000000D03*
%TO.P,R26,2*%
%TO.N,Net-(U7-G)*%
X102875000Y-67000000D03*
%TD*%
D18*
%TO.P,C21,2*%
%TO.N,+10V*%
X115932500Y-85500000D03*
%TO.P,C21,1*%
%TO.N,GND*%
X117067500Y-85500000D03*
%TD*%
D12*
%TO.P,R14,2*%
%TO.N,/motor_driver_1_weapon/PWM*%
X119510000Y-79500000D03*
%TO.P,R14,1*%
%TO.N,Net-(U4-PB4)*%
X118490000Y-79500000D03*
%TD*%
D19*
%TO.P,R27,1*%
%TO.N,/motor_driver_1_weapon/GLA*%
X104525000Y-69000000D03*
%TO.P,R27,2*%
%TO.N,Net-(U8-G)*%
X102875000Y-69000000D03*
%TD*%
D15*
%TO.P,C7,2*%
%TO.N,GND*%
X101700000Y-77580000D03*
%TO.P,C7,1*%
%TO.N,VBUS*%
X101700000Y-76620000D03*
%TD*%
D21*
%TO.P,R17,1*%
%TO.N,/motor_driver_1_weapon/BEMF_COM*%
X112510000Y-66000000D03*
%TO.P,R17,2*%
%TO.N,/motor_driver_1_weapon/OUT_A*%
X111490000Y-66000000D03*
%TD*%
%TO.P,R20,1*%
%TO.N,/motor_driver_1_weapon/BEMF_COM*%
X103510000Y-71250000D03*
%TO.P,R20,2*%
%TO.N,/motor_driver_1_weapon/OUT_B*%
X102490000Y-71250000D03*
%TD*%
D29*
%TO.P,U4,29,EP_(Package)*%
%TO.N,GND*%
X111650000Y-78350000D03*
D30*
%TO.P,U4,28,PB7*%
%TO.N,unconnected-(U4-PB7-Pad28)*%
X110450000Y-76412500D03*
%TO.P,U4,27,PB6*%
%TO.N,unconnected-(U4-PB6-Pad27)*%
X110850000Y-76412500D03*
%TO.P,U4,26,PB5*%
%TO.N,unconnected-(U4-PB5-Pad26)*%
X111250000Y-76412500D03*
%TO.P,U4,25,PB4*%
%TO.N,Net-(U4-PB4)*%
X111650000Y-76412500D03*
%TO.P,U4,24,PB3*%
%TO.N,unconnected-(U4-PB3-Pad24)*%
X112050000Y-76412500D03*
%TO.P,U4,23,PA15*%
%TO.N,unconnected-(U4-PA15-Pad23)*%
X112450000Y-76412500D03*
%TO.P,U4,22,PA14*%
%TO.N,/motor_driver_1_weapon/SWDCLK*%
X112850000Y-76412500D03*
D31*
%TO.P,U4,21,PA13*%
%TO.N,/motor_driver_1_weapon/SWDIO*%
X113587500Y-77150000D03*
%TO.P,U4,20,PA10(PA12)*%
%TO.N,/motor_driver_1_weapon/AHIGH*%
X113587500Y-77550000D03*
%TO.P,U4,19,PA9(PA11)*%
%TO.N,/motor_driver_1_weapon/BHIGH*%
X113587500Y-77950000D03*
%TO.P,U4,18,PA8*%
%TO.N,/motor_driver_1_weapon/CHIGH*%
X113587500Y-78350000D03*
%TO.P,U4,17,VDD*%
%TO.N,+3V3*%
X113587500Y-78750000D03*
%TO.P,U4,16,VSS*%
%TO.N,GND*%
X113587500Y-79150000D03*
%TO.P,U4,15,PB1*%
%TO.N,/motor_driver_1_weapon/ALOW*%
X113587500Y-79550000D03*
D30*
%TO.P,U4,14,PB0*%
%TO.N,/motor_driver_1_weapon/BLOW*%
X112850000Y-80287500D03*
%TO.P,U4,13,PA7*%
%TO.N,/motor_driver_1_weapon/CLOW*%
X112450000Y-80287500D03*
%TO.P,U4,12,PA6*%
%TO.N,unconnected-(U4-PA6-Pad12)*%
X112050000Y-80287500D03*
%TO.P,U4,11,PA5*%
%TO.N,/motor_driver_1_weapon/BEMF_C*%
X111650000Y-80287500D03*
%TO.P,U4,10,PA4*%
%TO.N,/motor_driver_1_weapon/BEMF_B*%
X111250000Y-80287500D03*
%TO.P,U4,9,PA3*%
%TO.N,unconnected-(U4-PA3-Pad9)*%
X110850000Y-80287500D03*
%TO.P,U4,8,PA2*%
%TO.N,unconnected-(U4-PA2-Pad8)*%
X110450000Y-80287500D03*
D31*
%TO.P,U4,7,PA1*%
%TO.N,/motor_driver_1_weapon/BEMF_COM*%
X109712500Y-79550000D03*
%TO.P,U4,6,PA0*%
%TO.N,/motor_driver_1_weapon/BEMF_A*%
X109712500Y-79150000D03*
%TO.P,U4,5,VDDA*%
%TO.N,+3V3*%
X109712500Y-78750000D03*
%TO.P,U4,4,NRST*%
%TO.N,/motor_driver_1_weapon/RST*%
X109712500Y-78350000D03*
%TO.P,U4,3,OSCOUT/PF1*%
%TO.N,unconnected-(U4-OSCOUT{slash}PF1-Pad3)*%
X109712500Y-77950000D03*
%TO.P,U4,2,OSCIN/PF0*%
%TO.N,unconnected-(U4-OSCIN{slash}PF0-Pad2)*%
X109712500Y-77550000D03*
%TO.P,U4,1,BOOT0*%
%TO.N,Net-(U4-BOOT0)*%
X109712500Y-77150000D03*
%TD*%
D17*
%TO.P,C43,1*%
%TO.N,VBUS*%
X111500000Y-68500000D03*
%TO.P,C43,2*%
%TO.N,GND*%
X109950000Y-68500000D03*
%TD*%
%TO.P,C5,2*%
%TO.N,Net-(U2-SHC)*%
X107725000Y-88000000D03*
%TO.P,C5,1*%
%TO.N,Net-(U2-BSTC)*%
X109275000Y-88000000D03*
%TD*%
D12*
%TO.P,R19,1*%
%TO.N,/motor_driver_1_weapon/BEMF_A*%
X111490000Y-67000000D03*
%TO.P,R19,2*%
%TO.N,GND*%
X112510000Y-67000000D03*
%TD*%
D10*
%TO.P,C11,2*%
%TO.N,GND*%
X120775000Y-81000000D03*
%TO.P,C11,1*%
%TO.N,VBUS*%
X119225000Y-81000000D03*
%TD*%
D32*
%TO.P,U12,5,D*%
%TO.N,/motor_driver_1_weapon/OUT_C*%
X98442500Y-88010000D03*
D33*
%TO.P,U12,4,G*%
%TO.N,Net-(U12-G)*%
X100435000Y-87020000D03*
%TO.P,U12,1\u002C2\u002C3,S*%
%TO.N,GND*%
X100435000Y-87680000D03*
X100435000Y-88340000D03*
X100435000Y-89000000D03*
%TD*%
D34*
%TO.P,U11,5,D*%
%TO.N,VBUS*%
X99557500Y-84330000D03*
D33*
%TO.P,U11,4,G*%
%TO.N,Net-(U11-G)*%
X97565000Y-85320000D03*
%TO.P,U11,1\u002C2\u002C3,S*%
%TO.N,/motor_driver_1_weapon/OUT_C*%
X97565000Y-84660000D03*
X97565000Y-84000000D03*
X97565000Y-83340000D03*
%TD*%
D32*
%TO.P,U10,5,D*%
%TO.N,/motor_driver_1_weapon/OUT_B*%
X98442500Y-78660000D03*
D33*
%TO.P,U10,4,G*%
%TO.N,Net-(U10-G)*%
X100435000Y-77670000D03*
%TO.P,U10,1\u002C2\u002C3,S*%
%TO.N,GND*%
X100435000Y-78330000D03*
X100435000Y-78990000D03*
X100435000Y-79650000D03*
%TD*%
D34*
%TO.P,U9,5,D*%
%TO.N,VBUS*%
X99557500Y-75000000D03*
D33*
%TO.P,U9,4,G*%
%TO.N,Net-(U9-G)*%
X97565000Y-75990000D03*
%TO.P,U9,1\u002C2\u002C3,S*%
%TO.N,/motor_driver_1_weapon/OUT_B*%
X97565000Y-75330000D03*
X97565000Y-74670000D03*
X97565000Y-74010000D03*
%TD*%
D34*
%TO.P,U7,5,D*%
%TO.N,VBUS*%
X99557500Y-66000000D03*
D33*
%TO.P,U7,4,G*%
%TO.N,Net-(U7-G)*%
X97565000Y-66990000D03*
%TO.P,U7,1\u002C2\u002C3,S*%
%TO.N,/motor_driver_1_weapon/OUT_A*%
X97565000Y-66330000D03*
X97565000Y-65670000D03*
X97565000Y-65010000D03*
%TD*%
%TO.P,U8,1\u002C2\u002C3,S*%
%TO.N,GND*%
X100435000Y-70660000D03*
X100435000Y-70000000D03*
X100435000Y-69340000D03*
%TO.P,U8,4,G*%
%TO.N,Net-(U8-G)*%
X100435000Y-68680000D03*
D32*
%TO.P,U8,5,D*%
%TO.N,/motor_driver_1_weapon/OUT_A*%
X98442500Y-69670000D03*
%TD*%
D35*
%TO.P,U2,1,INLA*%
%TO.N,/motor_driver_1_weapon/ALOW*%
X112750000Y-82773755D03*
%TO.P,U2,2,INLB*%
%TO.N,/motor_driver_1_weapon/BLOW*%
X112250001Y-82773755D03*
%TO.P,U2,3,INLC*%
%TO.N,/motor_driver_1_weapon/CLOW*%
X111750000Y-82773755D03*
%TO.P,U2,4,GVDD*%
%TO.N,+10V*%
X111250000Y-82773755D03*
%TO.P,U2,5,MODE*%
%TO.N,Net-(U2-MODE)*%
X110749999Y-82773755D03*
%TO.P,U2,6,GND*%
%TO.N,GND*%
X110250000Y-82773755D03*
D36*
%TO.P,U2,7,NC*%
%TO.N,unconnected-(U2-NC-Pad7)*%
X109548754Y-83475001D03*
%TO.P,U2,8,NC*%
%TO.N,unconnected-(U2-NC-Pad8)*%
X109548754Y-83975000D03*
%TO.P,U2,9,GLC*%
%TO.N,/motor_driver_1_weapon/GLC*%
X109548754Y-84475001D03*
%TO.P,U2,10,GLB*%
%TO.N,/motor_driver_1_weapon/GLB*%
X109548754Y-84975001D03*
%TO.P,U2,11,GLA*%
%TO.N,/motor_driver_1_weapon/GLA*%
X109548754Y-85475002D03*
%TO.P,U2,12,SHC*%
%TO.N,Net-(U2-SHC)*%
X109548754Y-85975001D03*
D35*
%TO.P,U2,13,GHC*%
%TO.N,/motor_driver_1_weapon/GHC*%
X110250000Y-86676247D03*
%TO.P,U2,14,BSTC*%
%TO.N,Net-(U2-BSTC)*%
X110749999Y-86676247D03*
%TO.P,U2,15,SHB*%
%TO.N,Net-(U2-SHB)*%
X111250000Y-86676247D03*
%TO.P,U2,16,GHB*%
%TO.N,/motor_driver_1_weapon/GHB*%
X111750000Y-86676247D03*
%TO.P,U2,17,BSTB*%
%TO.N,Net-(U2-BSTB)*%
X112250001Y-86676247D03*
%TO.P,U2,18,SHA*%
%TO.N,Net-(U2-SHA)*%
X112750000Y-86676247D03*
D36*
%TO.P,U2,19,GHA*%
%TO.N,/motor_driver_1_weapon/GHA*%
X113451246Y-85975001D03*
%TO.P,U2,20,BSTA*%
%TO.N,Net-(U2-BSTA)*%
X113451246Y-85475002D03*
%TO.P,U2,21,DT*%
%TO.N,Net-(U2-DT)*%
X113451246Y-84975001D03*
%TO.P,U2,22,INHA*%
%TO.N,/motor_driver_1_weapon/AHIGH*%
X113451246Y-84475001D03*
%TO.P,U2,23,INHB*%
%TO.N,/motor_driver_1_weapon/BHIGH*%
X113451246Y-83975000D03*
%TO.P,U2,24,INHC*%
%TO.N,/motor_driver_1_weapon/CHIGH*%
X113451246Y-83475001D03*
D37*
%TO.P,U2,25,PowerPAD*%
%TO.N,GND*%
X111500000Y-84725001D03*
%TD*%
D38*
%TO.N,VBUS*%
X102700000Y-83750000D03*
X121000000Y-66700000D03*
X99650000Y-75200000D03*
X98750000Y-85500000D03*
X98750000Y-67200000D03*
D39*
X124550000Y-67700000D03*
X124550000Y-67000000D03*
D38*
X111500000Y-74850000D03*
X122000000Y-74500000D03*
X112950000Y-72750000D03*
X111500000Y-71250000D03*
X98750000Y-75200000D03*
X111500000Y-69750000D03*
X102750000Y-65250000D03*
X112250000Y-68250000D03*
X112950000Y-69750000D03*
X98750000Y-83700000D03*
X112950000Y-74250000D03*
X111500000Y-74250000D03*
X99650000Y-66300000D03*
D39*
X124550000Y-65550000D03*
D38*
X119700000Y-81443459D03*
X123100000Y-66700000D03*
X98750000Y-84600000D03*
X118550000Y-74500000D03*
X100100000Y-73850000D03*
X111500000Y-72750000D03*
X99200000Y-74750000D03*
X123050000Y-65300000D03*
X100550000Y-66300000D03*
X99200000Y-64950000D03*
X112250000Y-70350000D03*
X100550000Y-75200000D03*
X122000000Y-66700000D03*
X112250000Y-71250000D03*
X98750000Y-66300000D03*
D39*
X124550000Y-64850000D03*
D38*
X121000000Y-66000000D03*
X100100000Y-65850000D03*
X112250000Y-74250000D03*
X118300000Y-71000000D03*
X111500000Y-73350000D03*
X123100000Y-66000000D03*
X122000000Y-65300000D03*
X112250000Y-72750000D03*
X120850000Y-74500000D03*
X112250000Y-71850000D03*
X100100000Y-84150000D03*
X99200000Y-73850000D03*
X112950000Y-73350000D03*
X99200000Y-83250000D03*
X118400000Y-86000000D03*
X100550000Y-84600000D03*
X99650000Y-84600000D03*
X98750000Y-74300000D03*
X119600000Y-74500000D03*
X99650000Y-83700000D03*
X99650000Y-74300000D03*
X100100000Y-74750000D03*
X99200000Y-85050000D03*
X100550000Y-76100000D03*
X99200000Y-84150000D03*
X119500000Y-86000000D03*
X118950000Y-86000000D03*
X102700000Y-74250000D03*
X100100000Y-64950000D03*
X112950000Y-68850000D03*
X99200000Y-75650000D03*
D39*
X124550000Y-66250000D03*
D38*
X111500000Y-71850000D03*
X118300000Y-69000000D03*
X112950000Y-74850000D03*
X100100000Y-83250000D03*
X119693199Y-80793199D03*
X100100000Y-85050000D03*
X100550000Y-83700000D03*
X112950000Y-70350000D03*
X112250000Y-69750000D03*
X112950000Y-68250000D03*
X100100000Y-75650000D03*
X100550000Y-65400000D03*
X112950000Y-71250000D03*
X119043199Y-81443199D03*
X112950000Y-71850000D03*
X112250000Y-73350000D03*
X99650000Y-76100000D03*
X99200000Y-65850000D03*
X111500000Y-68850000D03*
X99650000Y-85500000D03*
X100550000Y-67200000D03*
X100100000Y-66750000D03*
X121000000Y-65300000D03*
X122000000Y-66000000D03*
X100550000Y-74300000D03*
X111500000Y-70350000D03*
X111500000Y-68250000D03*
X112250000Y-74850000D03*
X99650000Y-67200000D03*
X112250000Y-68850000D03*
X99650000Y-65400000D03*
X98750000Y-65400000D03*
X98750000Y-76100000D03*
X100550000Y-85500000D03*
X99200000Y-66750000D03*
%TO.N,GND*%
X121045222Y-77445356D03*
D39*
X125050000Y-69850000D03*
D38*
X114250000Y-71800000D03*
X114800000Y-73300000D03*
X110700000Y-78400000D03*
X114800000Y-69650000D03*
X101800000Y-79600000D03*
X110700000Y-84750000D03*
X112350000Y-85750000D03*
X110250000Y-74150000D03*
X111250000Y-77400000D03*
X101250000Y-69350000D03*
X101250000Y-87650000D03*
X117050000Y-83350000D03*
D39*
X125050000Y-72100000D03*
D38*
X101250000Y-89550000D03*
X110250000Y-71150000D03*
X104650000Y-64800000D03*
D39*
X126950000Y-68900000D03*
D38*
X119100000Y-66000000D03*
X101800000Y-78300000D03*
X101250000Y-71250000D03*
X117300000Y-80100000D03*
X118000000Y-65300000D03*
X109650000Y-71800000D03*
X121200000Y-80550000D03*
X116650000Y-80100000D03*
X103850000Y-64800000D03*
X108500000Y-76150000D03*
X104250000Y-73800000D03*
X114800000Y-71150000D03*
X101800000Y-87650000D03*
X101800000Y-70000000D03*
X101250000Y-78950000D03*
X109650000Y-74150000D03*
X112350000Y-79400000D03*
X109650000Y-69650000D03*
X116750000Y-70650000D03*
X101800000Y-88950000D03*
X120350000Y-87550000D03*
X114250000Y-71150000D03*
X114800000Y-74800000D03*
X120350000Y-80550000D03*
X121200000Y-81450000D03*
X109650000Y-74800000D03*
X118000000Y-66000000D03*
X100700000Y-80200000D03*
X100150000Y-71250000D03*
X121200000Y-88450000D03*
X101250000Y-80200000D03*
X101800000Y-78950000D03*
X114800000Y-70300000D03*
X110250000Y-71800000D03*
X109650000Y-71150000D03*
X117050000Y-82700000D03*
X119050000Y-65300000D03*
X119000000Y-73000000D03*
X110250000Y-73300000D03*
X114800000Y-72650000D03*
X118000000Y-73000000D03*
X111800000Y-84750000D03*
X112350000Y-77400000D03*
X117050000Y-85200000D03*
X120350000Y-77550000D03*
X101800000Y-69350000D03*
X111800000Y-78400000D03*
X125800000Y-81900000D03*
X110250000Y-70300000D03*
X104250000Y-83300000D03*
X101250000Y-78300000D03*
D39*
X125081801Y-72818199D03*
D38*
X101250000Y-88300000D03*
X110250000Y-74800000D03*
X100150000Y-80200000D03*
X105550000Y-82000000D03*
D39*
X125050000Y-70600000D03*
D38*
X117000000Y-66000000D03*
X109650000Y-73300000D03*
X101250000Y-70650000D03*
X100700000Y-89550000D03*
X101250000Y-88950000D03*
X118000000Y-88000000D03*
X100700000Y-71250000D03*
X110250000Y-72650000D03*
X104250000Y-84250000D03*
X100150000Y-89550000D03*
X114250000Y-74150000D03*
X114250000Y-72650000D03*
X114250000Y-69650000D03*
X114250000Y-70300000D03*
X116750000Y-71350000D03*
X120350000Y-78450000D03*
X101250000Y-70000000D03*
X120350000Y-88450000D03*
X104250000Y-74700000D03*
D39*
X125050000Y-71350000D03*
D38*
X121099693Y-78513909D03*
X120350000Y-81450000D03*
X104650000Y-65700000D03*
X101800000Y-70650000D03*
X114800000Y-71800000D03*
X111250000Y-83750000D03*
X103850000Y-65700000D03*
X112350000Y-83750000D03*
X105500000Y-72500000D03*
D39*
X125300000Y-68900000D03*
D38*
X101250000Y-79600000D03*
X114250000Y-74800000D03*
X107300000Y-79250000D03*
X117000000Y-65300000D03*
X110250000Y-69650000D03*
X121200000Y-87550000D03*
X111250000Y-79400000D03*
X117050000Y-85850000D03*
X114800000Y-74150000D03*
X114250000Y-73300000D03*
X111250000Y-85750000D03*
X109650000Y-70300000D03*
X101800000Y-88300000D03*
X109650000Y-72650000D03*
%TO.N,+3V3*%
X118975000Y-78000000D03*
X108350000Y-79250000D03*
X117000000Y-78950000D03*
X118550000Y-76000000D03*
%TO.N,+10V*%
X116500000Y-88000000D03*
X118450000Y-83000000D03*
X115950000Y-85500000D03*
X115950000Y-83000000D03*
X119300000Y-83000000D03*
X118950000Y-88300000D03*
X119500000Y-87725000D03*
%TO.N,/motor_driver_1_weapon/SWDIO*%
X124400000Y-86150000D03*
X123650000Y-76050000D03*
D39*
%TO.N,/motor_driver_1_weapon/RST*%
X122200000Y-78050000D03*
X108700000Y-78100000D03*
D38*
%TO.N,/motor_driver_1_weapon/SWDCLK*%
X124450000Y-75950000D03*
X124350000Y-84950000D03*
%TO.N,Net-(U4-PB4)*%
X117150000Y-75700000D03*
X114728679Y-75800000D03*
%TO.N,/motor_driver_1_weapon/BEMF_COM*%
X108300000Y-64600000D03*
X104800000Y-73450000D03*
X109600000Y-64600000D03*
X107388994Y-80670365D03*
X103650000Y-80198272D03*
X103500000Y-71250000D03*
X106321599Y-71135202D03*
%TO.N,/motor_driver_1_weapon/GHA*%
X113850000Y-86650000D03*
X106100000Y-79050000D03*
%TO.N,/motor_driver_1_weapon/GLA*%
X106600236Y-80199540D03*
X108255699Y-85444301D03*
%TO.N,/motor_driver_1_weapon/GHB*%
X102550000Y-79450000D03*
X111825000Y-87374739D03*
%TO.N,/motor_driver_1_weapon/GLB*%
X107815350Y-85003951D03*
X103400000Y-79400000D03*
%TO.N,/motor_driver_1_weapon/GHC*%
X108200000Y-86950000D03*
X109164784Y-86996155D03*
%TO.N,Net-(U2-DT)*%
X115815393Y-82340000D03*
X115784313Y-72884313D03*
%TO.N,/motor_driver_1_weapon/BHIGH*%
X115600000Y-78200000D03*
X114339527Y-82496373D03*
%TO.N,/motor_driver_1_weapon/BLOW*%
X112981801Y-81031801D03*
X112306839Y-82131585D03*
%TO.N,Net-(U2-MODE)*%
X106750000Y-88900000D03*
X127700000Y-80700000D03*
X106150000Y-84850000D03*
X125450000Y-80650000D03*
%TO.N,Net-(U9-G)*%
X102900000Y-76000000D03*
X97565000Y-75990000D03*
%TO.N,Net-(U10-G)*%
X100435000Y-77670000D03*
X102900000Y-77600000D03*
%TO.N,/motor_driver_1_weapon/ALOW*%
X113750000Y-80400000D03*
X113150000Y-82400000D03*
%TO.N,/motor_driver_1_weapon/CHIGH*%
X114940852Y-78408622D03*
X113791545Y-82449273D03*
%TO.N,/motor_driver_1_weapon/CLOW*%
X111750000Y-82050000D03*
X112449999Y-80869869D03*
%TO.N,/motor_driver_1_weapon/AHIGH*%
X114888543Y-82529299D03*
X116200000Y-78200000D03*
%TO.N,Net-(U8-G)*%
X102900000Y-69000000D03*
X100435000Y-68680000D03*
%TO.N,Net-(U11-G)*%
X97565000Y-85320000D03*
X102900000Y-85500000D03*
%TO.N,Net-(U7-G)*%
X97565000Y-66990000D03*
X102900000Y-67000000D03*
%TO.N,Net-(U12-G)*%
X100435000Y-87020000D03*
X102900000Y-87500000D03*
%TD*%
D40*
%TO.N,VBUS*%
X125900000Y-66000000D02*
X126200000Y-66300000D01*
X122000000Y-66000000D02*
X125900000Y-66000000D01*
D41*
%TO.N,GND*%
X120775000Y-88000000D02*
X120050000Y-87275000D01*
X110250000Y-82850000D02*
X110303572Y-82903572D01*
X117851632Y-86284132D02*
X117067500Y-85500000D01*
X110303572Y-83528573D02*
X111500000Y-84725001D01*
X118000000Y-88000000D02*
X118725000Y-87275000D01*
X125800000Y-83895000D02*
X126135000Y-84230000D01*
X117067500Y-85500000D02*
X117067500Y-83000000D01*
X110303572Y-82903572D02*
X110303572Y-83528573D01*
X125800000Y-81900000D02*
X125800000Y-83895000D01*
X115468359Y-80067500D02*
X115500000Y-80067500D01*
X113587500Y-79150000D02*
X114550859Y-79150000D01*
X110250000Y-82773755D02*
X110250000Y-82850000D01*
X115500000Y-80067500D02*
X117000000Y-80067500D01*
X113050000Y-67000000D02*
X112510000Y-67000000D01*
X116725000Y-71000000D02*
X116725000Y-69000000D01*
X118725000Y-87275000D02*
X120050000Y-87275000D01*
X114550859Y-79150000D02*
X115468359Y-80067500D01*
X117851632Y-88006745D02*
X117851632Y-86284132D01*
X114250000Y-68200000D02*
X113050000Y-67000000D01*
%TO.N,+3V3*%
X114645833Y-78750000D02*
X114828333Y-78932500D01*
X123888700Y-86704030D02*
X123888700Y-80101300D01*
X108350000Y-79250000D02*
X108850000Y-78750000D01*
X113587500Y-78750000D02*
X114645833Y-78750000D01*
X108850000Y-78750000D02*
X109712500Y-78750000D01*
X126135000Y-86770000D02*
X125491300Y-87413700D01*
X119263603Y-78000000D02*
X119225000Y-78000000D01*
X125491300Y-87413700D02*
X124598370Y-87413700D01*
X125000000Y-79000000D02*
X120263603Y-79000000D01*
X114828333Y-78932500D02*
X115500000Y-78932500D01*
X124598370Y-87413700D02*
X123888700Y-86704030D01*
X115500000Y-78950000D02*
X117000000Y-78950000D01*
X120263603Y-79000000D02*
X119263603Y-78000000D01*
X123888700Y-80101300D02*
X124990000Y-79000000D01*
%TO.N,+10V*%
X117276632Y-88566745D02*
X118658255Y-88566745D01*
X111250000Y-82773755D02*
X111250000Y-82200000D01*
X111563603Y-81600000D02*
X115338996Y-81600000D01*
X115932500Y-82859290D02*
X115932500Y-83000000D01*
X111250000Y-82250000D02*
X111300000Y-82200000D01*
X116265393Y-82153603D02*
X116265393Y-82526397D01*
X115950000Y-83000000D02*
X115950000Y-85500000D01*
X118683255Y-88566745D02*
X118950000Y-88300000D01*
X118658255Y-88566745D02*
X119225000Y-88000000D01*
X116265393Y-82526397D02*
X115932500Y-82859290D01*
X111300000Y-81863603D02*
X111563603Y-81600000D01*
X115338996Y-81600000D02*
X115628996Y-81890000D01*
X116001790Y-81890000D02*
X116265393Y-82153603D01*
X111300000Y-82200000D02*
X111300000Y-81863603D01*
X116716632Y-88006745D02*
X117276632Y-88566745D01*
X115932500Y-87482500D02*
X116450000Y-88000000D01*
X115932500Y-85500000D02*
X115932500Y-87482500D01*
X115628996Y-81890000D02*
X116001790Y-81890000D01*
%TO.N,Net-(U2-BSTA)*%
X115275000Y-86593938D02*
X115275000Y-88000000D01*
X114156064Y-85475002D02*
X115275000Y-86593938D01*
X113451246Y-85475002D02*
X114156064Y-85475002D01*
%TO.N,Net-(U2-SHA)*%
X113932500Y-88000000D02*
X113565000Y-88000000D01*
X112750000Y-87025000D02*
X113725000Y-88000000D01*
X112750000Y-86676247D02*
X112750000Y-87025000D01*
%TO.N,Net-(U2-SHB)*%
X111250000Y-86676247D02*
X111250000Y-87975000D01*
X111250000Y-87975000D02*
X110725000Y-88500000D01*
%TO.N,Net-(U2-BSTB)*%
X112250001Y-86676247D02*
X112275000Y-86701246D01*
X112250001Y-86676247D02*
X112287235Y-86713481D01*
X112275000Y-86701246D02*
X112275000Y-88500000D01*
%TO.N,Net-(U2-BSTC)*%
X110631064Y-87500000D02*
X109775000Y-87500000D01*
X110749999Y-87381065D02*
X110631064Y-87500000D01*
X110749999Y-86676247D02*
X110749999Y-87381065D01*
X109775000Y-87500000D02*
X109275000Y-88000000D01*
%TO.N,Net-(U2-SHC)*%
X109165172Y-85975001D02*
X109548754Y-85975001D01*
X108715177Y-86808578D02*
X108715177Y-87284823D01*
X109548754Y-85975001D02*
X108715177Y-86808578D01*
X108000000Y-88000000D02*
X107725000Y-88000000D01*
X108715177Y-87284823D02*
X108000000Y-88000000D01*
%TO.N,/motor_driver_1_weapon/SWDIO*%
X117550000Y-76550000D02*
X117700000Y-76700000D01*
X121309206Y-76050000D02*
X123650000Y-76050000D01*
X115063603Y-77150000D02*
X116963603Y-75250000D01*
X124865000Y-86770000D02*
X124865000Y-86615000D01*
X117600000Y-75513603D02*
X117600000Y-75886397D01*
X124865000Y-86615000D02*
X124400000Y-86150000D01*
X117336397Y-75250000D02*
X117600000Y-75513603D01*
X113587500Y-77150000D02*
X115063603Y-77150000D01*
X117550000Y-75936397D02*
X117550000Y-76550000D01*
X117700000Y-76700000D02*
X120659206Y-76700000D01*
X120659206Y-76700000D02*
X121309206Y-76050000D01*
X117600000Y-75886397D02*
X117550000Y-75936397D01*
X116963603Y-75250000D02*
X117336397Y-75250000D01*
%TO.N,/motor_driver_1_weapon/RST*%
X108700000Y-78100000D02*
X108950000Y-78350000D01*
X125060000Y-78050000D02*
X122200000Y-78050000D01*
X127111300Y-84523700D02*
X127111300Y-80101300D01*
X126135000Y-85500000D02*
X127111300Y-84523700D01*
X108950000Y-78350000D02*
X109712500Y-78350000D01*
X127111300Y-80101300D02*
X126010000Y-79000000D01*
X126010000Y-79000000D02*
X125060000Y-78050000D01*
%TO.N,/motor_driver_1_weapon/SWDCLK*%
X121477126Y-72250000D02*
X117550000Y-72250000D01*
X117550000Y-72250000D02*
X115800000Y-74000000D01*
X115800000Y-74000000D02*
X115800000Y-75536397D01*
X124865000Y-85465000D02*
X124350000Y-84950000D01*
X124865000Y-85500000D02*
X124865000Y-85465000D01*
X124450000Y-75222874D02*
X121477126Y-72250000D01*
X114923897Y-76412500D02*
X112850000Y-76412500D01*
X115800000Y-75536397D02*
X114923897Y-76412500D01*
X124450000Y-75950000D02*
X124450000Y-75222874D01*
%TO.N,/motor_driver_1_weapon/OUT_A*%
X109490000Y-67000000D02*
X109641786Y-67000000D01*
X98450000Y-64125000D02*
X97565000Y-65010000D01*
X109490000Y-67000000D02*
X109490000Y-65153603D01*
X109490000Y-65153603D02*
X108461397Y-64125000D01*
X108461397Y-64125000D02*
X98450000Y-64125000D01*
X109641786Y-67000000D02*
X110641786Y-66000000D01*
X110641786Y-66000000D02*
X111490000Y-66000000D01*
%TO.N,/motor_driver_1_weapon/OUT_C*%
X98905000Y-82000000D02*
X97565000Y-83340000D01*
X102490000Y-80500000D02*
X102490000Y-82000000D01*
X102490000Y-82000000D02*
X98905000Y-82000000D01*
%TO.N,Net-(U4-BOOT0)*%
X108510000Y-75110000D02*
X109712500Y-76312500D01*
X109712500Y-76312500D02*
X109712500Y-77150000D01*
X108510000Y-74250000D02*
X108510000Y-75110000D01*
%TO.N,/motor_driver_1_weapon/OUT_B*%
X99075000Y-72500000D02*
X97565000Y-74010000D01*
X102490000Y-72500000D02*
X102490000Y-71250000D01*
X102490000Y-72500000D02*
X99075000Y-72500000D01*
%TO.N,Net-(U4-PB4)*%
X117150000Y-77840001D02*
X117150000Y-75700000D01*
X118490000Y-79180001D02*
X117150000Y-77840001D01*
X111774350Y-75725000D02*
X114653679Y-75725000D01*
X111650000Y-75849350D02*
X111774350Y-75725000D01*
X111650000Y-76412500D02*
X111650000Y-75849350D01*
X114653679Y-75725000D02*
X114728679Y-75800000D01*
X118490000Y-79500000D02*
X118490000Y-79180001D01*
%TO.N,/motor_driver_1_weapon/PWM*%
X120804181Y-77050000D02*
X120858825Y-76995356D01*
X119510000Y-79437986D02*
X118525000Y-78452986D01*
X126675000Y-75925000D02*
X126675000Y-74323960D01*
X126675000Y-74323960D02*
X126601040Y-74250000D01*
X125735784Y-74250000D02*
X123550000Y-72064216D01*
X118950000Y-77050000D02*
X120804181Y-77050000D01*
X120858825Y-76995356D02*
X125604644Y-76995356D01*
X123550000Y-72064216D02*
X123550000Y-70250000D01*
X118525000Y-77475000D02*
X118950000Y-77050000D01*
X126601040Y-74250000D02*
X126000000Y-74250000D01*
X126000000Y-74250000D02*
X125735784Y-74250000D01*
X118525000Y-78452986D02*
X118525000Y-77475000D01*
X119510000Y-79500000D02*
X119510000Y-79437986D01*
X125604644Y-76995356D02*
X126675000Y-75925000D01*
%TO.N,/motor_driver_1_weapon/BEMF_COM*%
X104945026Y-73450000D02*
X104800000Y-73450000D01*
X103650000Y-80198272D02*
X103650000Y-79873653D01*
X111110000Y-64600000D02*
X112510000Y-66000000D01*
X104975000Y-78548653D02*
X104975000Y-78398655D01*
X109600000Y-64600000D02*
X111110000Y-64600000D01*
X109712500Y-79550000D02*
X108592135Y-80670365D01*
X105400000Y-73904974D02*
X104945026Y-73450000D01*
X105400000Y-77973655D02*
X105400000Y-73904974D01*
X103650000Y-79873653D02*
X104975000Y-78548653D01*
X108300000Y-64600000D02*
X108300000Y-66729998D01*
X104975000Y-78398655D02*
X105400000Y-77973655D01*
X108300000Y-66729998D02*
X106321599Y-68708399D01*
X106321599Y-68708399D02*
X106321599Y-71135202D01*
X108592135Y-80670365D02*
X107388994Y-80670365D01*
%TO.N,/motor_driver_1_weapon/BEMF_A*%
X106800000Y-70497014D02*
X106800000Y-78737948D01*
X106615000Y-78922948D02*
X106615000Y-79577052D01*
X109025000Y-79725650D02*
X109025000Y-79374350D01*
X106800000Y-78737948D02*
X106615000Y-78922948D01*
X109735000Y-67775000D02*
X109522014Y-67775000D01*
X106847948Y-79810000D02*
X108940650Y-79810000D01*
X109249350Y-79150000D02*
X109712500Y-79150000D01*
X106615000Y-79577052D02*
X106847948Y-79810000D01*
X108940650Y-79810000D02*
X109025000Y-79725650D01*
X110510000Y-67000000D02*
X109735000Y-67775000D01*
X109522014Y-67775000D02*
X106800000Y-70497014D01*
X111490000Y-67000000D02*
X110510000Y-67000000D01*
X109025000Y-79374350D02*
X109249350Y-79150000D01*
%TO.N,/motor_driver_1_weapon/BEMF_B*%
X111250000Y-80750650D02*
X110880285Y-81120365D01*
X105325000Y-78543629D02*
X105750000Y-78118629D01*
X105750000Y-78118629D02*
X105750000Y-73760000D01*
X105300000Y-79686397D02*
X105300000Y-79100000D01*
X105300000Y-78718629D02*
X105325000Y-78693629D01*
X105300000Y-78718628D02*
X105325000Y-78693629D01*
X111250000Y-80287500D02*
X111250000Y-80750650D01*
X105325000Y-78693629D02*
X105325000Y-78543629D01*
X104490000Y-72500000D02*
X103510000Y-72500000D01*
X105300000Y-79100000D02*
X105300000Y-78718629D01*
X110880285Y-81120365D02*
X107202597Y-81120365D01*
X106693753Y-81080150D02*
X105300000Y-79686397D01*
X107162382Y-81080150D02*
X106693753Y-81080150D01*
X107202597Y-81120365D02*
X107162382Y-81080150D01*
X105750000Y-73760000D02*
X104490000Y-72500000D01*
X105300000Y-79100000D02*
X105300000Y-78718628D01*
%TO.N,/motor_driver_1_weapon/BEMF_C*%
X111025260Y-81470365D02*
X107057622Y-81470365D01*
X111650000Y-80287500D02*
X111650000Y-80845625D01*
X107017408Y-81430150D02*
X105059850Y-81430150D01*
X105059850Y-81430150D02*
X104490000Y-82000000D01*
X104490000Y-82000000D02*
X103510000Y-82000000D01*
X107057622Y-81470365D02*
X107017408Y-81430150D01*
X111650000Y-80845625D02*
X111025260Y-81470365D01*
%TO.N,/motor_driver_1_weapon/GHA*%
X105850000Y-71476811D02*
X106450000Y-72076811D01*
X105850000Y-68525000D02*
X105850000Y-71476811D01*
X106100000Y-78942973D02*
X106100000Y-79050000D01*
X104325000Y-67000000D02*
X105850000Y-68525000D01*
X113850000Y-86373755D02*
X113451246Y-85975001D01*
X106450000Y-72076811D02*
X106450000Y-78592973D01*
X106450000Y-78592973D02*
X106100000Y-78942973D01*
X113850000Y-86650000D02*
X113850000Y-86373755D01*
%TO.N,/motor_driver_1_weapon/GLA*%
X106100000Y-72221786D02*
X106100000Y-78263603D01*
X109548754Y-85475002D02*
X108286400Y-85475002D01*
X104325000Y-69000000D02*
X104325000Y-70446786D01*
X108286400Y-85475002D02*
X108255699Y-85444301D01*
X106100000Y-78263603D02*
X105675000Y-78688603D01*
X105675000Y-78838603D02*
X105650000Y-78863603D01*
X105675000Y-78688603D02*
X105675000Y-78838603D01*
X105650000Y-79249304D02*
X106600236Y-80199540D01*
X105650000Y-78863603D02*
X105650000Y-79249304D01*
X104325000Y-70446786D02*
X106100000Y-72221786D01*
%TO.N,/motor_driver_1_weapon/GHB*%
X103675000Y-76650000D02*
X104325000Y-76000000D01*
X103675000Y-78325000D02*
X103675000Y-76650000D01*
X102550000Y-79450000D02*
X103675000Y-78325000D01*
X111750000Y-87299739D02*
X111825000Y-87374739D01*
X111750000Y-86676247D02*
X111750000Y-87299739D01*
%TO.N,/motor_driver_1_weapon/GLB*%
X103400000Y-79400000D02*
X104325000Y-78475000D01*
X104325000Y-78475000D02*
X104325000Y-78000000D01*
X109548754Y-84975001D02*
X107844300Y-84975001D01*
X107844300Y-84975001D02*
X107815350Y-85003951D01*
%TO.N,/motor_driver_1_weapon/GHC*%
X106191938Y-86950000D02*
X108200000Y-86950000D01*
X104841938Y-88300000D02*
X106191938Y-86950000D01*
X103675000Y-86150000D02*
X103675000Y-87975000D01*
X104325000Y-85500000D02*
X103675000Y-86150000D01*
X103675000Y-87975000D02*
X104000000Y-88300000D01*
X104000000Y-88300000D02*
X104841938Y-88300000D01*
X110250000Y-86676247D02*
X109484692Y-86676247D01*
X109484692Y-86676247D02*
X109164784Y-86996155D01*
%TO.N,/motor_driver_1_weapon/GLC*%
X104325000Y-87500000D02*
X107349999Y-84475001D01*
X107349999Y-84475001D02*
X109548754Y-84475001D01*
%TO.N,Net-(U2-DT)*%
X113451246Y-84975001D02*
X114124999Y-84975001D01*
X115315000Y-82672948D02*
X115647948Y-82340000D01*
X115315000Y-83785000D02*
X115315000Y-82672948D01*
X115784313Y-72884313D02*
X115784313Y-67284313D01*
X114124999Y-84975001D02*
X115315000Y-83785000D01*
X115784313Y-67284313D02*
X113900000Y-65400000D01*
X115647948Y-82340000D02*
X115815393Y-82340000D01*
%TO.N,/motor_driver_1_weapon/BHIGH*%
X115268628Y-78100000D02*
X115118629Y-77950000D01*
X115500000Y-78100000D02*
X115268628Y-78100000D01*
X115118629Y-77950000D02*
X113587500Y-77950000D01*
X114339527Y-83674094D02*
X114339527Y-82496373D01*
X113451246Y-83975000D02*
X114038621Y-83975000D01*
X114038621Y-83975000D02*
X114339527Y-83674094D01*
X115600000Y-78200000D02*
X115500000Y-78100000D01*
%TO.N,/motor_driver_1_weapon/BLOW*%
X112981801Y-80419301D02*
X112981801Y-81031801D01*
X112250001Y-82188423D02*
X112306839Y-82131585D01*
X112250001Y-82773755D02*
X112250001Y-82188423D01*
X112850000Y-80287500D02*
X112981801Y-80419301D01*
%TO.N,Net-(U2-MODE)*%
X108981063Y-82018937D02*
X106150000Y-84850000D01*
X107075000Y-89225000D02*
X117725000Y-89225000D01*
X127750000Y-87250000D02*
X127750000Y-80750000D01*
X106750000Y-88900000D02*
X107075000Y-89225000D01*
X110699999Y-82018937D02*
X108981063Y-82018937D01*
X110749999Y-82068937D02*
X110699999Y-82018937D01*
X118000000Y-88950000D02*
X126050000Y-88950000D01*
X110749999Y-82773755D02*
X110749999Y-82068937D01*
X127750000Y-80750000D02*
X127700000Y-80700000D01*
X126050000Y-88950000D02*
X127750000Y-87250000D01*
X117725000Y-89225000D02*
X118000000Y-88950000D01*
%TO.N,Net-(U9-G)*%
X102875000Y-76000000D02*
X102900000Y-76000000D01*
%TO.N,Net-(U10-G)*%
X102875000Y-77600000D02*
X102900000Y-77600000D01*
%TO.N,/motor_driver_1_weapon/ALOW*%
X112750000Y-82773755D02*
X112776245Y-82773755D01*
X112776245Y-82773755D02*
X113150000Y-82400000D01*
X113750000Y-79712500D02*
X113587500Y-79550000D01*
X113750000Y-80400000D02*
X113750000Y-79712500D01*
%TO.N,/motor_driver_1_weapon/CHIGH*%
X113451246Y-82789572D02*
X113791545Y-82449273D01*
X114882230Y-78350000D02*
X114940852Y-78408622D01*
X113451246Y-83475001D02*
X113451246Y-82789572D01*
X113587500Y-78350000D02*
X114882230Y-78350000D01*
%TO.N,/motor_driver_1_weapon/CLOW*%
X111750000Y-82773755D02*
X111750000Y-82050000D01*
%TO.N,/motor_driver_1_weapon/AHIGH*%
X116200000Y-78200000D02*
X116200000Y-78155026D01*
X114800000Y-83708595D02*
X114800000Y-83663603D01*
X113637500Y-77600000D02*
X113587500Y-77550000D01*
X114033594Y-84475001D02*
X114800000Y-83708595D01*
X113451246Y-84475001D02*
X114033594Y-84475001D01*
X114888543Y-83575060D02*
X114888543Y-82529299D01*
X115644974Y-77600000D02*
X113637500Y-77600000D01*
X114800000Y-83663603D02*
X114888543Y-83575060D01*
X116200000Y-78155026D02*
X115644974Y-77600000D01*
%TO.N,Net-(U8-G)*%
X102875000Y-69000000D02*
X102900000Y-69000000D01*
%TO.N,Net-(U11-G)*%
X102875000Y-85500000D02*
X102900000Y-85500000D01*
%TO.N,Net-(U7-G)*%
X102875000Y-67000000D02*
X102900000Y-67000000D01*
%TO.N,Net-(U12-G)*%
X102875000Y-87500000D02*
X102900000Y-87500000D01*
%TD*%
%TA.AperFunction,Conductor*%
%TO.N,/motor_driver_1_weapon/OUT_C*%
G36*
X98506061Y-82500597D02*
G01*
X98682941Y-82518018D01*
X98706769Y-82522757D01*
X98871001Y-82572576D01*
X98893453Y-82581877D01*
X98987259Y-82632017D01*
X99037104Y-82680979D01*
X99052564Y-82749117D01*
X99028732Y-82814797D01*
X98995846Y-82845690D01*
X98901953Y-82906031D01*
X98901948Y-82906035D01*
X98894871Y-82914203D01*
X98836093Y-82951977D01*
X98801159Y-82957000D01*
X98694997Y-82957000D01*
X98597228Y-82976447D01*
X98597221Y-82976450D01*
X98514334Y-83031833D01*
X98514333Y-83031834D01*
X98458950Y-83114721D01*
X98458947Y-83114728D01*
X98439500Y-83212495D01*
X98439500Y-83324152D01*
X98419815Y-83391191D01*
X98409214Y-83405353D01*
X98367120Y-83453932D01*
X98367117Y-83453938D01*
X98313302Y-83571774D01*
X98293605Y-83708779D01*
X98292972Y-83708688D01*
X98289528Y-83731912D01*
X98278259Y-83769060D01*
X98278255Y-83769076D01*
X98272167Y-83793382D01*
X98272165Y-83793392D01*
X98267427Y-83817212D01*
X98267427Y-83817214D01*
X98263749Y-83842000D01*
X98263746Y-83842023D01*
X98249678Y-83984871D01*
X98246326Y-84018905D01*
X98245406Y-84031376D01*
X98244808Y-84043551D01*
X98244500Y-84056112D01*
X98244500Y-84747696D01*
X98224815Y-84814735D01*
X98172011Y-84860490D01*
X98102853Y-84870434D01*
X98096313Y-84869314D01*
X98084678Y-84867000D01*
X98084674Y-84867000D01*
X97045326Y-84867000D01*
X97045323Y-84867000D01*
X96972264Y-84881532D01*
X96972260Y-84881533D01*
X96889399Y-84936899D01*
X96834033Y-85019760D01*
X96834032Y-85019764D01*
X96819500Y-85092821D01*
X96819500Y-85547178D01*
X96834032Y-85620235D01*
X96834033Y-85620239D01*
X96834034Y-85620240D01*
X96889399Y-85703101D01*
X96933818Y-85732780D01*
X96972260Y-85758466D01*
X96972264Y-85758467D01*
X97045321Y-85772999D01*
X97045324Y-85773000D01*
X97045326Y-85773000D01*
X98084675Y-85773000D01*
X98154744Y-85759062D01*
X98224335Y-85765289D01*
X98279513Y-85808151D01*
X98297597Y-85844684D01*
X98328079Y-85945171D01*
X98336523Y-85968772D01*
X98336524Y-85968775D01*
X98345826Y-85991231D01*
X98356550Y-86013905D01*
X98356557Y-86013919D01*
X98437430Y-86165220D01*
X98437456Y-86165267D01*
X98450331Y-86186747D01*
X98463807Y-86206917D01*
X98463853Y-86206983D01*
X98478761Y-86227082D01*
X98478773Y-86227098D01*
X98548844Y-86312480D01*
X98587644Y-86359758D01*
X98604473Y-86378326D01*
X98621672Y-86395525D01*
X98640240Y-86412354D01*
X98640245Y-86412358D01*
X98772901Y-86521226D01*
X98772916Y-86521237D01*
X98793015Y-86536145D01*
X98793081Y-86536191D01*
X98813251Y-86549667D01*
X98834731Y-86562542D01*
X98834747Y-86562551D01*
X98834759Y-86562558D01*
X98834778Y-86562568D01*
X98986079Y-86643441D01*
X98986093Y-86643448D01*
X98986097Y-86643450D01*
X98986101Y-86643452D01*
X99008762Y-86654170D01*
X99031220Y-86663473D01*
X99054834Y-86671922D01*
X99219057Y-86721738D01*
X99243381Y-86727831D01*
X99267222Y-86732573D01*
X99281648Y-86734713D01*
X99292019Y-86736252D01*
X99318857Y-86738895D01*
X99388155Y-86745720D01*
X99452941Y-86771881D01*
X99493300Y-86828915D01*
X99500000Y-86869123D01*
X99500000Y-88493907D01*
X99499403Y-88506061D01*
X99481982Y-88682934D01*
X99477240Y-88706775D01*
X99427424Y-88870998D01*
X99418121Y-88893456D01*
X99337227Y-89044798D01*
X99323722Y-89065010D01*
X99214854Y-89197666D01*
X99197666Y-89214854D01*
X99065010Y-89323722D01*
X99044798Y-89337227D01*
X98893456Y-89418121D01*
X98870998Y-89427424D01*
X98706775Y-89477240D01*
X98682934Y-89481982D01*
X98506061Y-89499403D01*
X98493907Y-89500000D01*
X90006093Y-89500000D01*
X89993939Y-89499403D01*
X89817065Y-89481982D01*
X89793224Y-89477240D01*
X89629001Y-89427424D01*
X89606543Y-89418121D01*
X89455201Y-89337227D01*
X89434989Y-89323722D01*
X89302333Y-89214854D01*
X89285145Y-89197666D01*
X89176277Y-89065010D01*
X89162772Y-89044798D01*
X89081878Y-88893456D01*
X89072575Y-88870998D01*
X89022757Y-88706769D01*
X89018018Y-88682941D01*
X89000597Y-88506061D01*
X89000000Y-88493907D01*
X89000000Y-83506092D01*
X89000597Y-83493938D01*
X89009322Y-83405353D01*
X89018018Y-83317056D01*
X89022757Y-83293232D01*
X89072577Y-83128994D01*
X89081875Y-83106549D01*
X89162775Y-82955195D01*
X89176272Y-82934995D01*
X89285149Y-82802328D01*
X89302328Y-82785149D01*
X89434995Y-82676272D01*
X89455195Y-82662775D01*
X89606549Y-82581875D01*
X89628994Y-82572577D01*
X89793232Y-82522757D01*
X89817056Y-82518018D01*
X89993939Y-82500597D01*
X90006093Y-82500000D01*
X98493907Y-82500000D01*
X98506061Y-82500597D01*
G37*
%TD.AperFunction*%
%TD*%
%TA.AperFunction,Conductor*%
%TO.N,/motor_driver_1_weapon/OUT_A*%
G36*
X98484247Y-64519685D02*
G01*
X98530002Y-64572489D01*
X98539946Y-64641647D01*
X98520310Y-64692891D01*
X98458949Y-64784724D01*
X98458947Y-64784728D01*
X98439500Y-64882495D01*
X98439500Y-65024152D01*
X98419815Y-65091191D01*
X98409214Y-65105353D01*
X98367120Y-65153932D01*
X98367117Y-65153938D01*
X98313302Y-65271774D01*
X98293605Y-65408779D01*
X98292972Y-65408688D01*
X98289528Y-65431912D01*
X98278259Y-65469060D01*
X98278255Y-65469076D01*
X98272167Y-65493382D01*
X98272165Y-65493392D01*
X98267427Y-65517212D01*
X98267427Y-65517214D01*
X98263749Y-65542000D01*
X98263746Y-65542023D01*
X98249678Y-65684871D01*
X98246326Y-65718905D01*
X98245406Y-65731376D01*
X98244808Y-65743551D01*
X98244500Y-65756112D01*
X98244500Y-66417696D01*
X98224815Y-66484735D01*
X98172011Y-66530490D01*
X98102853Y-66540434D01*
X98096313Y-66539314D01*
X98084678Y-66537000D01*
X98084674Y-66537000D01*
X97045326Y-66537000D01*
X97045323Y-66537000D01*
X96972264Y-66551532D01*
X96972260Y-66551533D01*
X96889399Y-66606899D01*
X96834033Y-66689760D01*
X96834032Y-66689764D01*
X96819500Y-66762821D01*
X96819500Y-67217178D01*
X96834032Y-67290235D01*
X96834033Y-67290239D01*
X96834034Y-67290240D01*
X96889399Y-67373101D01*
X96939692Y-67406705D01*
X96972260Y-67428466D01*
X96972264Y-67428467D01*
X97045321Y-67442999D01*
X97045324Y-67443000D01*
X97045326Y-67443000D01*
X98084676Y-67443000D01*
X98084677Y-67442999D01*
X98157735Y-67428467D01*
X98157736Y-67428467D01*
X98157736Y-67428466D01*
X98157740Y-67428466D01*
X98159056Y-67427586D01*
X98162365Y-67426549D01*
X98169021Y-67423793D01*
X98169267Y-67424388D01*
X98225730Y-67406705D01*
X98293112Y-67425186D01*
X98339805Y-67477162D01*
X98342508Y-67483222D01*
X98345824Y-67491227D01*
X98356550Y-67513905D01*
X98356557Y-67513919D01*
X98437430Y-67665220D01*
X98437456Y-67665267D01*
X98450331Y-67686747D01*
X98463807Y-67706917D01*
X98463853Y-67706983D01*
X98478761Y-67727082D01*
X98478773Y-67727098D01*
X98548844Y-67812480D01*
X98587644Y-67859758D01*
X98604473Y-67878326D01*
X98621672Y-67895525D01*
X98640240Y-67912354D01*
X98640245Y-67912358D01*
X98772901Y-68021226D01*
X98772916Y-68021237D01*
X98793015Y-68036145D01*
X98793081Y-68036191D01*
X98813251Y-68049667D01*
X98834731Y-68062542D01*
X98834747Y-68062551D01*
X98834759Y-68062558D01*
X98834778Y-68062568D01*
X98986079Y-68143441D01*
X98986093Y-68143448D01*
X98986097Y-68143450D01*
X98986101Y-68143452D01*
X99008762Y-68154170D01*
X99031220Y-68163473D01*
X99054834Y-68171922D01*
X99219057Y-68221738D01*
X99243381Y-68227831D01*
X99267222Y-68232573D01*
X99281648Y-68234713D01*
X99292019Y-68236252D01*
X99318857Y-68238895D01*
X99388155Y-68245720D01*
X99452941Y-68271881D01*
X99493300Y-68328915D01*
X99500000Y-68369123D01*
X99500000Y-69993907D01*
X99499403Y-70006061D01*
X99481982Y-70182934D01*
X99477240Y-70206775D01*
X99427424Y-70370998D01*
X99418121Y-70393456D01*
X99337227Y-70544798D01*
X99323722Y-70565010D01*
X99214854Y-70697666D01*
X99197666Y-70714854D01*
X99065010Y-70823722D01*
X99044798Y-70837227D01*
X98893456Y-70918121D01*
X98870998Y-70927424D01*
X98706775Y-70977240D01*
X98682934Y-70981982D01*
X98506061Y-70999403D01*
X98493907Y-71000000D01*
X90006093Y-71000000D01*
X89993939Y-70999403D01*
X89817065Y-70981982D01*
X89793224Y-70977240D01*
X89629001Y-70927424D01*
X89606543Y-70918121D01*
X89455201Y-70837227D01*
X89434989Y-70823722D01*
X89302333Y-70714854D01*
X89285145Y-70697666D01*
X89176277Y-70565010D01*
X89162772Y-70544798D01*
X89081878Y-70393456D01*
X89072575Y-70370998D01*
X89022757Y-70206769D01*
X89018018Y-70182941D01*
X89000597Y-70006061D01*
X89000000Y-69993907D01*
X89000000Y-65506092D01*
X89000597Y-65493938D01*
X89006706Y-65431912D01*
X89018018Y-65317056D01*
X89022757Y-65293232D01*
X89072577Y-65128994D01*
X89081875Y-65106549D01*
X89162775Y-64955195D01*
X89176272Y-64934995D01*
X89285149Y-64802328D01*
X89302328Y-64785149D01*
X89434995Y-64676272D01*
X89455195Y-64662775D01*
X89606549Y-64581875D01*
X89628994Y-64572577D01*
X89793232Y-64522757D01*
X89817056Y-64518018D01*
X89993939Y-64500597D01*
X90006093Y-64500000D01*
X98417208Y-64500000D01*
X98484247Y-64519685D01*
G37*
%TD.AperFunction*%
%TD*%
%TA.AperFunction,Conductor*%
%TO.N,VBUS*%
G36*
X102633059Y-64751061D02*
G01*
X102770575Y-64769165D01*
X102801843Y-64777543D01*
X102922418Y-64827487D01*
X102950451Y-64843672D01*
X103053992Y-64923121D01*
X103076880Y-64946009D01*
X103156327Y-65049548D01*
X103172512Y-65077581D01*
X103222456Y-65198156D01*
X103230834Y-65229423D01*
X103248939Y-65366939D01*
X103250000Y-65383125D01*
X103250000Y-65441873D01*
X103248939Y-65458059D01*
X103233389Y-65576166D01*
X103225011Y-65607432D01*
X103182561Y-65709916D01*
X103166376Y-65737950D01*
X103098847Y-65825957D01*
X103075957Y-65848847D01*
X102987950Y-65916376D01*
X102959916Y-65932561D01*
X102857432Y-65975011D01*
X102826166Y-65983389D01*
X102720109Y-65997352D01*
X102700000Y-66000000D01*
X102557650Y-66018741D01*
X102557646Y-66018742D01*
X102425000Y-66073685D01*
X102311091Y-66161091D01*
X102223685Y-66275000D01*
X102168742Y-66407646D01*
X102168741Y-66407650D01*
X102150000Y-66549992D01*
X102150000Y-66993907D01*
X102149403Y-67006061D01*
X102131982Y-67182934D01*
X102127240Y-67206775D01*
X102077424Y-67370998D01*
X102068121Y-67393456D01*
X101987227Y-67544798D01*
X101973722Y-67565010D01*
X101864854Y-67697666D01*
X101847666Y-67714854D01*
X101715010Y-67823722D01*
X101694798Y-67837227D01*
X101543456Y-67918121D01*
X101520998Y-67927424D01*
X101356775Y-67977240D01*
X101332934Y-67981982D01*
X101156061Y-67999403D01*
X101143907Y-68000000D01*
X99506093Y-68000000D01*
X99493939Y-67999403D01*
X99317065Y-67981982D01*
X99293224Y-67977240D01*
X99129001Y-67927424D01*
X99106543Y-67918121D01*
X98955201Y-67837227D01*
X98934989Y-67823722D01*
X98802333Y-67714854D01*
X98785145Y-67697666D01*
X98676277Y-67565010D01*
X98662772Y-67544798D01*
X98581878Y-67393456D01*
X98572575Y-67370998D01*
X98522757Y-67206769D01*
X98518018Y-67182941D01*
X98500597Y-67006061D01*
X98500000Y-66993907D01*
X98500000Y-65756092D01*
X98500597Y-65743938D01*
X98503948Y-65709916D01*
X98518018Y-65567056D01*
X98522757Y-65543232D01*
X98572577Y-65378994D01*
X98581875Y-65356549D01*
X98662775Y-65205195D01*
X98676272Y-65184995D01*
X98785149Y-65052328D01*
X98802328Y-65035149D01*
X98934995Y-64926272D01*
X98955195Y-64912775D01*
X99106549Y-64831875D01*
X99128994Y-64822577D01*
X99293232Y-64772757D01*
X99317056Y-64768018D01*
X99493939Y-64750597D01*
X99506093Y-64750000D01*
X102616874Y-64750000D01*
X102633059Y-64751061D01*
G37*
%TD.AperFunction*%
%TD*%
%TA.AperFunction,Conductor*%
%TO.N,VBUS*%
G36*
X113261980Y-68002383D02*
G01*
X113321480Y-68014218D01*
X113366175Y-68032730D01*
X113406272Y-68059522D01*
X113440477Y-68093727D01*
X113467267Y-68133822D01*
X113485781Y-68178517D01*
X113489542Y-68197427D01*
X113497617Y-68238019D01*
X113500000Y-68262210D01*
X113500000Y-74737789D01*
X113497617Y-74761982D01*
X113485781Y-74821482D01*
X113467267Y-74866179D01*
X113440481Y-74906268D01*
X113406269Y-74940479D01*
X113371975Y-74963394D01*
X113366179Y-74967267D01*
X113321482Y-74985781D01*
X113287857Y-74992469D01*
X113261978Y-74997617D01*
X113237789Y-75000000D01*
X111262211Y-75000000D01*
X111238020Y-74997617D01*
X111223189Y-74994667D01*
X111178518Y-74985781D01*
X111133822Y-74967267D01*
X111093727Y-74940477D01*
X111059522Y-74906272D01*
X111032730Y-74866175D01*
X111014218Y-74821480D01*
X111002383Y-74761980D01*
X111000000Y-74737789D01*
X111000000Y-68262210D01*
X111002383Y-68238019D01*
X111014218Y-68178517D01*
X111032729Y-68133826D01*
X111059524Y-68093724D01*
X111093724Y-68059524D01*
X111133826Y-68032729D01*
X111178514Y-68014219D01*
X111238028Y-68002381D01*
X111262211Y-68000000D01*
X113237789Y-68000000D01*
X113261980Y-68002383D01*
G37*
%TD.AperFunction*%
%TD*%
%TA.AperFunction,Conductor*%
%TO.N,/motor_driver_1_weapon/OUT_B*%
G36*
X98484247Y-73519685D02*
G01*
X98530002Y-73572489D01*
X98539946Y-73641647D01*
X98520310Y-73692891D01*
X98458950Y-73784721D01*
X98458946Y-73784729D01*
X98458930Y-73784815D01*
X98443678Y-73824352D01*
X98437440Y-73834760D01*
X98356543Y-73986107D01*
X98345823Y-74008773D01*
X98345820Y-74008781D01*
X98336531Y-74031204D01*
X98336524Y-74031222D01*
X98328079Y-74054824D01*
X98278260Y-74219057D01*
X98278254Y-74219079D01*
X98272167Y-74243382D01*
X98272165Y-74243392D01*
X98267427Y-74267212D01*
X98267427Y-74267214D01*
X98263749Y-74292000D01*
X98263746Y-74292023D01*
X98247169Y-74460339D01*
X98247159Y-74460448D01*
X98246325Y-74468910D01*
X98245406Y-74481392D01*
X98244808Y-74493551D01*
X98244500Y-74506092D01*
X98244500Y-75417696D01*
X98224815Y-75484735D01*
X98172011Y-75530490D01*
X98102853Y-75540434D01*
X98096313Y-75539314D01*
X98084678Y-75537000D01*
X98084674Y-75537000D01*
X97045326Y-75537000D01*
X97045323Y-75537000D01*
X96972264Y-75551532D01*
X96972260Y-75551533D01*
X96889399Y-75606899D01*
X96834033Y-75689760D01*
X96834032Y-75689764D01*
X96819500Y-75762821D01*
X96819500Y-76217178D01*
X96834032Y-76290235D01*
X96834033Y-76290239D01*
X96834034Y-76290240D01*
X96889399Y-76373101D01*
X96956595Y-76417999D01*
X96972260Y-76428466D01*
X96972264Y-76428467D01*
X97045321Y-76442999D01*
X97045324Y-76443000D01*
X97045326Y-76443000D01*
X98084676Y-76443000D01*
X98084677Y-76442999D01*
X98103188Y-76439317D01*
X98157738Y-76428467D01*
X98164976Y-76425469D01*
X98234446Y-76417999D01*
X98296925Y-76449273D01*
X98329183Y-76498256D01*
X98336526Y-76518780D01*
X98345826Y-76541231D01*
X98356550Y-76563905D01*
X98356557Y-76563919D01*
X98437430Y-76715220D01*
X98437456Y-76715267D01*
X98450331Y-76736747D01*
X98463807Y-76756917D01*
X98463853Y-76756983D01*
X98478761Y-76777082D01*
X98478773Y-76777098D01*
X98548844Y-76862480D01*
X98587644Y-76909758D01*
X98604473Y-76928326D01*
X98621672Y-76945525D01*
X98640240Y-76962354D01*
X98640245Y-76962358D01*
X98772901Y-77071226D01*
X98772916Y-77071237D01*
X98793015Y-77086145D01*
X98793081Y-77086191D01*
X98813251Y-77099667D01*
X98834731Y-77112542D01*
X98834747Y-77112551D01*
X98834759Y-77112558D01*
X98834778Y-77112568D01*
X98986079Y-77193441D01*
X98986093Y-77193448D01*
X98986097Y-77193450D01*
X98986101Y-77193452D01*
X99008762Y-77204170D01*
X99031220Y-77213473D01*
X99054834Y-77221922D01*
X99219057Y-77271738D01*
X99243381Y-77277831D01*
X99267222Y-77282573D01*
X99281648Y-77284713D01*
X99292019Y-77286252D01*
X99318857Y-77288895D01*
X99388155Y-77295720D01*
X99452941Y-77321881D01*
X99493300Y-77378915D01*
X99500000Y-77419123D01*
X99500000Y-78993907D01*
X99499403Y-79006061D01*
X99481982Y-79182934D01*
X99477240Y-79206775D01*
X99427424Y-79370998D01*
X99418121Y-79393456D01*
X99337227Y-79544798D01*
X99323722Y-79565010D01*
X99214854Y-79697666D01*
X99197666Y-79714854D01*
X99065010Y-79823722D01*
X99044798Y-79837227D01*
X98893456Y-79918121D01*
X98870998Y-79927424D01*
X98706775Y-79977240D01*
X98682934Y-79981982D01*
X98506061Y-79999403D01*
X98493907Y-80000000D01*
X90006093Y-80000000D01*
X89993939Y-79999403D01*
X89817065Y-79981982D01*
X89793224Y-79977240D01*
X89629001Y-79927424D01*
X89606543Y-79918121D01*
X89455201Y-79837227D01*
X89434989Y-79823722D01*
X89302333Y-79714854D01*
X89285145Y-79697666D01*
X89176277Y-79565010D01*
X89162772Y-79544798D01*
X89081878Y-79393456D01*
X89072575Y-79370998D01*
X89022757Y-79206769D01*
X89018018Y-79182941D01*
X89000597Y-79006061D01*
X89000000Y-78993907D01*
X89000000Y-74506092D01*
X89000597Y-74493938D01*
X89003062Y-74468910D01*
X89018018Y-74317056D01*
X89022757Y-74293232D01*
X89072577Y-74128994D01*
X89081875Y-74106549D01*
X89162775Y-73955195D01*
X89176272Y-73934995D01*
X89285149Y-73802328D01*
X89302328Y-73785149D01*
X89434995Y-73676272D01*
X89455195Y-73662775D01*
X89606549Y-73581875D01*
X89628994Y-73572577D01*
X89793232Y-73522757D01*
X89817056Y-73518018D01*
X89993939Y-73500597D01*
X90006093Y-73500000D01*
X98417208Y-73500000D01*
X98484247Y-73519685D01*
G37*
%TD.AperFunction*%
%TD*%
%TA.AperFunction,Conductor*%
%TO.N,VBUS*%
G36*
X102633059Y-73501061D02*
G01*
X102770575Y-73519165D01*
X102801843Y-73527543D01*
X102922418Y-73577487D01*
X102950451Y-73593672D01*
X103053992Y-73673121D01*
X103076880Y-73696009D01*
X103156327Y-73799548D01*
X103172512Y-73827581D01*
X103222456Y-73948156D01*
X103230834Y-73979423D01*
X103248939Y-74116939D01*
X103250000Y-74133125D01*
X103250000Y-74241874D01*
X103248939Y-74258060D01*
X103235093Y-74363224D01*
X103226715Y-74394491D01*
X103189259Y-74484918D01*
X103173074Y-74512951D01*
X103113491Y-74590601D01*
X103090601Y-74613491D01*
X103012951Y-74673074D01*
X102984918Y-74689259D01*
X102894491Y-74726715D01*
X102863224Y-74735093D01*
X102764330Y-74748113D01*
X102750000Y-74750000D01*
X102620591Y-74767036D01*
X102620586Y-74767038D01*
X102500004Y-74816984D01*
X102500003Y-74816984D01*
X102396447Y-74896447D01*
X102316984Y-75000003D01*
X102316984Y-75000004D01*
X102267038Y-75120586D01*
X102267036Y-75120591D01*
X102250001Y-75249990D01*
X102250000Y-75250006D01*
X102250000Y-75554512D01*
X102243042Y-75595466D01*
X102227353Y-75640301D01*
X102224500Y-75670730D01*
X102224500Y-76247414D01*
X102219161Y-76283409D01*
X102177424Y-76420998D01*
X102168121Y-76443456D01*
X102087227Y-76594798D01*
X102073722Y-76615010D01*
X101964854Y-76747666D01*
X101947666Y-76764854D01*
X101815010Y-76873722D01*
X101794798Y-76887227D01*
X101643456Y-76968121D01*
X101620998Y-76977424D01*
X101456775Y-77027240D01*
X101432934Y-77031982D01*
X101256061Y-77049403D01*
X101243907Y-77050000D01*
X99506093Y-77050000D01*
X99493939Y-77049403D01*
X99317065Y-77031982D01*
X99293224Y-77027240D01*
X99129001Y-76977424D01*
X99106543Y-76968121D01*
X98955201Y-76887227D01*
X98934989Y-76873722D01*
X98802333Y-76764854D01*
X98785145Y-76747666D01*
X98676277Y-76615010D01*
X98662772Y-76594798D01*
X98581878Y-76443456D01*
X98572575Y-76420998D01*
X98522757Y-76256769D01*
X98518018Y-76232941D01*
X98500597Y-76056061D01*
X98500000Y-76043907D01*
X98500000Y-74506092D01*
X98500597Y-74493938D01*
X98501485Y-74484918D01*
X98518018Y-74317056D01*
X98522757Y-74293232D01*
X98572577Y-74128994D01*
X98581875Y-74106549D01*
X98662775Y-73955195D01*
X98676272Y-73934995D01*
X98785149Y-73802328D01*
X98802328Y-73785149D01*
X98934995Y-73676272D01*
X98955195Y-73662775D01*
X99106549Y-73581875D01*
X99128994Y-73572577D01*
X99293232Y-73522757D01*
X99317056Y-73518018D01*
X99493939Y-73500597D01*
X99506093Y-73500000D01*
X102616874Y-73500000D01*
X102633059Y-73501061D01*
G37*
%TD.AperFunction*%
%TD*%
%TA.AperFunction,Conductor*%
%TO.N,VBUS*%
G36*
X102633059Y-83051061D02*
G01*
X102770575Y-83069165D01*
X102801843Y-83077543D01*
X102922418Y-83127487D01*
X102950451Y-83143672D01*
X103053992Y-83223121D01*
X103076880Y-83246009D01*
X103156327Y-83349548D01*
X103172512Y-83377581D01*
X103222456Y-83498156D01*
X103230834Y-83529423D01*
X103248939Y-83666939D01*
X103250000Y-83683125D01*
X103250000Y-83741873D01*
X103248939Y-83758059D01*
X103233389Y-83876166D01*
X103225011Y-83907432D01*
X103182561Y-84009916D01*
X103166376Y-84037950D01*
X103098847Y-84125957D01*
X103075957Y-84148847D01*
X102987950Y-84216376D01*
X102959916Y-84232561D01*
X102857432Y-84275011D01*
X102826166Y-84283389D01*
X102720109Y-84297352D01*
X102700000Y-84300000D01*
X102557650Y-84318741D01*
X102557646Y-84318742D01*
X102425000Y-84373685D01*
X102311091Y-84461091D01*
X102223685Y-84575000D01*
X102168742Y-84707646D01*
X102168741Y-84707650D01*
X102150000Y-84849992D01*
X102150000Y-85493907D01*
X102149403Y-85506061D01*
X102131982Y-85682934D01*
X102127240Y-85706775D01*
X102077424Y-85870998D01*
X102068121Y-85893456D01*
X101987227Y-86044798D01*
X101973722Y-86065010D01*
X101864854Y-86197666D01*
X101847666Y-86214854D01*
X101715010Y-86323722D01*
X101694798Y-86337227D01*
X101543456Y-86418121D01*
X101520998Y-86427424D01*
X101356775Y-86477240D01*
X101332934Y-86481982D01*
X101156061Y-86499403D01*
X101143907Y-86500000D01*
X99506093Y-86500000D01*
X99493939Y-86499403D01*
X99317065Y-86481982D01*
X99293224Y-86477240D01*
X99129001Y-86427424D01*
X99106543Y-86418121D01*
X98955201Y-86337227D01*
X98934989Y-86323722D01*
X98802333Y-86214854D01*
X98785145Y-86197666D01*
X98676277Y-86065010D01*
X98662772Y-86044798D01*
X98581878Y-85893456D01*
X98572575Y-85870998D01*
X98522757Y-85706769D01*
X98518018Y-85682941D01*
X98500597Y-85506061D01*
X98500000Y-85493907D01*
X98500000Y-84056092D01*
X98500597Y-84043938D01*
X98503948Y-84009916D01*
X98518018Y-83867056D01*
X98522757Y-83843232D01*
X98572577Y-83678994D01*
X98581875Y-83656549D01*
X98662775Y-83505195D01*
X98676272Y-83484995D01*
X98785149Y-83352328D01*
X98802328Y-83335149D01*
X98934995Y-83226272D01*
X98955195Y-83212775D01*
X99106549Y-83131875D01*
X99128994Y-83122577D01*
X99293232Y-83072757D01*
X99317056Y-83068018D01*
X99493939Y-83050597D01*
X99506093Y-83050000D01*
X102616874Y-83050000D01*
X102633059Y-83051061D01*
G37*
%TD.AperFunction*%
%TD*%
%TA.AperFunction,Conductor*%
%TO.N,GND*%
G36*
X89178029Y-64127742D02*
G01*
X89211514Y-64189065D01*
X89206530Y-64258756D01*
X89164659Y-64314690D01*
X89164070Y-64315127D01*
X89131872Y-64338891D01*
X88954968Y-64469450D01*
X88769450Y-64654968D01*
X88613651Y-64866071D01*
X88491061Y-65098021D01*
X88491059Y-65098024D01*
X88491059Y-65098026D01*
X88479156Y-65132044D01*
X88404404Y-65345672D01*
X88404403Y-65345677D01*
X88355631Y-65603445D01*
X88355630Y-65603456D01*
X88355630Y-65603457D01*
X88349500Y-65712608D01*
X88349500Y-68887392D01*
X88355630Y-68996541D01*
X88355631Y-68996554D01*
X88404403Y-69254322D01*
X88404404Y-69254327D01*
X88404405Y-69254332D01*
X88404406Y-69254333D01*
X88491059Y-69501974D01*
X88491060Y-69501977D01*
X88491061Y-69501978D01*
X88613651Y-69733929D01*
X88613654Y-69733933D01*
X88720270Y-69878394D01*
X88744241Y-69944021D01*
X88744500Y-69952026D01*
X88744500Y-69993907D01*
X88744723Y-70002984D01*
X88744808Y-70006450D01*
X88745406Y-70018618D01*
X88746325Y-70031086D01*
X88763745Y-70207958D01*
X88763751Y-70208009D01*
X88767421Y-70232756D01*
X88767427Y-70232785D01*
X88772169Y-70256627D01*
X88778249Y-70280899D01*
X88778256Y-70280924D01*
X88778259Y-70280936D01*
X88792649Y-70328373D01*
X88828079Y-70445171D01*
X88836523Y-70468772D01*
X88836524Y-70468775D01*
X88845826Y-70491231D01*
X88856550Y-70513905D01*
X88856557Y-70513919D01*
X88937430Y-70665220D01*
X88937456Y-70665267D01*
X88950331Y-70686747D01*
X88963807Y-70706917D01*
X88963853Y-70706983D01*
X88975857Y-70723167D01*
X88978773Y-70727098D01*
X88995822Y-70747872D01*
X89087644Y-70859758D01*
X89104473Y-70878326D01*
X89121672Y-70895525D01*
X89140240Y-70912354D01*
X89140245Y-70912358D01*
X89272901Y-71021226D01*
X89272916Y-71021237D01*
X89293015Y-71036145D01*
X89293081Y-71036191D01*
X89313251Y-71049667D01*
X89334731Y-71062542D01*
X89334747Y-71062551D01*
X89334759Y-71062558D01*
X89334778Y-71062568D01*
X89486079Y-71143441D01*
X89486093Y-71143448D01*
X89486097Y-71143450D01*
X89486101Y-71143452D01*
X89508762Y-71154170D01*
X89531220Y-71163473D01*
X89554834Y-71171922D01*
X89719057Y-71221738D01*
X89743381Y-71227831D01*
X89767222Y-71232573D01*
X89785462Y-71235278D01*
X89792020Y-71236252D01*
X89809984Y-71238021D01*
X89968895Y-71253673D01*
X89981404Y-71254595D01*
X89993558Y-71255192D01*
X90006093Y-71255500D01*
X90006113Y-71255500D01*
X98493887Y-71255500D01*
X98493907Y-71255500D01*
X98506442Y-71255192D01*
X98518596Y-71254595D01*
X98531105Y-71253673D01*
X98707978Y-71236252D01*
X98732777Y-71232573D01*
X98756618Y-71227831D01*
X98780942Y-71221738D01*
X98945165Y-71171922D01*
X98968779Y-71163473D01*
X98991237Y-71154170D01*
X99013898Y-71143452D01*
X99165240Y-71062558D01*
X99165267Y-71062541D01*
X99165281Y-71062534D01*
X99168442Y-71060640D01*
X99232187Y-71043000D01*
X99305002Y-71043000D01*
X99305003Y-71042999D01*
X99402776Y-71023551D01*
X99485666Y-70968166D01*
X99541051Y-70885276D01*
X99560500Y-70787500D01*
X99560500Y-70700150D01*
X99575141Y-70641697D01*
X99643452Y-70513898D01*
X99654170Y-70491237D01*
X99663473Y-70468779D01*
X99671922Y-70445165D01*
X99721738Y-70280942D01*
X99727831Y-70256618D01*
X99732573Y-70232777D01*
X99736252Y-70207978D01*
X99753673Y-70031105D01*
X99754595Y-70018596D01*
X99755192Y-70006442D01*
X99755500Y-69993907D01*
X99755500Y-69252303D01*
X99775185Y-69185264D01*
X99827989Y-69139509D01*
X99897147Y-69129565D01*
X99903686Y-69130684D01*
X99915326Y-69133000D01*
X100954676Y-69133000D01*
X100954677Y-69132999D01*
X101027740Y-69118466D01*
X101110601Y-69063101D01*
X101165966Y-68980240D01*
X101180500Y-68907174D01*
X101180500Y-68670730D01*
X102224500Y-68670730D01*
X102224500Y-69329269D01*
X102227353Y-69359699D01*
X102227353Y-69359701D01*
X102272206Y-69487880D01*
X102272207Y-69487882D01*
X102352850Y-69597150D01*
X102462118Y-69677793D01*
X102504194Y-69692516D01*
X102590299Y-69722646D01*
X102620730Y-69725500D01*
X102620734Y-69725500D01*
X103129270Y-69725500D01*
X103159699Y-69722646D01*
X103159701Y-69722646D01*
X103223790Y-69700219D01*
X103287882Y-69677793D01*
X103397150Y-69597150D01*
X103477793Y-69487882D01*
X103500219Y-69423790D01*
X103522646Y-69359701D01*
X103522646Y-69359699D01*
X103525500Y-69329269D01*
X103525500Y-68670730D01*
X103522646Y-68640300D01*
X103522646Y-68640298D01*
X103480472Y-68519774D01*
X103477793Y-68512118D01*
X103397150Y-68402850D01*
X103287882Y-68322207D01*
X103287880Y-68322206D01*
X103159700Y-68277353D01*
X103129270Y-68274500D01*
X103129266Y-68274500D01*
X102620734Y-68274500D01*
X102620730Y-68274500D01*
X102590300Y-68277353D01*
X102590298Y-68277353D01*
X102462119Y-68322206D01*
X102462117Y-68322207D01*
X102352850Y-68402850D01*
X102272207Y-68512117D01*
X102272206Y-68512119D01*
X102227353Y-68640298D01*
X102227353Y-68640300D01*
X102224500Y-68670730D01*
X101180500Y-68670730D01*
X101180500Y-68452826D01*
X101180500Y-68452823D01*
X101180499Y-68452821D01*
X101168350Y-68391741D01*
X101174577Y-68322150D01*
X101217440Y-68266972D01*
X101277811Y-68244147D01*
X101357978Y-68236252D01*
X101382777Y-68232573D01*
X101406618Y-68227831D01*
X101430942Y-68221738D01*
X101595165Y-68171922D01*
X101618779Y-68163473D01*
X101627308Y-68159940D01*
X101674766Y-68150499D01*
X101900739Y-68150499D01*
X101900739Y-68150498D01*
X101946454Y-68143258D01*
X101992170Y-68136018D01*
X101992171Y-68136018D01*
X101992172Y-68136017D01*
X101992175Y-68136017D01*
X102102391Y-68079859D01*
X102189859Y-67992391D01*
X102246017Y-67882175D01*
X102246017Y-67882173D01*
X102246018Y-67882172D01*
X102246018Y-67882171D01*
X102252109Y-67843714D01*
X102260500Y-67790735D01*
X102260499Y-67774624D01*
X102280180Y-67707588D01*
X102332982Y-67661830D01*
X102402140Y-67651883D01*
X102458129Y-67674849D01*
X102462118Y-67677793D01*
X102504845Y-67692744D01*
X102590299Y-67722646D01*
X102620730Y-67725500D01*
X102620734Y-67725500D01*
X103129270Y-67725500D01*
X103159699Y-67722646D01*
X103159701Y-67722646D01*
X103223790Y-67700219D01*
X103287882Y-67677793D01*
X103397150Y-67597150D01*
X103477793Y-67487882D01*
X103500219Y-67423790D01*
X103522646Y-67359701D01*
X103522646Y-67359699D01*
X103525500Y-67329269D01*
X103525500Y-66670730D01*
X103522646Y-66640300D01*
X103522646Y-66640298D01*
X103477793Y-66512119D01*
X103477792Y-66512117D01*
X103471121Y-66503078D01*
X103397150Y-66402850D01*
X103287882Y-66322207D01*
X103287880Y-66322206D01*
X103223427Y-66299653D01*
X103166651Y-66258931D01*
X103140904Y-66193978D01*
X103154361Y-66125417D01*
X103188896Y-66084236D01*
X103193697Y-66080552D01*
X103231494Y-66051550D01*
X103256623Y-66029513D01*
X103279513Y-66006623D01*
X103301550Y-65981494D01*
X103369079Y-65893487D01*
X103387647Y-65865697D01*
X103403832Y-65837663D01*
X103418612Y-65807691D01*
X103461062Y-65705207D01*
X103471804Y-65673562D01*
X103480182Y-65642296D01*
X103486703Y-65609517D01*
X103502253Y-65491410D01*
X103503892Y-65474771D01*
X103504953Y-65458585D01*
X103505500Y-65441873D01*
X103505500Y-65383125D01*
X103504953Y-65366413D01*
X103503892Y-65350227D01*
X103502253Y-65333588D01*
X103484148Y-65196072D01*
X103477628Y-65163294D01*
X103469250Y-65132027D01*
X103458507Y-65100380D01*
X103415417Y-64996352D01*
X103408570Y-64979821D01*
X103408562Y-64979803D01*
X103393782Y-64949831D01*
X103377588Y-64921784D01*
X103377587Y-64921782D01*
X103359039Y-64894023D01*
X103359034Y-64894017D01*
X103359030Y-64894011D01*
X103279583Y-64790472D01*
X103257546Y-64765343D01*
X103234658Y-64742455D01*
X103234657Y-64742454D01*
X103234654Y-64742451D01*
X103209534Y-64720421D01*
X103209530Y-64720418D01*
X103180153Y-64697876D01*
X103138950Y-64641448D01*
X103134795Y-64571702D01*
X103169007Y-64510782D01*
X103230724Y-64478029D01*
X103255639Y-64475500D01*
X107720867Y-64475500D01*
X107787906Y-64495185D01*
X107833661Y-64547989D01*
X107843082Y-64591297D01*
X107843605Y-64591222D01*
X107844655Y-64598526D01*
X107844867Y-64599500D01*
X107844867Y-64599999D01*
X107844867Y-64600000D01*
X107846885Y-64614033D01*
X107863302Y-64728225D01*
X107915874Y-64843339D01*
X107917118Y-64846063D01*
X107919212Y-64848480D01*
X107920540Y-64851388D01*
X107921913Y-64853524D01*
X107921606Y-64853721D01*
X107948237Y-64912032D01*
X107949500Y-64929683D01*
X107949500Y-66533453D01*
X107929815Y-66600492D01*
X107913181Y-66621134D01*
X106265179Y-68269135D01*
X106203856Y-68302620D01*
X106134164Y-68297636D01*
X106089817Y-68269135D01*
X105211819Y-67391137D01*
X105178334Y-67329814D01*
X105175500Y-67303456D01*
X105175500Y-66670730D01*
X105172646Y-66640300D01*
X105172646Y-66640298D01*
X105127793Y-66512119D01*
X105127792Y-66512117D01*
X105121121Y-66503078D01*
X105047150Y-66402850D01*
X104937882Y-66322207D01*
X104937880Y-66322206D01*
X104809700Y-66277353D01*
X104779270Y-66274500D01*
X104779266Y-66274500D01*
X104270734Y-66274500D01*
X104270730Y-66274500D01*
X104240300Y-66277353D01*
X104240298Y-66277353D01*
X104112119Y-66322206D01*
X104112117Y-66322207D01*
X104002850Y-66402850D01*
X103922207Y-66512117D01*
X103922206Y-66512119D01*
X103877353Y-66640298D01*
X103877353Y-66640300D01*
X103874500Y-66670730D01*
X103874500Y-67329269D01*
X103877353Y-67359699D01*
X103877353Y-67359701D01*
X103922206Y-67487880D01*
X103922207Y-67487882D01*
X104002850Y-67597150D01*
X104112118Y-67677793D01*
X104154845Y-67692744D01*
X104240299Y-67722646D01*
X104270730Y-67725500D01*
X104270734Y-67725500D01*
X104503456Y-67725500D01*
X104570495Y-67745185D01*
X104591137Y-67761819D01*
X104894143Y-68064825D01*
X104927628Y-68126148D01*
X104922644Y-68195840D01*
X104880772Y-68251773D01*
X104815308Y-68276190D01*
X104794887Y-68275965D01*
X104779266Y-68274500D01*
X104270734Y-68274500D01*
X104270730Y-68274500D01*
X104240300Y-68277353D01*
X104240298Y-68277353D01*
X104112119Y-68322206D01*
X104112117Y-68322207D01*
X104002850Y-68402850D01*
X103922207Y-68512117D01*
X103922206Y-68512119D01*
X103877353Y-68640298D01*
X103877353Y-68640300D01*
X103874500Y-68670730D01*
X103874500Y-69329269D01*
X103877353Y-69359699D01*
X103877353Y-69359701D01*
X103922206Y-69487880D01*
X103922207Y-69487882D01*
X103950270Y-69525906D01*
X103974241Y-69591533D01*
X103974500Y-69599539D01*
X103974500Y-70492929D01*
X103989657Y-70549499D01*
X103997742Y-70579671D01*
X103996081Y-70649521D01*
X103956919Y-70707384D01*
X103892691Y-70734889D01*
X103823788Y-70723303D01*
X103823508Y-70723167D01*
X103756519Y-70690418D01*
X103744028Y-70688598D01*
X103681582Y-70679500D01*
X103338418Y-70679500D01*
X103263482Y-70690418D01*
X103263480Y-70690418D01*
X103263478Y-70690419D01*
X103147900Y-70746921D01*
X103147897Y-70746923D01*
X103087681Y-70807140D01*
X103026358Y-70840625D01*
X102956666Y-70835641D01*
X102912319Y-70807140D01*
X102852102Y-70746923D01*
X102852099Y-70746921D01*
X102736521Y-70690419D01*
X102736519Y-70690418D01*
X102736518Y-70690418D01*
X102661582Y-70679500D01*
X102318418Y-70679500D01*
X102243482Y-70690418D01*
X102243480Y-70690418D01*
X102243478Y-70690419D01*
X102127900Y-70746921D01*
X102127897Y-70746923D01*
X102036923Y-70837897D01*
X102036921Y-70837900D01*
X101980419Y-70953478D01*
X101980418Y-70953480D01*
X101980418Y-70953482D01*
X101969500Y-71028418D01*
X101969500Y-71471582D01*
X101980418Y-71546518D01*
X101980418Y-71546519D01*
X101980419Y-71546521D01*
X102036921Y-71662099D01*
X102036923Y-71662101D01*
X102036924Y-71662102D01*
X102103182Y-71728360D01*
X102136666Y-71789681D01*
X102139500Y-71816040D01*
X102139500Y-71933959D01*
X102119815Y-72000998D01*
X102103181Y-72021640D01*
X102036926Y-72087895D01*
X102030956Y-72096257D01*
X102027908Y-72094081D01*
X101993650Y-72131559D01*
X101929404Y-72149500D01*
X99028856Y-72149500D01*
X98946273Y-72171628D01*
X98946272Y-72171627D01*
X98939712Y-72173385D01*
X98859787Y-72219531D01*
X98859784Y-72219533D01*
X97871137Y-73208181D01*
X97809814Y-73241666D01*
X97783456Y-73244500D01*
X93933841Y-73244500D01*
X93875899Y-73230130D01*
X93801978Y-73191061D01*
X93801977Y-73191060D01*
X93801974Y-73191059D01*
X93554333Y-73104406D01*
X93554332Y-73104405D01*
X93554327Y-73104404D01*
X93554322Y-73104403D01*
X93296554Y-73055631D01*
X93296544Y-73055630D01*
X93296543Y-73055630D01*
X93187392Y-73049500D01*
X90012608Y-73049500D01*
X89903457Y-73055630D01*
X89903456Y-73055630D01*
X89903445Y-73055631D01*
X89645677Y-73104403D01*
X89645672Y-73104404D01*
X89521846Y-73147732D01*
X89398026Y-73191059D01*
X89398024Y-73191059D01*
X89398021Y-73191061D01*
X89166071Y-73313651D01*
X88954968Y-73469450D01*
X88769450Y-73654968D01*
X88613651Y-73866071D01*
X88491061Y-74098021D01*
X88491059Y-74098024D01*
X88491059Y-74098026D01*
X88459343Y-74188666D01*
X88404404Y-74345672D01*
X88404403Y-74345677D01*
X88355631Y-74603445D01*
X88355630Y-74603456D01*
X88355630Y-74603457D01*
X88349500Y-74712608D01*
X88349500Y-77887392D01*
X88355499Y-77994208D01*
X88355630Y-77996541D01*
X88355631Y-77996554D01*
X88404403Y-78254322D01*
X88404404Y-78254327D01*
X88404405Y-78254332D01*
X88404406Y-78254333D01*
X88491059Y-78501974D01*
X88491060Y-78501977D01*
X88491061Y-78501978D01*
X88613651Y-78733929D01*
X88613654Y-78733933D01*
X88720270Y-78878394D01*
X88744241Y-78944021D01*
X88744500Y-78952026D01*
X88744500Y-78993907D01*
X88744723Y-79002984D01*
X88744808Y-79006450D01*
X88745406Y-79018618D01*
X88746325Y-79031086D01*
X88763745Y-79207958D01*
X88763751Y-79208009D01*
X88767421Y-79232756D01*
X88767426Y-79232780D01*
X88771021Y-79250858D01*
X88772167Y-79256617D01*
X88772167Y-79256620D01*
X88778249Y-79280899D01*
X88778256Y-79280924D01*
X88778259Y-79280936D01*
X88824044Y-79431870D01*
X88828079Y-79445171D01*
X88836523Y-79468772D01*
X88836524Y-79468775D01*
X88845826Y-79491231D01*
X88856550Y-79513905D01*
X88856557Y-79513919D01*
X88937430Y-79665220D01*
X88937456Y-79665267D01*
X88950331Y-79686747D01*
X88963807Y-79706917D01*
X88963853Y-79706983D01*
X88978761Y-79727082D01*
X88978773Y-79727098D01*
X88983240Y-79732541D01*
X89087644Y-79859758D01*
X89104473Y-79878326D01*
X89121672Y-79895525D01*
X89140240Y-79912354D01*
X89140245Y-79912358D01*
X89272901Y-80021226D01*
X89272916Y-80021237D01*
X89293015Y-80036145D01*
X89293081Y-80036191D01*
X89313251Y-80049667D01*
X89334731Y-80062542D01*
X89334742Y-80062548D01*
X89334759Y-80062558D01*
X89360527Y-80076331D01*
X89486079Y-80143441D01*
X89486093Y-80143448D01*
X89486097Y-80143450D01*
X89486101Y-80143452D01*
X89508762Y-80154170D01*
X89531220Y-80163473D01*
X89554834Y-80171922D01*
X89719057Y-80221738D01*
X89743381Y-80227831D01*
X89767222Y-80232573D01*
X89785462Y-80235278D01*
X89792020Y-80236252D01*
X89809984Y-80238021D01*
X89968895Y-80253673D01*
X89981404Y-80254595D01*
X89993558Y-80255192D01*
X90006093Y-80255500D01*
X90006113Y-80255500D01*
X98493887Y-80255500D01*
X98493907Y-80255500D01*
X98506442Y-80255192D01*
X98518596Y-80254595D01*
X98531105Y-80253673D01*
X98707978Y-80236252D01*
X98732777Y-80232573D01*
X98756618Y-80227831D01*
X98780942Y-80221738D01*
X98945165Y-80171922D01*
X98968779Y-80163473D01*
X98991237Y-80154170D01*
X99013898Y-80143452D01*
X99016022Y-80142317D01*
X99064200Y-80116565D01*
X99165240Y-80062558D01*
X99185123Y-80050640D01*
X99248871Y-80033000D01*
X99305002Y-80033000D01*
X99305003Y-80032999D01*
X99402776Y-80013551D01*
X99485666Y-79958166D01*
X99541051Y-79875276D01*
X99560500Y-79777500D01*
X99560500Y-79700150D01*
X99575141Y-79641697D01*
X99643452Y-79513898D01*
X99654170Y-79491237D01*
X99663473Y-79468779D01*
X99671922Y-79445165D01*
X99721738Y-79280942D01*
X99727206Y-79259114D01*
X99727832Y-79256615D01*
X99732568Y-79232801D01*
X99732572Y-79232780D01*
X99732573Y-79232777D01*
X99736252Y-79207978D01*
X99753673Y-79031105D01*
X99754595Y-79018596D01*
X99755192Y-79006442D01*
X99755500Y-78993907D01*
X99755500Y-78242303D01*
X99775185Y-78175264D01*
X99827989Y-78129509D01*
X99897147Y-78119565D01*
X99903686Y-78120684D01*
X99915326Y-78123000D01*
X100954676Y-78123000D01*
X100954677Y-78122999D01*
X101027740Y-78108466D01*
X101110601Y-78053101D01*
X101165966Y-77970240D01*
X101180500Y-77897174D01*
X101180500Y-77442826D01*
X101180500Y-77442823D01*
X101180047Y-77438223D01*
X101193067Y-77369577D01*
X101241133Y-77318868D01*
X101291291Y-77302669D01*
X101457978Y-77286252D01*
X101482777Y-77282573D01*
X101506618Y-77277831D01*
X101530942Y-77271738D01*
X101695165Y-77221922D01*
X101718779Y-77213473D01*
X101741237Y-77204170D01*
X101763898Y-77193452D01*
X101816864Y-77165141D01*
X101875317Y-77150499D01*
X101900739Y-77150499D01*
X101900739Y-77150498D01*
X101946454Y-77143258D01*
X101992170Y-77136018D01*
X101992171Y-77136018D01*
X101992172Y-77136017D01*
X101992175Y-77136017D01*
X102049121Y-77107001D01*
X102117787Y-77094106D01*
X102182527Y-77120382D01*
X102222785Y-77177488D01*
X102225915Y-77232587D01*
X102228058Y-77232788D01*
X102224500Y-77270730D01*
X102224500Y-77929269D01*
X102227353Y-77959699D01*
X102227353Y-77959701D01*
X102272206Y-78087880D01*
X102272207Y-78087882D01*
X102352850Y-78197150D01*
X102462118Y-78277793D01*
X102504845Y-78292744D01*
X102590299Y-78322646D01*
X102620730Y-78325500D01*
X102879456Y-78325500D01*
X102946495Y-78345185D01*
X102992250Y-78397989D01*
X103002194Y-78467147D01*
X102973169Y-78530703D01*
X102967137Y-78537181D01*
X102535341Y-78968976D01*
X102482595Y-79000272D01*
X102360934Y-79035994D01*
X102251950Y-79106033D01*
X102167118Y-79203937D01*
X102167117Y-79203938D01*
X102113302Y-79321774D01*
X102094867Y-79450000D01*
X102113302Y-79578225D01*
X102162863Y-79686747D01*
X102167118Y-79696063D01*
X102233020Y-79772119D01*
X102262044Y-79835675D01*
X102252100Y-79904833D01*
X102206345Y-79957637D01*
X102193767Y-79964721D01*
X102127898Y-79996922D01*
X102036923Y-80087897D01*
X102036921Y-80087900D01*
X101980419Y-80203478D01*
X101980418Y-80203480D01*
X101980418Y-80203482D01*
X101969500Y-80278418D01*
X101969500Y-80721582D01*
X101980418Y-80796518D01*
X101980418Y-80796519D01*
X101980419Y-80796521D01*
X102036921Y-80912099D01*
X102036923Y-80912101D01*
X102036924Y-80912102D01*
X102103182Y-80978360D01*
X102136666Y-81039681D01*
X102139500Y-81066040D01*
X102139500Y-81433959D01*
X102119815Y-81500998D01*
X102103181Y-81521640D01*
X102036926Y-81587895D01*
X102030956Y-81596257D01*
X102027908Y-81594081D01*
X101993650Y-81631559D01*
X101929404Y-81649500D01*
X98858856Y-81649500D01*
X98776273Y-81671628D01*
X98776272Y-81671627D01*
X98769714Y-81673385D01*
X98769709Y-81673387D01*
X98689791Y-81719527D01*
X98689786Y-81719531D01*
X98201137Y-82208181D01*
X98139814Y-82241666D01*
X98113456Y-82244500D01*
X93933841Y-82244500D01*
X93875899Y-82230130D01*
X93801978Y-82191061D01*
X93801977Y-82191060D01*
X93801974Y-82191059D01*
X93554333Y-82104406D01*
X93554332Y-82104405D01*
X93554327Y-82104404D01*
X93554322Y-82104403D01*
X93296554Y-82055631D01*
X93296544Y-82055630D01*
X93296543Y-82055630D01*
X93187392Y-82049500D01*
X90012608Y-82049500D01*
X89903457Y-82055630D01*
X89903456Y-82055630D01*
X89903445Y-82055631D01*
X89645677Y-82104403D01*
X89645672Y-82104404D01*
X89613399Y-82115697D01*
X89398026Y-82191059D01*
X89398024Y-82191059D01*
X89398021Y-82191061D01*
X89166071Y-82313651D01*
X88954968Y-82469450D01*
X88769450Y-82654968D01*
X88613651Y-82866071D01*
X88491061Y-83098021D01*
X88491059Y-83098024D01*
X88491059Y-83098026D01*
X88484141Y-83117796D01*
X88404404Y-83345672D01*
X88404403Y-83345677D01*
X88355631Y-83603445D01*
X88355630Y-83603456D01*
X88355630Y-83603457D01*
X88349500Y-83712608D01*
X88349500Y-86887392D01*
X88351289Y-86919242D01*
X88355630Y-86996541D01*
X88355631Y-86996554D01*
X88404403Y-87254322D01*
X88404404Y-87254327D01*
X88404405Y-87254332D01*
X88404406Y-87254333D01*
X88491059Y-87501974D01*
X88491060Y-87501977D01*
X88491061Y-87501978D01*
X88613651Y-87733929D01*
X88613654Y-87733933D01*
X88720270Y-87878394D01*
X88744241Y-87944021D01*
X88744500Y-87952026D01*
X88744500Y-88493907D01*
X88744541Y-88495572D01*
X88744808Y-88506450D01*
X88745406Y-88518618D01*
X88746325Y-88531086D01*
X88763745Y-88707958D01*
X88763751Y-88708009D01*
X88767421Y-88732756D01*
X88767427Y-88732785D01*
X88772169Y-88756627D01*
X88778249Y-88780899D01*
X88778256Y-88780924D01*
X88778259Y-88780936D01*
X88821572Y-88923720D01*
X88828079Y-88945171D01*
X88836523Y-88968772D01*
X88836524Y-88968775D01*
X88845826Y-88991231D01*
X88856550Y-89013905D01*
X88856557Y-89013919D01*
X88937430Y-89165220D01*
X88937456Y-89165267D01*
X88950331Y-89186747D01*
X88963807Y-89206917D01*
X88963853Y-89206983D01*
X88977422Y-89225277D01*
X88978773Y-89227098D01*
X89041338Y-89303334D01*
X89087644Y-89359758D01*
X89104473Y-89378326D01*
X89121672Y-89395525D01*
X89140240Y-89412354D01*
X89140245Y-89412358D01*
X89272901Y-89521226D01*
X89272916Y-89521237D01*
X89293015Y-89536145D01*
X89293037Y-89536160D01*
X89293042Y-89536164D01*
X89293048Y-89536168D01*
X89293081Y-89536191D01*
X89313251Y-89549667D01*
X89334731Y-89562542D01*
X89334747Y-89562551D01*
X89334759Y-89562558D01*
X89334778Y-89562568D01*
X89486079Y-89643441D01*
X89486093Y-89643448D01*
X89486097Y-89643450D01*
X89486101Y-89643452D01*
X89508762Y-89654170D01*
X89531220Y-89663473D01*
X89554834Y-89671922D01*
X89719057Y-89721738D01*
X89743381Y-89727831D01*
X89748663Y-89728882D01*
X89810575Y-89761265D01*
X89845152Y-89821980D01*
X89841414Y-89891749D01*
X89800550Y-89948422D01*
X89735532Y-89974006D01*
X89724476Y-89974500D01*
X89504428Y-89974500D01*
X89495582Y-89974184D01*
X89299002Y-89960124D01*
X89281490Y-89957606D01*
X89093255Y-89916658D01*
X89076279Y-89911674D01*
X88895776Y-89844349D01*
X88879683Y-89836999D01*
X88710607Y-89744677D01*
X88695724Y-89735112D01*
X88541507Y-89619667D01*
X88528136Y-89608081D01*
X88391918Y-89471863D01*
X88380332Y-89458492D01*
X88264887Y-89304275D01*
X88255322Y-89289392D01*
X88245358Y-89271145D01*
X88162999Y-89120315D01*
X88155650Y-89104223D01*
X88113506Y-88991231D01*
X88088322Y-88923712D01*
X88083343Y-88906753D01*
X88042392Y-88718506D01*
X88039875Y-88700997D01*
X88036509Y-88653938D01*
X88025816Y-88504418D01*
X88025500Y-88495572D01*
X88025500Y-65504427D01*
X88025816Y-65495581D01*
X88031950Y-65409815D01*
X88039875Y-65298996D01*
X88042393Y-65281490D01*
X88049625Y-65248247D01*
X88083344Y-65093242D01*
X88088321Y-65076291D01*
X88155652Y-64895771D01*
X88162997Y-64879689D01*
X88255326Y-64710599D01*
X88264882Y-64695730D01*
X88380337Y-64541500D01*
X88391911Y-64528143D01*
X88528143Y-64391911D01*
X88541500Y-64380337D01*
X88695730Y-64264882D01*
X88710599Y-64255326D01*
X88879689Y-64162997D01*
X88895771Y-64155652D01*
X89047015Y-64099240D01*
X89116706Y-64094257D01*
X89178029Y-64127742D01*
G37*
%TD.AperFunction*%
%TA.AperFunction,Conductor*%
G36*
X102410618Y-86148398D02*
G01*
X102447619Y-86167092D01*
X102462118Y-86177793D01*
X102496238Y-86189732D01*
X102590299Y-86222646D01*
X102620730Y-86225500D01*
X102620734Y-86225500D01*
X103129270Y-86225500D01*
X103159699Y-86222646D01*
X103167073Y-86221036D01*
X103167349Y-86222304D01*
X103229312Y-86219135D01*
X103289943Y-86253858D01*
X103322176Y-86315848D01*
X103324500Y-86339741D01*
X103324500Y-86660258D01*
X103304815Y-86727297D01*
X103252011Y-86773052D01*
X103182853Y-86782996D01*
X103160307Y-86777486D01*
X103159699Y-86777353D01*
X103129270Y-86774500D01*
X103129266Y-86774500D01*
X102620734Y-86774500D01*
X102620730Y-86774500D01*
X102590300Y-86777353D01*
X102590298Y-86777353D01*
X102462119Y-86822206D01*
X102462117Y-86822207D01*
X102352850Y-86902850D01*
X102272207Y-87012117D01*
X102272206Y-87012119D01*
X102227353Y-87140298D01*
X102227353Y-87140300D01*
X102224500Y-87170730D01*
X102224500Y-87829269D01*
X102227353Y-87859699D01*
X102227353Y-87859701D01*
X102256859Y-87944021D01*
X102272207Y-87987882D01*
X102352850Y-88097150D01*
X102462118Y-88177793D01*
X102497610Y-88190212D01*
X102590299Y-88222646D01*
X102620730Y-88225500D01*
X102620734Y-88225500D01*
X103129270Y-88225500D01*
X103159699Y-88222646D01*
X103159701Y-88222646D01*
X103252390Y-88190212D01*
X103284144Y-88179100D01*
X103353921Y-88175538D01*
X103412779Y-88208461D01*
X103571510Y-88367191D01*
X103719531Y-88515212D01*
X103784788Y-88580469D01*
X103784791Y-88580470D01*
X103784794Y-88580473D01*
X103864706Y-88626611D01*
X103864707Y-88626611D01*
X103864712Y-88626614D01*
X103953856Y-88650500D01*
X103953858Y-88650500D01*
X104888080Y-88650500D01*
X104888082Y-88650500D01*
X104977226Y-88626614D01*
X105000998Y-88612889D01*
X105057150Y-88580470D01*
X106300800Y-87336818D01*
X106362123Y-87303334D01*
X106388481Y-87300500D01*
X106994798Y-87300500D01*
X107061837Y-87320185D01*
X107107592Y-87372989D01*
X107117536Y-87442147D01*
X107094065Y-87498811D01*
X107078373Y-87519771D01*
X107078372Y-87519774D01*
X107041752Y-87617956D01*
X107030587Y-87647889D01*
X107024500Y-87704498D01*
X107024500Y-88295481D01*
X107024501Y-88295492D01*
X107028597Y-88333596D01*
X107016189Y-88402355D01*
X106968577Y-88453491D01*
X106900877Y-88470768D01*
X106870375Y-88465825D01*
X106814773Y-88449500D01*
X106814772Y-88449500D01*
X106685228Y-88449500D01*
X106685226Y-88449500D01*
X106560935Y-88485994D01*
X106560932Y-88485995D01*
X106560931Y-88485996D01*
X106529109Y-88506447D01*
X106451950Y-88556033D01*
X106367118Y-88653937D01*
X106367117Y-88653938D01*
X106313302Y-88771774D01*
X106294867Y-88900000D01*
X106313302Y-89028225D01*
X106367117Y-89146061D01*
X106367118Y-89146063D01*
X106451951Y-89243967D01*
X106560931Y-89314004D01*
X106682598Y-89349727D01*
X106735342Y-89381023D01*
X106794531Y-89440212D01*
X106859788Y-89505469D01*
X106859791Y-89505470D01*
X106859794Y-89505473D01*
X106939706Y-89551611D01*
X106939707Y-89551611D01*
X106939712Y-89551614D01*
X107028856Y-89575500D01*
X107028858Y-89575500D01*
X117771142Y-89575500D01*
X117771144Y-89575500D01*
X117860288Y-89551614D01*
X117860292Y-89551612D01*
X117887046Y-89536165D01*
X117887048Y-89536164D01*
X117940212Y-89505470D01*
X118108863Y-89336819D01*
X118170186Y-89303334D01*
X118196544Y-89300500D01*
X126096142Y-89300500D01*
X126096144Y-89300500D01*
X126185288Y-89276614D01*
X126194761Y-89271145D01*
X126194765Y-89271143D01*
X126265205Y-89230474D01*
X126265204Y-89230474D01*
X126265212Y-89230470D01*
X127762819Y-87732863D01*
X127824142Y-87699378D01*
X127893834Y-87704362D01*
X127949767Y-87746234D01*
X127974184Y-87811698D01*
X127974500Y-87820544D01*
X127974500Y-88495572D01*
X127974184Y-88504418D01*
X127960124Y-88700997D01*
X127957606Y-88718509D01*
X127916658Y-88906744D01*
X127911674Y-88923720D01*
X127844349Y-89104223D01*
X127836999Y-89120316D01*
X127744677Y-89289392D01*
X127735112Y-89304275D01*
X127619667Y-89458492D01*
X127608081Y-89471863D01*
X127471863Y-89608081D01*
X127458492Y-89619667D01*
X127304275Y-89735112D01*
X127289392Y-89744677D01*
X127120316Y-89836999D01*
X127104223Y-89844349D01*
X126923720Y-89911674D01*
X126906744Y-89916658D01*
X126718509Y-89957606D01*
X126700997Y-89960124D01*
X126504418Y-89974184D01*
X126495572Y-89974500D01*
X98775523Y-89974500D01*
X98708484Y-89954815D01*
X98662729Y-89902011D01*
X98652785Y-89832853D01*
X98681810Y-89769297D01*
X98740588Y-89731523D01*
X98751336Y-89728882D01*
X98754876Y-89728177D01*
X98756618Y-89727831D01*
X98780942Y-89721738D01*
X98945165Y-89671922D01*
X98968779Y-89663473D01*
X98991237Y-89654170D01*
X99013898Y-89643452D01*
X99165240Y-89562558D01*
X99186745Y-89549669D01*
X99206957Y-89536164D01*
X99227098Y-89521226D01*
X99359754Y-89412358D01*
X99378332Y-89395520D01*
X99395520Y-89378332D01*
X99408075Y-89364479D01*
X99431058Y-89344653D01*
X99485666Y-89308166D01*
X99541051Y-89225276D01*
X99544044Y-89210227D01*
X99559305Y-89170667D01*
X99562558Y-89165240D01*
X99643452Y-89013898D01*
X99654170Y-88991237D01*
X99663473Y-88968779D01*
X99671922Y-88945165D01*
X99721738Y-88780942D01*
X99727831Y-88756618D01*
X99732573Y-88732777D01*
X99736252Y-88707978D01*
X99753673Y-88531105D01*
X99754595Y-88518596D01*
X99755192Y-88506442D01*
X99755500Y-88493907D01*
X99755500Y-87592303D01*
X99775185Y-87525264D01*
X99827989Y-87479509D01*
X99897147Y-87469565D01*
X99903686Y-87470684D01*
X99915326Y-87473000D01*
X100954676Y-87473000D01*
X100954677Y-87472999D01*
X101027740Y-87458466D01*
X101110601Y-87403101D01*
X101165966Y-87320240D01*
X101180500Y-87247174D01*
X101180500Y-86866119D01*
X101200185Y-86799080D01*
X101252989Y-86753325D01*
X101292345Y-86742716D01*
X101357978Y-86736252D01*
X101382777Y-86732573D01*
X101406618Y-86727831D01*
X101430942Y-86721738D01*
X101595165Y-86671922D01*
X101618779Y-86663473D01*
X101641237Y-86654170D01*
X101663898Y-86643452D01*
X101701441Y-86623385D01*
X101810408Y-86565141D01*
X101868861Y-86550499D01*
X101900739Y-86550499D01*
X101900739Y-86550498D01*
X101946454Y-86543258D01*
X101992170Y-86536018D01*
X101992171Y-86536018D01*
X101992172Y-86536017D01*
X101992175Y-86536017D01*
X102102391Y-86479859D01*
X102189859Y-86392391D01*
X102246017Y-86282175D01*
X102246017Y-86282173D01*
X102246018Y-86282172D01*
X102251515Y-86247466D01*
X102281444Y-86184331D01*
X102340756Y-86147400D01*
X102410618Y-86148398D01*
G37*
%TD.AperFunction*%
%TA.AperFunction,Conductor*%
G36*
X117765703Y-78951832D02*
G01*
X117772181Y-78957864D01*
X117941178Y-79126861D01*
X117974663Y-79188184D01*
X117976202Y-79232418D01*
X117969500Y-79278418D01*
X117969500Y-79721582D01*
X117980418Y-79796518D01*
X117980418Y-79796519D01*
X117980419Y-79796521D01*
X118036921Y-79912099D01*
X118036923Y-79912102D01*
X118127897Y-80003076D01*
X118127900Y-80003078D01*
X118234433Y-80055158D01*
X118243482Y-80059582D01*
X118318418Y-80070500D01*
X118318423Y-80070500D01*
X118661577Y-80070500D01*
X118661582Y-80070500D01*
X118736518Y-80059582D01*
X118808281Y-80024499D01*
X118852099Y-80003078D01*
X118852102Y-80003076D01*
X118912319Y-79942860D01*
X118973642Y-79909375D01*
X119043334Y-79914359D01*
X119087681Y-79942860D01*
X119147896Y-80003075D01*
X119147897Y-80003075D01*
X119147898Y-80003076D01*
X119221586Y-80039100D01*
X119273167Y-80086227D01*
X119291082Y-80153761D01*
X119269641Y-80220259D01*
X119215653Y-80264610D01*
X119167126Y-80274500D01*
X118954519Y-80274500D01*
X118954509Y-80274501D01*
X118897885Y-80280587D01*
X118769773Y-80328372D01*
X118660313Y-80410313D01*
X118578373Y-80519771D01*
X118570030Y-80542139D01*
X118537770Y-80628632D01*
X118530587Y-80647889D01*
X118524500Y-80704498D01*
X118524500Y-81295481D01*
X118524501Y-81295490D01*
X118530587Y-81352114D01*
X118548635Y-81400500D01*
X118578372Y-81480226D01*
X118578376Y-81480231D01*
X118582623Y-81488010D01*
X118581646Y-81488542D01*
X118601463Y-81536380D01*
X118606501Y-81571422D01*
X118606502Y-81571426D01*
X118653067Y-81673387D01*
X118660317Y-81689262D01*
X118733823Y-81774094D01*
X118741959Y-81783484D01*
X118745150Y-81787166D01*
X118854130Y-81857203D01*
X118854137Y-81857205D01*
X118978424Y-81893698D01*
X118978426Y-81893699D01*
X118978427Y-81893699D01*
X119107972Y-81893699D01*
X119107972Y-81893698D01*
X119162280Y-81877752D01*
X119232263Y-81857205D01*
X119232264Y-81857204D01*
X119232268Y-81857203D01*
X119304359Y-81810872D01*
X119371397Y-81791189D01*
X119438434Y-81810872D01*
X119510931Y-81857463D01*
X119635225Y-81893958D01*
X119635227Y-81893959D01*
X119635228Y-81893959D01*
X119764773Y-81893959D01*
X119764773Y-81893958D01*
X119889069Y-81857463D01*
X119998049Y-81787426D01*
X120082882Y-81689522D01*
X120136697Y-81571685D01*
X120155133Y-81443459D01*
X120136697Y-81315233D01*
X120082882Y-81197396D01*
X120082879Y-81197392D01*
X120081330Y-81195604D01*
X120080347Y-81193452D01*
X120078087Y-81189935D01*
X120078592Y-81189609D01*
X120052307Y-81132048D01*
X120062252Y-81062890D01*
X120072250Y-81047342D01*
X120071286Y-81046723D01*
X120076076Y-81039267D01*
X120076081Y-81039262D01*
X120129896Y-80921425D01*
X120148332Y-80793199D01*
X120129896Y-80664973D01*
X120076081Y-80547136D01*
X119991248Y-80449232D01*
X119882268Y-80379195D01*
X119882264Y-80379193D01*
X119882263Y-80379193D01*
X119757973Y-80342699D01*
X119757971Y-80342699D01*
X119738112Y-80342699D01*
X119689020Y-80330169D01*
X119688535Y-80331471D01*
X119632796Y-80310681D01*
X119576862Y-80268810D01*
X119552446Y-80203345D01*
X119567298Y-80135072D01*
X119616704Y-80085667D01*
X119676130Y-80070500D01*
X119681577Y-80070500D01*
X119681582Y-80070500D01*
X119756518Y-80059582D01*
X119828281Y-80024499D01*
X119872099Y-80003078D01*
X119872102Y-80003076D01*
X119963076Y-79912102D01*
X119963078Y-79912099D01*
X120000439Y-79835675D01*
X120019582Y-79796518D01*
X120030500Y-79721582D01*
X120030500Y-79462004D01*
X120050185Y-79394965D01*
X120102989Y-79349210D01*
X120172147Y-79339266D01*
X120186581Y-79342226D01*
X120217459Y-79350500D01*
X120217460Y-79350500D01*
X120309747Y-79350500D01*
X123844456Y-79350500D01*
X123911495Y-79370185D01*
X123957250Y-79422989D01*
X123967194Y-79492147D01*
X123938169Y-79555703D01*
X123932137Y-79562181D01*
X123608232Y-79886085D01*
X123608230Y-79886088D01*
X123576863Y-79940418D01*
X123564863Y-79961202D01*
X123562085Y-79966013D01*
X123542502Y-80039099D01*
X123538200Y-80055156D01*
X123538200Y-86750174D01*
X123549629Y-86792826D01*
X123559645Y-86830208D01*
X123562087Y-86839321D01*
X123608227Y-86919238D01*
X123608229Y-86919241D01*
X123608230Y-86919242D01*
X124383158Y-87694170D01*
X124452030Y-87733933D01*
X124463082Y-87740314D01*
X124552226Y-87764200D01*
X124552228Y-87764200D01*
X125537442Y-87764200D01*
X125537444Y-87764200D01*
X125626588Y-87740314D01*
X125637640Y-87733933D01*
X125706512Y-87694170D01*
X125951403Y-87449277D01*
X126012722Y-87415795D01*
X126054036Y-87413866D01*
X126056775Y-87414198D01*
X126056780Y-87414200D01*
X126056785Y-87414200D01*
X126213220Y-87414200D01*
X126365114Y-87376761D01*
X126503635Y-87304060D01*
X126620732Y-87200321D01*
X126709600Y-87071573D01*
X126765074Y-86925299D01*
X126783931Y-86770000D01*
X126765074Y-86614701D01*
X126765073Y-86614699D01*
X126765073Y-86614697D01*
X126735225Y-86535996D01*
X126709600Y-86468427D01*
X126620732Y-86339679D01*
X126620729Y-86339676D01*
X126620727Y-86339674D01*
X126498021Y-86230966D01*
X126499217Y-86229615D01*
X126461253Y-86182767D01*
X126453593Y-86113318D01*
X126484696Y-86050754D01*
X126498108Y-86039132D01*
X126498021Y-86039034D01*
X126567335Y-85977627D01*
X126620732Y-85930321D01*
X126709600Y-85801573D01*
X126765074Y-85655299D01*
X126783931Y-85500000D01*
X126774614Y-85423276D01*
X126786074Y-85354357D01*
X126810026Y-85320654D01*
X127187820Y-84942861D01*
X127249142Y-84909377D01*
X127318834Y-84914361D01*
X127374767Y-84956233D01*
X127399184Y-85021697D01*
X127399500Y-85030543D01*
X127399500Y-87053456D01*
X127379815Y-87120495D01*
X127363181Y-87141137D01*
X125941137Y-88563181D01*
X125879814Y-88596666D01*
X125853456Y-88599500D01*
X120005735Y-88599500D01*
X119938696Y-88579815D01*
X119892941Y-88527011D01*
X119882997Y-88457853D01*
X119889551Y-88432172D01*
X119919412Y-88352114D01*
X119921687Y-88330944D01*
X119925499Y-88295501D01*
X119925499Y-88295492D01*
X119925500Y-88295485D01*
X119925499Y-87904719D01*
X119934812Y-87861914D01*
X119934199Y-87861734D01*
X119936697Y-87853227D01*
X119945042Y-87795182D01*
X119955133Y-87725000D01*
X119936697Y-87596774D01*
X119882882Y-87478937D01*
X119798049Y-87381033D01*
X119689069Y-87310996D01*
X119689065Y-87310994D01*
X119689064Y-87310994D01*
X119564774Y-87274500D01*
X119564772Y-87274500D01*
X119435228Y-87274500D01*
X119435227Y-87274500D01*
X118954518Y-87274500D01*
X118954509Y-87274501D01*
X118897885Y-87280587D01*
X118769773Y-87328372D01*
X118660313Y-87410313D01*
X118578373Y-87519771D01*
X118578372Y-87519774D01*
X118541752Y-87617956D01*
X118530587Y-87647889D01*
X118524500Y-87704498D01*
X118524500Y-88092245D01*
X118504815Y-88159284D01*
X118452011Y-88205039D01*
X118400500Y-88216245D01*
X117473176Y-88216245D01*
X117406137Y-88196560D01*
X117385495Y-88179926D01*
X117370951Y-88165382D01*
X117337466Y-88104059D01*
X117334632Y-88077701D01*
X117334632Y-87819828D01*
X117319594Y-87724881D01*
X117319593Y-87724879D01*
X117319593Y-87724877D01*
X117261278Y-87610427D01*
X117261276Y-87610425D01*
X117261273Y-87610421D01*
X117170455Y-87519603D01*
X117170451Y-87519600D01*
X117170450Y-87519599D01*
X117056000Y-87461284D01*
X117055998Y-87461283D01*
X117055995Y-87461282D01*
X116961048Y-87446245D01*
X116472216Y-87446245D01*
X116472210Y-87446245D01*
X116465301Y-87447339D01*
X116396008Y-87438381D01*
X116358228Y-87412546D01*
X116319319Y-87373637D01*
X116285834Y-87312314D01*
X116283000Y-87285956D01*
X116283000Y-86115775D01*
X116302685Y-86048736D01*
X116350705Y-86005290D01*
X116361088Y-86000000D01*
X117944867Y-86000000D01*
X117963302Y-86128225D01*
X118008402Y-86226978D01*
X118017118Y-86246063D01*
X118098237Y-86339681D01*
X118101952Y-86343968D01*
X118146046Y-86372306D01*
X118191801Y-86425109D01*
X118195187Y-86433284D01*
X118203371Y-86455225D01*
X118213253Y-86468426D01*
X118285313Y-86564687D01*
X118352126Y-86614702D01*
X118390516Y-86643441D01*
X118394774Y-86646628D01*
X118522886Y-86694412D01*
X118579515Y-86700500D01*
X119520484Y-86700499D01*
X119577114Y-86694412D01*
X119705226Y-86646628D01*
X119814687Y-86564687D01*
X119896628Y-86455226D01*
X119944412Y-86327114D01*
X119947845Y-86295182D01*
X119950499Y-86270500D01*
X119950499Y-86270494D01*
X119950500Y-86270485D01*
X119950499Y-86041097D01*
X119951761Y-86023448D01*
X119955133Y-86000000D01*
X119951761Y-85976548D01*
X119950499Y-85958901D01*
X119950499Y-85729518D01*
X119950498Y-85729509D01*
X119950013Y-85725001D01*
X119944412Y-85672886D01*
X119942055Y-85666568D01*
X119924924Y-85620638D01*
X119896628Y-85544774D01*
X119814687Y-85435313D01*
X119748911Y-85386074D01*
X119705228Y-85353373D01*
X119705226Y-85353372D01*
X119577114Y-85305588D01*
X119577112Y-85305587D01*
X119577110Y-85305587D01*
X119520493Y-85299500D01*
X118579518Y-85299500D01*
X118579509Y-85299501D01*
X118522885Y-85305587D01*
X118394773Y-85353372D01*
X118285313Y-85435313D01*
X118203372Y-85544773D01*
X118203369Y-85544778D01*
X118195187Y-85566715D01*
X118153314Y-85622647D01*
X118146048Y-85627692D01*
X118101954Y-85656030D01*
X118101949Y-85656034D01*
X118017118Y-85753937D01*
X118017117Y-85753938D01*
X117963302Y-85871774D01*
X117944867Y-86000000D01*
X116361088Y-86000000D01*
X116386318Y-85987146D01*
X116477146Y-85896318D01*
X116535461Y-85781868D01*
X116543753Y-85729518D01*
X116550500Y-85686916D01*
X116550500Y-85313083D01*
X116535462Y-85218136D01*
X116535461Y-85218134D01*
X116535461Y-85218132D01*
X116477146Y-85103682D01*
X116477144Y-85103680D01*
X116477141Y-85103676D01*
X116386319Y-85012854D01*
X116368201Y-85003622D01*
X116317407Y-84955646D01*
X116300500Y-84893139D01*
X116300500Y-83329683D01*
X116320185Y-83262644D01*
X116330780Y-83248487D01*
X116332882Y-83246063D01*
X116386697Y-83128226D01*
X116405133Y-83000000D01*
X117994867Y-83000000D01*
X118013302Y-83128225D01*
X118067117Y-83246061D01*
X118067120Y-83246067D01*
X118154723Y-83347166D01*
X118177191Y-83385034D01*
X118203371Y-83455225D01*
X118209413Y-83463296D01*
X118285313Y-83564687D01*
X118394774Y-83646628D01*
X118522886Y-83694412D01*
X118579515Y-83700500D01*
X119520484Y-83700499D01*
X119577114Y-83694412D01*
X119705226Y-83646628D01*
X119814687Y-83564687D01*
X119896628Y-83455226D01*
X119944412Y-83327114D01*
X119949108Y-83283434D01*
X119950499Y-83270501D01*
X119950499Y-83270494D01*
X119950500Y-83270485D01*
X119950499Y-82729516D01*
X119944412Y-82672886D01*
X119934997Y-82647645D01*
X119919549Y-82606228D01*
X119896628Y-82544774D01*
X119814687Y-82435313D01*
X119748911Y-82386074D01*
X119705228Y-82353373D01*
X119705226Y-82353372D01*
X119577114Y-82305588D01*
X119577112Y-82305587D01*
X119577110Y-82305587D01*
X119520493Y-82299500D01*
X118579518Y-82299500D01*
X118579509Y-82299501D01*
X118522885Y-82305587D01*
X118394773Y-82353372D01*
X118285313Y-82435313D01*
X118203372Y-82544773D01*
X118203370Y-82544776D01*
X118177190Y-82614967D01*
X118154723Y-82652834D01*
X118151951Y-82656032D01*
X118151951Y-82656033D01*
X118147054Y-82661685D01*
X118067118Y-82753937D01*
X118067117Y-82753938D01*
X118013302Y-82871774D01*
X117994867Y-83000000D01*
X116405133Y-83000000D01*
X116399175Y-82958565D01*
X116409118Y-82889410D01*
X116434233Y-82853238D01*
X116471620Y-82815852D01*
X116545863Y-82741609D01*
X116592007Y-82661685D01*
X116615893Y-82572541D01*
X116615893Y-82480253D01*
X116615893Y-82107459D01*
X116592007Y-82018315D01*
X116583372Y-82003359D01*
X116545863Y-81938391D01*
X116217002Y-81609530D01*
X116217001Y-81609529D01*
X116216998Y-81609527D01*
X116137080Y-81563387D01*
X116137079Y-81563386D01*
X116137078Y-81563386D01*
X116047934Y-81539500D01*
X116047933Y-81539500D01*
X115825540Y-81539500D01*
X115758501Y-81519815D01*
X115737859Y-81503181D01*
X115554209Y-81319531D01*
X115554204Y-81319527D01*
X115474286Y-81273387D01*
X115474285Y-81273386D01*
X115474284Y-81273386D01*
X115385140Y-81249500D01*
X115385139Y-81249500D01*
X113548737Y-81249500D01*
X113481698Y-81229815D01*
X113435943Y-81177011D01*
X113425999Y-81107853D01*
X113426620Y-81103534D01*
X113436934Y-81031801D01*
X113426233Y-80957373D01*
X113436177Y-80888215D01*
X113481932Y-80835412D01*
X113548971Y-80815727D01*
X113583905Y-80820750D01*
X113685225Y-80850499D01*
X113685227Y-80850500D01*
X113685228Y-80850500D01*
X113814773Y-80850500D01*
X113814773Y-80850499D01*
X113939069Y-80814004D01*
X114048049Y-80743967D01*
X114132882Y-80646063D01*
X114186697Y-80528226D01*
X114205133Y-80400000D01*
X114186697Y-80271774D01*
X114137238Y-80163475D01*
X114132883Y-80153939D01*
X114132882Y-80153938D01*
X114132882Y-80153937D01*
X114130784Y-80151516D01*
X114129456Y-80148607D01*
X114128089Y-80146480D01*
X114128395Y-80146283D01*
X114101762Y-80087961D01*
X114100500Y-80070317D01*
X114100500Y-79949944D01*
X114120185Y-79882905D01*
X114140891Y-79861582D01*
X114139640Y-79860331D01*
X114179140Y-79820831D01*
X114227206Y-79772765D01*
X114272585Y-79669991D01*
X114275500Y-79644865D01*
X114275499Y-79455136D01*
X114272585Y-79430009D01*
X114227206Y-79327235D01*
X114212152Y-79312181D01*
X114178667Y-79250858D01*
X114183651Y-79181166D01*
X114225523Y-79125233D01*
X114290987Y-79100816D01*
X114299833Y-79100500D01*
X114449289Y-79100500D01*
X114516328Y-79120185D01*
X114536970Y-79136819D01*
X114613121Y-79212970D01*
X114688722Y-79256618D01*
X114693045Y-79259114D01*
X114782189Y-79283000D01*
X114884224Y-79283000D01*
X114951263Y-79302685D01*
X114994707Y-79350703D01*
X115004634Y-79370185D01*
X115012855Y-79386319D01*
X115012858Y-79386323D01*
X115103676Y-79477141D01*
X115103680Y-79477144D01*
X115103682Y-79477146D01*
X115218132Y-79535461D01*
X115218134Y-79535461D01*
X115218136Y-79535462D01*
X115313083Y-79550500D01*
X115313084Y-79550500D01*
X115686916Y-79550500D01*
X115781863Y-79535462D01*
X115781863Y-79535461D01*
X115781868Y-79535461D01*
X115896318Y-79477146D01*
X115987146Y-79386318D01*
X115987724Y-79385182D01*
X115996375Y-79368206D01*
X116044348Y-79317410D01*
X116106860Y-79300500D01*
X116393140Y-79300500D01*
X116460179Y-79320185D01*
X116503625Y-79368206D01*
X116512851Y-79386314D01*
X116512852Y-79386315D01*
X116512854Y-79386318D01*
X116603682Y-79477146D01*
X116718132Y-79535461D01*
X116718134Y-79535461D01*
X116718136Y-79535462D01*
X116813083Y-79550500D01*
X116813084Y-79550500D01*
X117186916Y-79550500D01*
X117281863Y-79535462D01*
X117281863Y-79535461D01*
X117281868Y-79535461D01*
X117396318Y-79477146D01*
X117487146Y-79386318D01*
X117545461Y-79271868D01*
X117547877Y-79256618D01*
X117560500Y-79176916D01*
X117560500Y-79045545D01*
X117580185Y-78978506D01*
X117632989Y-78932751D01*
X117702147Y-78922807D01*
X117765703Y-78951832D01*
G37*
%TD.AperFunction*%
%TA.AperFunction,Conductor*%
G36*
X106906178Y-81794122D02*
G01*
X106906547Y-81792748D01*
X106912413Y-81794319D01*
X106913100Y-81792801D01*
X106916749Y-81794452D01*
X106920950Y-81796608D01*
X106922333Y-81796978D01*
X106922334Y-81796979D01*
X107011478Y-81820865D01*
X107103761Y-81820865D01*
X108384091Y-81820865D01*
X108451130Y-81840550D01*
X108496885Y-81893354D01*
X108506829Y-81962512D01*
X108477804Y-82026068D01*
X108471772Y-82032546D01*
X106135341Y-84368976D01*
X106082595Y-84400272D01*
X105960934Y-84435994D01*
X105851950Y-84506033D01*
X105767118Y-84603937D01*
X105767117Y-84603938D01*
X105713302Y-84721774D01*
X105694867Y-84850000D01*
X105713302Y-84978225D01*
X105766377Y-85094441D01*
X105767118Y-85096063D01*
X105851951Y-85193967D01*
X105862596Y-85200808D01*
X105895027Y-85221650D01*
X105940782Y-85274454D01*
X105950726Y-85343613D01*
X105921701Y-85407169D01*
X105915669Y-85413647D01*
X105385174Y-85944142D01*
X105323851Y-85977627D01*
X105254159Y-85972643D01*
X105198226Y-85930771D01*
X105173809Y-85865307D01*
X105174034Y-85844889D01*
X105175500Y-85829266D01*
X105175500Y-85170734D01*
X105174877Y-85164095D01*
X105172646Y-85140300D01*
X105172646Y-85140298D01*
X105128051Y-85012855D01*
X105127793Y-85012118D01*
X105047150Y-84902850D01*
X104937882Y-84822207D01*
X104937880Y-84822206D01*
X104809700Y-84777353D01*
X104779270Y-84774500D01*
X104779266Y-84774500D01*
X104270734Y-84774500D01*
X104270730Y-84774500D01*
X104240300Y-84777353D01*
X104240298Y-84777353D01*
X104112119Y-84822206D01*
X104112117Y-84822207D01*
X104002850Y-84902850D01*
X103922207Y-85012117D01*
X103922206Y-85012119D01*
X103877353Y-85140298D01*
X103877353Y-85140300D01*
X103874500Y-85170730D01*
X103874500Y-85403456D01*
X103854815Y-85470495D01*
X103838181Y-85491137D01*
X103737181Y-85592137D01*
X103675858Y-85625622D01*
X103606166Y-85620638D01*
X103550233Y-85578766D01*
X103525816Y-85513302D01*
X103525500Y-85504456D01*
X103525500Y-85170730D01*
X103522646Y-85140300D01*
X103522646Y-85140298D01*
X103478051Y-85012855D01*
X103477793Y-85012118D01*
X103397150Y-84902850D01*
X103287882Y-84822207D01*
X103287880Y-84822206D01*
X103159700Y-84777353D01*
X103129270Y-84774500D01*
X103129266Y-84774500D01*
X102922354Y-84774500D01*
X102855315Y-84754815D01*
X102809560Y-84702011D01*
X102799616Y-84632853D01*
X102828641Y-84569297D01*
X102887419Y-84531523D01*
X102890345Y-84530751D01*
X102890334Y-84530708D01*
X102895886Y-84529219D01*
X102923562Y-84521804D01*
X102955207Y-84511062D01*
X103057691Y-84468612D01*
X103087663Y-84453832D01*
X103115697Y-84437647D01*
X103115711Y-84437637D01*
X103115717Y-84437634D01*
X103129857Y-84428185D01*
X103143487Y-84419079D01*
X103231494Y-84351550D01*
X103256623Y-84329513D01*
X103279513Y-84306623D01*
X103301550Y-84281494D01*
X103369079Y-84193487D01*
X103387647Y-84165697D01*
X103403832Y-84137663D01*
X103418612Y-84107691D01*
X103461062Y-84005207D01*
X103471804Y-83973562D01*
X103480182Y-83942296D01*
X103486703Y-83909517D01*
X103502253Y-83791410D01*
X103503892Y-83774771D01*
X103504953Y-83758585D01*
X103505500Y-83741873D01*
X103505500Y-83683125D01*
X103504953Y-83666413D01*
X103503892Y-83650227D01*
X103502253Y-83633588D01*
X103484148Y-83496072D01*
X103477628Y-83463294D01*
X103469250Y-83432027D01*
X103458507Y-83400380D01*
X103427982Y-83326688D01*
X103408570Y-83279821D01*
X103408562Y-83279803D01*
X103393782Y-83249831D01*
X103377588Y-83221784D01*
X103377587Y-83221782D01*
X103359039Y-83194023D01*
X103359034Y-83194017D01*
X103359030Y-83194011D01*
X103279583Y-83090472D01*
X103257546Y-83065343D01*
X103234658Y-83042455D01*
X103234657Y-83042454D01*
X103234654Y-83042451D01*
X103209534Y-83020421D01*
X103209530Y-83020418D01*
X103106000Y-82940977D01*
X103105993Y-82940972D01*
X103078199Y-82922401D01*
X103078197Y-82922400D01*
X103050169Y-82906218D01*
X103050168Y-82906217D01*
X103050162Y-82906214D01*
X103020195Y-82891436D01*
X103020177Y-82891428D01*
X102899621Y-82841492D01*
X102899610Y-82841488D01*
X102867973Y-82830749D01*
X102867972Y-82830748D01*
X102867970Y-82830748D01*
X102836702Y-82822370D01*
X102803924Y-82815851D01*
X102770098Y-82811397D01*
X102731090Y-82806262D01*
X102667193Y-82777995D01*
X102628723Y-82719670D01*
X102627892Y-82649805D01*
X102664965Y-82590582D01*
X102728171Y-82560804D01*
X102729281Y-82560636D01*
X102736518Y-82559582D01*
X102736519Y-82559581D01*
X102736521Y-82559581D01*
X102852099Y-82503078D01*
X102852102Y-82503076D01*
X102912319Y-82442860D01*
X102973642Y-82409375D01*
X103043334Y-82414359D01*
X103087681Y-82442860D01*
X103147897Y-82503076D01*
X103147900Y-82503078D01*
X103233196Y-82544776D01*
X103263482Y-82559582D01*
X103338418Y-82570500D01*
X103338423Y-82570500D01*
X103681577Y-82570500D01*
X103681582Y-82570500D01*
X103756518Y-82559582D01*
X103814310Y-82531329D01*
X103872099Y-82503078D01*
X103872102Y-82503076D01*
X103912319Y-82462860D01*
X103973642Y-82429375D01*
X104043334Y-82434359D01*
X104087681Y-82462860D01*
X104127897Y-82503076D01*
X104127900Y-82503078D01*
X104213196Y-82544776D01*
X104243482Y-82559582D01*
X104318418Y-82570500D01*
X104318423Y-82570500D01*
X104661577Y-82570500D01*
X104661582Y-82570500D01*
X104736518Y-82559582D01*
X104794310Y-82531329D01*
X104852099Y-82503078D01*
X104852102Y-82503076D01*
X104943076Y-82412102D01*
X104943078Y-82412099D01*
X104973192Y-82350500D01*
X104999582Y-82296518D01*
X105010500Y-82221582D01*
X105010500Y-82026544D01*
X105030185Y-81959505D01*
X105046819Y-81938863D01*
X105168713Y-81816969D01*
X105230036Y-81783484D01*
X105256394Y-81780650D01*
X106860296Y-81780650D01*
X106906178Y-81794122D01*
G37*
%TD.AperFunction*%
%TA.AperFunction,Conductor*%
G36*
X110496962Y-83491782D02*
G01*
X110531022Y-83514540D01*
X110531024Y-83514540D01*
X110531026Y-83514541D01*
X110604083Y-83529073D01*
X110604086Y-83529074D01*
X110604088Y-83529074D01*
X110895911Y-83529074D01*
X110922296Y-83523825D01*
X110968976Y-83514540D01*
X110968976Y-83514539D01*
X110975806Y-83513181D01*
X111024191Y-83513181D01*
X111104087Y-83529074D01*
X111104089Y-83529074D01*
X111395912Y-83529074D01*
X111422297Y-83523825D01*
X111468977Y-83514540D01*
X111468977Y-83514539D01*
X111475807Y-83513181D01*
X111524193Y-83513181D01*
X111531022Y-83514539D01*
X111531023Y-83514540D01*
X111577702Y-83523825D01*
X111604088Y-83529074D01*
X111604089Y-83529074D01*
X111895912Y-83529074D01*
X111922297Y-83523825D01*
X111968977Y-83514540D01*
X111968977Y-83514539D01*
X111975807Y-83513181D01*
X112024192Y-83513181D01*
X112104088Y-83529074D01*
X112104090Y-83529074D01*
X112395913Y-83529074D01*
X112415747Y-83525128D01*
X112468978Y-83514540D01*
X112468979Y-83514539D01*
X112475807Y-83513181D01*
X112524192Y-83513181D01*
X112531022Y-83514539D01*
X112531023Y-83514540D01*
X112567874Y-83521870D01*
X112599428Y-83528147D01*
X112661339Y-83560532D01*
X112695913Y-83621248D01*
X112696853Y-83625572D01*
X112711819Y-83700808D01*
X112711819Y-83749191D01*
X112695927Y-83829084D01*
X112695927Y-84120915D01*
X112711819Y-84200809D01*
X112711819Y-84249191D01*
X112695927Y-84329085D01*
X112695927Y-84620916D01*
X112711819Y-84700810D01*
X112711819Y-84749192D01*
X112695927Y-84829085D01*
X112695927Y-85120916D01*
X112711819Y-85200810D01*
X112711819Y-85249192D01*
X112695927Y-85329086D01*
X112695927Y-85620917D01*
X112711819Y-85700810D01*
X112711819Y-85749193D01*
X112696853Y-85824429D01*
X112664468Y-85886340D01*
X112603752Y-85920914D01*
X112599428Y-85921854D01*
X112524192Y-85936820D01*
X112475809Y-85936820D01*
X112395915Y-85920928D01*
X112395912Y-85920928D01*
X112104090Y-85920928D01*
X112104085Y-85920928D01*
X112024191Y-85936820D01*
X111975809Y-85936820D01*
X111895915Y-85920928D01*
X111895911Y-85920928D01*
X111604089Y-85920928D01*
X111604084Y-85920928D01*
X111524191Y-85936820D01*
X111475809Y-85936820D01*
X111395915Y-85920928D01*
X111395911Y-85920928D01*
X111104089Y-85920928D01*
X111104084Y-85920928D01*
X111024190Y-85936820D01*
X110975808Y-85936820D01*
X110895914Y-85920928D01*
X110895910Y-85920928D01*
X110604088Y-85920928D01*
X110604083Y-85920928D01*
X110524190Y-85936820D01*
X110475807Y-85936820D01*
X110400571Y-85921854D01*
X110338660Y-85889469D01*
X110304086Y-85828753D01*
X110303146Y-85824429D01*
X110288180Y-85749193D01*
X110288180Y-85700808D01*
X110289538Y-85693980D01*
X110289539Y-85693979D01*
X110304073Y-85620913D01*
X110304073Y-85329091D01*
X110304073Y-85329088D01*
X110288180Y-85249193D01*
X110288180Y-85200808D01*
X110294163Y-85170734D01*
X110304073Y-85120912D01*
X110304073Y-84829090D01*
X110303482Y-84826121D01*
X110293214Y-84774500D01*
X110289539Y-84756024D01*
X110289538Y-84756023D01*
X110288180Y-84749194D01*
X110288180Y-84700808D01*
X110304073Y-84620913D01*
X110304073Y-84329087D01*
X110288180Y-84249192D01*
X110288180Y-84200807D01*
X110289639Y-84193476D01*
X110304073Y-84120911D01*
X110304073Y-83829089D01*
X110289539Y-83756023D01*
X110289538Y-83756022D01*
X110288180Y-83749193D01*
X110288180Y-83700807D01*
X110289538Y-83693979D01*
X110289539Y-83693978D01*
X110304073Y-83620912D01*
X110304073Y-83594885D01*
X110323758Y-83527846D01*
X110376562Y-83482091D01*
X110445720Y-83472147D01*
X110496962Y-83491782D01*
G37*
%TD.AperFunction*%
%TA.AperFunction,Conductor*%
G36*
X125543334Y-79414359D02*
G01*
X125587681Y-79442860D01*
X125647897Y-79503076D01*
X125647900Y-79503078D01*
X125755547Y-79555703D01*
X125763482Y-79559582D01*
X125838418Y-79570500D01*
X126033456Y-79570500D01*
X126100495Y-79590185D01*
X126121137Y-79606819D01*
X126724481Y-80210162D01*
X126757966Y-80271485D01*
X126760800Y-80297843D01*
X126760800Y-84327155D01*
X126741115Y-84394194D01*
X126724481Y-84414836D01*
X126346681Y-84792636D01*
X126285358Y-84826121D01*
X126215666Y-84821137D01*
X126159733Y-84779265D01*
X126135316Y-84713801D01*
X126135000Y-84704955D01*
X126135000Y-84230000D01*
X125623785Y-84230000D01*
X125556746Y-84210315D01*
X125510991Y-84157511D01*
X125500689Y-84120946D01*
X125499078Y-84107681D01*
X125495074Y-84074701D01*
X125495073Y-84074699D01*
X125495073Y-84074697D01*
X125444862Y-83942303D01*
X125439600Y-83928427D01*
X125350732Y-83799679D01*
X125350729Y-83799676D01*
X125350727Y-83799674D01*
X125233636Y-83695940D01*
X125095112Y-83623238D01*
X124943220Y-83585800D01*
X124786780Y-83585800D01*
X124634887Y-83623238D01*
X124496366Y-83695939D01*
X124445427Y-83741067D01*
X124382193Y-83770788D01*
X124312930Y-83761604D01*
X124259627Y-83716432D01*
X124239207Y-83649612D01*
X124239200Y-83648251D01*
X124239200Y-80297843D01*
X124258885Y-80230804D01*
X124275519Y-80210162D01*
X124382795Y-80102886D01*
X124494666Y-79991014D01*
X124555987Y-79957531D01*
X124625678Y-79962515D01*
X124681612Y-80004386D01*
X124706029Y-80069851D01*
X124703963Y-80102886D01*
X124699500Y-80125324D01*
X124699500Y-81174678D01*
X124714032Y-81247735D01*
X124714033Y-81247739D01*
X124714034Y-81247740D01*
X124769399Y-81330601D01*
X124852260Y-81385966D01*
X124852264Y-81385967D01*
X124925321Y-81400499D01*
X124925324Y-81400500D01*
X124925326Y-81400500D01*
X125974676Y-81400500D01*
X125974677Y-81400499D01*
X126047740Y-81385966D01*
X126130601Y-81330601D01*
X126185966Y-81247740D01*
X126200500Y-81174674D01*
X126200500Y-80125326D01*
X126200500Y-80125324D01*
X126200500Y-80125323D01*
X126200499Y-80125321D01*
X126185967Y-80052264D01*
X126185966Y-80052260D01*
X126165221Y-80021213D01*
X126130601Y-79969399D01*
X126070887Y-79929500D01*
X126047739Y-79914033D01*
X126047735Y-79914032D01*
X125974677Y-79899500D01*
X125974674Y-79899500D01*
X124925326Y-79899500D01*
X124925325Y-79899500D01*
X124902886Y-79903963D01*
X124833295Y-79897734D01*
X124778118Y-79854870D01*
X124754875Y-79788980D01*
X124770944Y-79720983D01*
X124791009Y-79694671D01*
X124878864Y-79606816D01*
X124940186Y-79573334D01*
X124966543Y-79570500D01*
X125161577Y-79570500D01*
X125161582Y-79570500D01*
X125236518Y-79559582D01*
X125303143Y-79527011D01*
X125352099Y-79503078D01*
X125352102Y-79503076D01*
X125412319Y-79442860D01*
X125473642Y-79409375D01*
X125543334Y-79414359D01*
G37*
%TD.AperFunction*%
%TA.AperFunction,Conductor*%
G36*
X110321301Y-82389122D02*
G01*
X110367056Y-82441926D01*
X110378262Y-82493437D01*
X110378262Y-83037452D01*
X110358577Y-83104491D01*
X110305773Y-83150246D01*
X110236615Y-83160190D01*
X110185373Y-83140555D01*
X110151315Y-83117799D01*
X110151308Y-83117796D01*
X110078250Y-83103264D01*
X110078247Y-83103264D01*
X109019261Y-83103264D01*
X109019258Y-83103264D01*
X108946199Y-83117796D01*
X108946195Y-83117797D01*
X108863334Y-83173163D01*
X108807968Y-83256024D01*
X108807967Y-83256028D01*
X108793435Y-83329085D01*
X108793435Y-83620916D01*
X108809327Y-83700809D01*
X108809327Y-83749191D01*
X108793435Y-83829084D01*
X108793435Y-84000501D01*
X108773750Y-84067540D01*
X108720946Y-84113295D01*
X108669435Y-84124501D01*
X107670543Y-84124501D01*
X107603504Y-84104816D01*
X107557749Y-84052012D01*
X107547805Y-83982854D01*
X107576830Y-83919298D01*
X107582862Y-83912820D01*
X109089926Y-82405756D01*
X109151249Y-82372271D01*
X109177607Y-82369437D01*
X110254262Y-82369437D01*
X110321301Y-82389122D01*
G37*
%TD.AperFunction*%
%TA.AperFunction,Conductor*%
G36*
X121761884Y-64045185D02*
G01*
X121807639Y-64097989D01*
X121817583Y-64167147D01*
X121788558Y-64230703D01*
X121729780Y-64268477D01*
X121711032Y-64272438D01*
X121657762Y-64279452D01*
X121564076Y-64304554D01*
X121436112Y-64338842D01*
X121224123Y-64426650D01*
X121224109Y-64426657D01*
X121025382Y-64541392D01*
X120843338Y-64681081D01*
X120681081Y-64843338D01*
X120541392Y-65025382D01*
X120426657Y-65224109D01*
X120426650Y-65224123D01*
X120338842Y-65436112D01*
X120279453Y-65657759D01*
X120279451Y-65657770D01*
X120249500Y-65885258D01*
X120249500Y-66114741D01*
X120270910Y-66277354D01*
X120279452Y-66342238D01*
X120338842Y-66563887D01*
X120426650Y-66775876D01*
X120426657Y-66775890D01*
X120448864Y-66814354D01*
X120524411Y-66945206D01*
X120541392Y-66974617D01*
X120681081Y-67156661D01*
X120681089Y-67156670D01*
X120843330Y-67318911D01*
X120843338Y-67318918D01*
X120843339Y-67318919D01*
X120857538Y-67329814D01*
X121025382Y-67458607D01*
X121025385Y-67458608D01*
X121025388Y-67458611D01*
X121224112Y-67573344D01*
X121224117Y-67573346D01*
X121224123Y-67573349D01*
X121307868Y-67608037D01*
X121436113Y-67661158D01*
X121657762Y-67720548D01*
X121885266Y-67750500D01*
X123893547Y-67750500D01*
X123960586Y-67770185D01*
X124006341Y-67822989D01*
X124013323Y-67842410D01*
X124013669Y-67843704D01*
X124013670Y-67843709D01*
X124013671Y-67843713D01*
X124013672Y-67843714D01*
X124069137Y-67977622D01*
X124069138Y-67977624D01*
X124069139Y-67977625D01*
X124157379Y-68092621D01*
X124272375Y-68180861D01*
X124272376Y-68180861D01*
X124272377Y-68180862D01*
X124290064Y-68188188D01*
X124406291Y-68236330D01*
X124528383Y-68252404D01*
X124549999Y-68255250D01*
X124550000Y-68255250D01*
X124550001Y-68255250D01*
X124576410Y-68251773D01*
X124653381Y-68241639D01*
X124722415Y-68252404D01*
X124747922Y-68268472D01*
X124896593Y-68389698D01*
X125076951Y-68483909D01*
X125272582Y-68539886D01*
X125391963Y-68550500D01*
X127008036Y-68550499D01*
X127127418Y-68539886D01*
X127323049Y-68483909D01*
X127503407Y-68389698D01*
X127661109Y-68261109D01*
X127665887Y-68255250D01*
X127754398Y-68146699D01*
X127812018Y-68107181D01*
X127881857Y-68105089D01*
X127941739Y-68141087D01*
X127972654Y-68203745D01*
X127974500Y-68225059D01*
X127974500Y-80145436D01*
X127954815Y-80212475D01*
X127902011Y-80258230D01*
X127832853Y-80268174D01*
X127815567Y-80264414D01*
X127764772Y-80249500D01*
X127635228Y-80249500D01*
X127620733Y-80253756D01*
X127550864Y-80253755D01*
X127492086Y-80215980D01*
X127463062Y-80152424D01*
X127461800Y-80134778D01*
X127461800Y-80055158D01*
X127461800Y-80055156D01*
X127437914Y-79966012D01*
X127433384Y-79958166D01*
X127391773Y-79886094D01*
X127391770Y-79886091D01*
X127391769Y-79886088D01*
X127326512Y-79820831D01*
X126948541Y-79442860D01*
X126566819Y-79061137D01*
X126533334Y-78999814D01*
X126530500Y-78973456D01*
X126530500Y-78778423D01*
X126530500Y-78778418D01*
X126519582Y-78703482D01*
X126495947Y-78655136D01*
X126463078Y-78587900D01*
X126463076Y-78587897D01*
X126372102Y-78496923D01*
X126372099Y-78496921D01*
X126256521Y-78440419D01*
X126256519Y-78440418D01*
X126256518Y-78440418D01*
X126181582Y-78429500D01*
X126181577Y-78429500D01*
X125986544Y-78429500D01*
X125919505Y-78409815D01*
X125898863Y-78393181D01*
X125275213Y-77769531D01*
X125275208Y-77769527D01*
X125195291Y-77723387D01*
X125195287Y-77723385D01*
X125189926Y-77721949D01*
X125189926Y-77721948D01*
X125121476Y-77703608D01*
X125106144Y-77699500D01*
X125106143Y-77699500D01*
X122686092Y-77699500D01*
X122619053Y-77679815D01*
X122599587Y-77661913D01*
X122598372Y-77663129D01*
X122592627Y-77657384D01*
X122592621Y-77657379D01*
X122477625Y-77569139D01*
X122477622Y-77569138D01*
X122476442Y-77568232D01*
X122435240Y-77511804D01*
X122431085Y-77442057D01*
X122465298Y-77381137D01*
X122527015Y-77348385D01*
X122551929Y-77345856D01*
X125650786Y-77345856D01*
X125650788Y-77345856D01*
X125739932Y-77321970D01*
X125744157Y-77319531D01*
X125766813Y-77306450D01*
X125766815Y-77306449D01*
X125819856Y-77275826D01*
X126955470Y-76140212D01*
X127001614Y-76060288D01*
X127025500Y-75971144D01*
X127025500Y-74277816D01*
X127001614Y-74188672D01*
X126969551Y-74133138D01*
X126955473Y-74108754D01*
X126955470Y-74108751D01*
X126955469Y-74108748D01*
X126948799Y-74102078D01*
X126948797Y-74102075D01*
X126890213Y-74043491D01*
X126816252Y-73969530D01*
X126816249Y-73969528D01*
X126816248Y-73969527D01*
X126736331Y-73923387D01*
X126736327Y-73923385D01*
X126730966Y-73921949D01*
X126730966Y-73921948D01*
X126662516Y-73903608D01*
X126647184Y-73899500D01*
X126647183Y-73899500D01*
X126643940Y-73899500D01*
X126641304Y-73898726D01*
X126639124Y-73898439D01*
X126639168Y-73898098D01*
X126576901Y-73879815D01*
X126541890Y-73845940D01*
X126536338Y-73837897D01*
X126509332Y-73798771D01*
X126509327Y-73798766D01*
X126386548Y-73689993D01*
X126278910Y-73633500D01*
X126241295Y-73613758D01*
X126241294Y-73613757D01*
X126241291Y-73613756D01*
X126082022Y-73574500D01*
X126082021Y-73574500D01*
X125917979Y-73574500D01*
X125917978Y-73574500D01*
X125758706Y-73613757D01*
X125732279Y-73627627D01*
X125663771Y-73641350D01*
X125598718Y-73615857D01*
X125586975Y-73605510D01*
X124775114Y-72793649D01*
X123936819Y-71955353D01*
X123903334Y-71894030D01*
X123900500Y-71867672D01*
X123900500Y-71322351D01*
X123920185Y-71255312D01*
X123972989Y-71209557D01*
X124011247Y-71199061D01*
X124057483Y-71194091D01*
X124192331Y-71143796D01*
X124307546Y-71057546D01*
X124393796Y-70942331D01*
X124444091Y-70807483D01*
X124450500Y-70747873D01*
X124450499Y-69752128D01*
X124444091Y-69692517D01*
X124438599Y-69677793D01*
X124393797Y-69557671D01*
X124393793Y-69557664D01*
X124307547Y-69442455D01*
X124307544Y-69442452D01*
X124192335Y-69356206D01*
X124192328Y-69356202D01*
X124057482Y-69305908D01*
X124057483Y-69305908D01*
X123997883Y-69299501D01*
X123997881Y-69299500D01*
X123997873Y-69299500D01*
X123997864Y-69299500D01*
X123102129Y-69299500D01*
X123102123Y-69299501D01*
X123042516Y-69305908D01*
X122907671Y-69356202D01*
X122907664Y-69356206D01*
X122792455Y-69442452D01*
X122792452Y-69442455D01*
X122706206Y-69557664D01*
X122706202Y-69557671D01*
X122655908Y-69692517D01*
X122649501Y-69752116D01*
X122649501Y-69752123D01*
X122649500Y-69752135D01*
X122649500Y-70747870D01*
X122649501Y-70747876D01*
X122655908Y-70807483D01*
X122706202Y-70942328D01*
X122706206Y-70942335D01*
X122792452Y-71057544D01*
X122792455Y-71057547D01*
X122907664Y-71143793D01*
X122907671Y-71143797D01*
X123042516Y-71194091D01*
X123088757Y-71199063D01*
X123153307Y-71225801D01*
X123193155Y-71283194D01*
X123199500Y-71322352D01*
X123199500Y-72110361D01*
X123221900Y-72193959D01*
X123223386Y-72199504D01*
X123223387Y-72199506D01*
X123269527Y-72279424D01*
X123269529Y-72279427D01*
X123269530Y-72279428D01*
X124288419Y-73298317D01*
X125300259Y-74310156D01*
X125333744Y-74371479D01*
X125335674Y-74382888D01*
X125339311Y-74412843D01*
X125339312Y-74412845D01*
X125397483Y-74566228D01*
X125468064Y-74668482D01*
X125490668Y-74701229D01*
X125490670Y-74701231D01*
X125490672Y-74701233D01*
X125613451Y-74810006D01*
X125613452Y-74810006D01*
X125613454Y-74810008D01*
X125758705Y-74886242D01*
X125758707Y-74886242D01*
X125758708Y-74886243D01*
X125917978Y-74925500D01*
X125917979Y-74925500D01*
X126082020Y-74925500D01*
X126082021Y-74925500D01*
X126170826Y-74903611D01*
X126240626Y-74906680D01*
X126297689Y-74946999D01*
X126323894Y-75011768D01*
X126324500Y-75024008D01*
X126324500Y-75728456D01*
X126304815Y-75795495D01*
X126288181Y-75816137D01*
X125495781Y-76608537D01*
X125434458Y-76642022D01*
X125408100Y-76644856D01*
X124545011Y-76644856D01*
X124477972Y-76625171D01*
X124450000Y-76592890D01*
X124422029Y-76625171D01*
X124354990Y-76644856D01*
X123979963Y-76644856D01*
X123912924Y-76625171D01*
X123867169Y-76572367D01*
X123857225Y-76503209D01*
X123886250Y-76439653D01*
X123912922Y-76416541D01*
X123948049Y-76393967D01*
X124006276Y-76326767D01*
X124065051Y-76288995D01*
X124134920Y-76288993D01*
X124167023Y-76303653D01*
X124260931Y-76364004D01*
X124296556Y-76374464D01*
X124389923Y-76401879D01*
X124448701Y-76439652D01*
X124449999Y-76442495D01*
X124451298Y-76439653D01*
X124510076Y-76401879D01*
X124510077Y-76401879D01*
X124573819Y-76383162D01*
X124639069Y-76364004D01*
X124748049Y-76293967D01*
X124832882Y-76196063D01*
X124886697Y-76078226D01*
X124905133Y-75950000D01*
X124886697Y-75821774D01*
X124837506Y-75714062D01*
X124832883Y-75703939D01*
X124832882Y-75703938D01*
X124832882Y-75703937D01*
X124830784Y-75701516D01*
X124829456Y-75698607D01*
X124828089Y-75696480D01*
X124828395Y-75696283D01*
X124801762Y-75637961D01*
X124800500Y-75620317D01*
X124800500Y-75176732D01*
X124800500Y-75176730D01*
X124776614Y-75087586D01*
X124767485Y-75071774D01*
X124767485Y-75071773D01*
X124730474Y-75007668D01*
X124730468Y-75007660D01*
X121692339Y-71969531D01*
X121692334Y-71969527D01*
X121612416Y-71923387D01*
X121612415Y-71923386D01*
X121612414Y-71923386D01*
X121523270Y-71899500D01*
X118798385Y-71899500D01*
X118731346Y-71879815D01*
X118685591Y-71827011D01*
X118675647Y-71757853D01*
X118704672Y-71694297D01*
X118724075Y-71676233D01*
X118778740Y-71635310D01*
X118839687Y-71589687D01*
X118921628Y-71480226D01*
X118969412Y-71352114D01*
X118972612Y-71322351D01*
X118975499Y-71295501D01*
X118975499Y-71295490D01*
X118975500Y-71295485D01*
X118975499Y-70704516D01*
X118969412Y-70647886D01*
X118967103Y-70641696D01*
X118932715Y-70549499D01*
X118921628Y-70519774D01*
X118839687Y-70410313D01*
X118742985Y-70337923D01*
X118730228Y-70328373D01*
X118730226Y-70328372D01*
X118602114Y-70280588D01*
X118602112Y-70280587D01*
X118602110Y-70280587D01*
X118545493Y-70274500D01*
X118004518Y-70274500D01*
X118004509Y-70274501D01*
X117947885Y-70280587D01*
X117819773Y-70328372D01*
X117710313Y-70410313D01*
X117628373Y-70519771D01*
X117580587Y-70647889D01*
X117574500Y-70704498D01*
X117574500Y-71295481D01*
X117574501Y-71295490D01*
X117580587Y-71352114D01*
X117625146Y-71471576D01*
X117628372Y-71480226D01*
X117703532Y-71580629D01*
X117710314Y-71589688D01*
X117825925Y-71676233D01*
X117867797Y-71732166D01*
X117872781Y-71801858D01*
X117839296Y-71863181D01*
X117777973Y-71896666D01*
X117751615Y-71899500D01*
X117503856Y-71899500D01*
X117414712Y-71923386D01*
X117414709Y-71923387D01*
X117334791Y-71969527D01*
X117334786Y-71969531D01*
X116437307Y-72867008D01*
X116375984Y-72900493D01*
X116306292Y-72895509D01*
X116250359Y-72853637D01*
X116226888Y-72796972D01*
X116226410Y-72793649D01*
X116221010Y-72756087D01*
X116167195Y-72638250D01*
X116165097Y-72635829D01*
X116163769Y-72632920D01*
X116162402Y-72630793D01*
X116162708Y-72630596D01*
X116136075Y-72572274D01*
X116134813Y-72554630D01*
X116134813Y-68704498D01*
X117574500Y-68704498D01*
X117574500Y-69295481D01*
X117574501Y-69295490D01*
X117580587Y-69352114D01*
X117614284Y-69442455D01*
X117628372Y-69480226D01*
X117710313Y-69589687D01*
X117819774Y-69671628D01*
X117947886Y-69719412D01*
X118004515Y-69725500D01*
X118545484Y-69725499D01*
X118602114Y-69719412D01*
X118730226Y-69671628D01*
X118839687Y-69589687D01*
X118921628Y-69480226D01*
X118969412Y-69352114D01*
X118971868Y-69329266D01*
X118975499Y-69295501D01*
X118975499Y-69295490D01*
X118975500Y-69295485D01*
X118975499Y-68704516D01*
X118969412Y-68647886D01*
X118921628Y-68519774D01*
X118839687Y-68410313D01*
X118773911Y-68361074D01*
X118730228Y-68328373D01*
X118730226Y-68328372D01*
X118602114Y-68280588D01*
X118602112Y-68280587D01*
X118602110Y-68280587D01*
X118545493Y-68274500D01*
X118004518Y-68274500D01*
X118004509Y-68274501D01*
X117947885Y-68280587D01*
X117819773Y-68328372D01*
X117710313Y-68410313D01*
X117628373Y-68519771D01*
X117616912Y-68550498D01*
X117583418Y-68640300D01*
X117580587Y-68647889D01*
X117574500Y-68704498D01*
X116134813Y-68704498D01*
X116134813Y-67238171D01*
X116134813Y-67238169D01*
X116114844Y-67163646D01*
X116110928Y-67149028D01*
X116110927Y-67149027D01*
X116110927Y-67149025D01*
X116107858Y-67143709D01*
X116107856Y-67143705D01*
X116107856Y-67143704D01*
X116064785Y-67069104D01*
X116064780Y-67069098D01*
X114836819Y-65841137D01*
X114803334Y-65779814D01*
X114800500Y-65753456D01*
X114800500Y-64825323D01*
X114800499Y-64825321D01*
X114785967Y-64752264D01*
X114785966Y-64752260D01*
X114769907Y-64728226D01*
X114730601Y-64669399D01*
X114667145Y-64627000D01*
X114647739Y-64614033D01*
X114647735Y-64614032D01*
X114574677Y-64599500D01*
X114574674Y-64599500D01*
X113525326Y-64599500D01*
X113525323Y-64599500D01*
X113452264Y-64614032D01*
X113452260Y-64614033D01*
X113369399Y-64669399D01*
X113314033Y-64752260D01*
X113314032Y-64752264D01*
X113299500Y-64825321D01*
X113299500Y-65874678D01*
X113314032Y-65947735D01*
X113314033Y-65947739D01*
X113314034Y-65947740D01*
X113369399Y-66030601D01*
X113444157Y-66080552D01*
X113452260Y-66085966D01*
X113452264Y-66085967D01*
X113525321Y-66100499D01*
X113525324Y-66100500D01*
X113525326Y-66100500D01*
X114053456Y-66100500D01*
X114120495Y-66120185D01*
X114141137Y-66136819D01*
X115397494Y-67393176D01*
X115430979Y-67454499D01*
X115433813Y-67480857D01*
X115433813Y-72554630D01*
X115414128Y-72621669D01*
X115403528Y-72635830D01*
X115401432Y-72638248D01*
X115401429Y-72638252D01*
X115347615Y-72756087D01*
X115329180Y-72884313D01*
X115347615Y-73012538D01*
X115374086Y-73070500D01*
X115401431Y-73130376D01*
X115486264Y-73228280D01*
X115595244Y-73298317D01*
X115712244Y-73332670D01*
X115771020Y-73370443D01*
X115800046Y-73433999D01*
X115790103Y-73503157D01*
X115764989Y-73539328D01*
X115519532Y-73784785D01*
X115519528Y-73784791D01*
X115489965Y-73835996D01*
X115473387Y-73864709D01*
X115473386Y-73864712D01*
X115449500Y-73953856D01*
X115449500Y-75339852D01*
X115429815Y-75406891D01*
X115413181Y-75427534D01*
X115287079Y-75553635D01*
X115225756Y-75587119D01*
X115156064Y-75582135D01*
X115105684Y-75547155D01*
X115070552Y-75506610D01*
X115026728Y-75456033D01*
X114917748Y-75385996D01*
X114917744Y-75385994D01*
X114917743Y-75385994D01*
X114793453Y-75349500D01*
X114793451Y-75349500D01*
X114663907Y-75349500D01*
X114663906Y-75349500D01*
X114645805Y-75354815D01*
X114595869Y-75369477D01*
X114560936Y-75374500D01*
X113624777Y-75374500D01*
X113557738Y-75354815D01*
X113511983Y-75302011D01*
X113502039Y-75232853D01*
X113531064Y-75169297D01*
X113546112Y-75154647D01*
X113548221Y-75152916D01*
X113586932Y-75121147D01*
X113621144Y-75086936D01*
X113652923Y-75048214D01*
X113679709Y-75008125D01*
X113703318Y-74963954D01*
X113721832Y-74919257D01*
X113721832Y-74919254D01*
X113721835Y-74919249D01*
X113736366Y-74871346D01*
X113736371Y-74871330D01*
X113748207Y-74811830D01*
X113748210Y-74811812D01*
X113748211Y-74811808D01*
X113751884Y-74787040D01*
X113751887Y-74787014D01*
X113754268Y-74762842D01*
X113754269Y-74762834D01*
X113755500Y-74737789D01*
X113755500Y-68262210D01*
X113754269Y-68237163D01*
X113751886Y-68212972D01*
X113751886Y-68212971D01*
X113748210Y-68188184D01*
X113740132Y-68147577D01*
X113740131Y-68147572D01*
X113736373Y-68128678D01*
X113736369Y-68128663D01*
X113721832Y-68080741D01*
X113721827Y-68080727D01*
X113703321Y-68036052D01*
X113703317Y-68036043D01*
X113679717Y-67991891D01*
X113679709Y-67991876D01*
X113679707Y-67991874D01*
X113679705Y-67991869D01*
X113652928Y-67951794D01*
X113652925Y-67951790D01*
X113652919Y-67951781D01*
X113621143Y-67913061D01*
X113621140Y-67913058D01*
X113621138Y-67913055D01*
X113586942Y-67878860D01*
X113586940Y-67878858D01*
X113586938Y-67878856D01*
X113570725Y-67865550D01*
X113548222Y-67847083D01*
X113508129Y-67820294D01*
X113508128Y-67820293D01*
X113508123Y-67820290D01*
X113508116Y-67820286D01*
X113508111Y-67820283D01*
X113463943Y-67796675D01*
X113463941Y-67796674D01*
X113419253Y-67778165D01*
X113407592Y-67774628D01*
X113371324Y-67763627D01*
X113371321Y-67763626D01*
X113371320Y-67763626D01*
X113311799Y-67751787D01*
X113311801Y-67751787D01*
X113287027Y-67748113D01*
X113262839Y-67745731D01*
X113258139Y-67745500D01*
X113237789Y-67744500D01*
X111894242Y-67744500D01*
X111827203Y-67724815D01*
X111781448Y-67672011D01*
X111771504Y-67602853D01*
X111800529Y-67539297D01*
X111839782Y-67509099D01*
X111841333Y-67508340D01*
X111852102Y-67503076D01*
X111943076Y-67412102D01*
X111943078Y-67412099D01*
X111983572Y-67329266D01*
X111999582Y-67296518D01*
X112010500Y-67221582D01*
X112010500Y-66778418D01*
X111999582Y-66703482D01*
X111999580Y-66703478D01*
X111982901Y-66669360D01*
X111971141Y-66600486D01*
X111998485Y-66536189D01*
X112056249Y-66496882D01*
X112126094Y-66495044D01*
X112148761Y-66503499D01*
X112259024Y-66557402D01*
X112263482Y-66559582D01*
X112338418Y-66570500D01*
X112338423Y-66570500D01*
X112681577Y-66570500D01*
X112681582Y-66570500D01*
X112756518Y-66559582D01*
X112834129Y-66521640D01*
X112872099Y-66503078D01*
X112872102Y-66503076D01*
X112963076Y-66412102D01*
X112963078Y-66412099D01*
X113018049Y-66299653D01*
X113019582Y-66296518D01*
X113030500Y-66221582D01*
X113030500Y-65778418D01*
X113019582Y-65703482D01*
X113004955Y-65673562D01*
X112963078Y-65587900D01*
X112963076Y-65587897D01*
X112872102Y-65496923D01*
X112872099Y-65496921D01*
X112756521Y-65440419D01*
X112756519Y-65440418D01*
X112756518Y-65440418D01*
X112681582Y-65429500D01*
X112681577Y-65429500D01*
X112486544Y-65429500D01*
X112419505Y-65409815D01*
X112398863Y-65393181D01*
X111325213Y-64319531D01*
X111325208Y-64319527D01*
X111245290Y-64273387D01*
X111245289Y-64273386D01*
X111245288Y-64273386D01*
X111229942Y-64269274D01*
X111170283Y-64232910D01*
X111139754Y-64170063D01*
X111148049Y-64100688D01*
X111192534Y-64046810D01*
X111259086Y-64025535D01*
X111262037Y-64025500D01*
X121694845Y-64025500D01*
X121761884Y-64045185D01*
G37*
%TD.AperFunction*%
%TA.AperFunction,Conductor*%
G36*
X112700086Y-77084373D02*
G01*
X112730007Y-77097584D01*
X112730009Y-77097585D01*
X112755135Y-77100500D01*
X112775497Y-77100499D01*
X112842535Y-77120181D01*
X112888292Y-77172983D01*
X112899500Y-77224494D01*
X112899500Y-77244854D01*
X112899502Y-77244881D01*
X112902413Y-77269985D01*
X112902413Y-77269986D01*
X112902414Y-77269990D01*
X112902415Y-77269991D01*
X112915626Y-77299912D01*
X112915628Y-77299915D01*
X112924697Y-77369194D01*
X112915628Y-77400083D01*
X112902415Y-77430008D01*
X112899500Y-77455131D01*
X112899500Y-77644857D01*
X112899502Y-77644881D01*
X112902413Y-77669985D01*
X112902413Y-77669986D01*
X112902414Y-77669990D01*
X112902415Y-77669991D01*
X112915626Y-77699912D01*
X112915628Y-77699915D01*
X112924697Y-77769194D01*
X112915628Y-77800083D01*
X112902415Y-77830008D01*
X112899500Y-77855131D01*
X112899500Y-78044857D01*
X112899502Y-78044881D01*
X112902413Y-78069985D01*
X112902413Y-78069986D01*
X112902414Y-78069990D01*
X112902415Y-78069991D01*
X112915626Y-78099912D01*
X112915628Y-78099915D01*
X112924697Y-78169194D01*
X112915628Y-78200083D01*
X112902415Y-78230008D01*
X112899500Y-78255131D01*
X112899500Y-78444857D01*
X112899502Y-78444881D01*
X112902413Y-78469985D01*
X112902413Y-78469986D01*
X112902414Y-78469990D01*
X112902415Y-78469991D01*
X112915626Y-78499912D01*
X112915628Y-78499915D01*
X112924697Y-78569194D01*
X112915628Y-78600083D01*
X112902415Y-78630008D01*
X112899500Y-78655131D01*
X112899500Y-78844857D01*
X112899502Y-78844881D01*
X112902414Y-78869988D01*
X112902415Y-78869991D01*
X112947793Y-78972764D01*
X113035360Y-79060331D01*
X113032942Y-79062748D01*
X113064842Y-79101829D01*
X113072747Y-79171250D01*
X113041865Y-79233924D01*
X113035301Y-79239610D01*
X113035360Y-79239669D01*
X112947794Y-79327234D01*
X112902415Y-79430006D01*
X112902415Y-79430008D01*
X112899500Y-79455131D01*
X112899500Y-79475500D01*
X112879815Y-79542539D01*
X112827011Y-79588294D01*
X112775505Y-79599500D01*
X112755145Y-79599500D01*
X112755118Y-79599502D01*
X112730014Y-79602413D01*
X112730010Y-79602414D01*
X112700083Y-79615628D01*
X112630804Y-79624697D01*
X112599915Y-79615627D01*
X112569992Y-79602415D01*
X112544865Y-79599500D01*
X112355142Y-79599500D01*
X112355118Y-79599502D01*
X112330014Y-79602413D01*
X112330010Y-79602414D01*
X112300083Y-79615628D01*
X112230804Y-79624697D01*
X112199915Y-79615627D01*
X112169992Y-79602415D01*
X112144865Y-79599500D01*
X111955142Y-79599500D01*
X111955118Y-79599502D01*
X111930014Y-79602413D01*
X111930010Y-79602414D01*
X111900083Y-79615628D01*
X111830804Y-79624697D01*
X111799915Y-79615627D01*
X111769992Y-79602415D01*
X111744865Y-79599500D01*
X111555142Y-79599500D01*
X111555118Y-79599502D01*
X111530014Y-79602413D01*
X111530010Y-79602414D01*
X111500083Y-79615628D01*
X111430804Y-79624697D01*
X111399915Y-79615627D01*
X111369992Y-79602415D01*
X111344865Y-79599500D01*
X111155142Y-79599500D01*
X111155118Y-79599502D01*
X111130014Y-79602413D01*
X111130010Y-79602414D01*
X111100083Y-79615628D01*
X111030804Y-79624697D01*
X110999915Y-79615627D01*
X110969992Y-79602415D01*
X110944865Y-79599500D01*
X110755142Y-79599500D01*
X110755118Y-79599502D01*
X110730014Y-79602413D01*
X110730010Y-79602414D01*
X110700083Y-79615628D01*
X110630804Y-79624697D01*
X110599915Y-79615627D01*
X110569992Y-79602415D01*
X110544868Y-79599500D01*
X110544865Y-79599500D01*
X110524499Y-79599500D01*
X110457460Y-79579815D01*
X110411705Y-79527011D01*
X110400499Y-79475500D01*
X110400499Y-79455143D01*
X110400499Y-79455142D01*
X110400499Y-79455136D01*
X110400497Y-79455117D01*
X110397586Y-79430012D01*
X110397585Y-79430010D01*
X110397585Y-79430009D01*
X110385456Y-79402539D01*
X110384373Y-79400086D01*
X110375301Y-79330808D01*
X110384374Y-79299912D01*
X110397584Y-79269995D01*
X110397584Y-79269994D01*
X110397584Y-79269993D01*
X110397585Y-79269991D01*
X110400500Y-79244865D01*
X110400499Y-79055136D01*
X110397585Y-79030009D01*
X110384455Y-79000272D01*
X110384373Y-79000086D01*
X110375301Y-78930808D01*
X110384374Y-78899912D01*
X110397584Y-78869995D01*
X110397584Y-78869994D01*
X110397584Y-78869993D01*
X110397585Y-78869991D01*
X110400500Y-78844865D01*
X110400499Y-78655136D01*
X110397585Y-78630009D01*
X110386653Y-78605250D01*
X110384373Y-78600086D01*
X110375301Y-78530808D01*
X110384374Y-78499912D01*
X110397584Y-78469995D01*
X110397584Y-78469994D01*
X110397584Y-78469993D01*
X110397585Y-78469991D01*
X110400500Y-78444865D01*
X110400499Y-78255136D01*
X110397585Y-78230009D01*
X110385453Y-78202533D01*
X110384373Y-78200086D01*
X110375301Y-78130808D01*
X110384374Y-78099912D01*
X110397584Y-78069995D01*
X110397584Y-78069994D01*
X110397584Y-78069993D01*
X110397585Y-78069991D01*
X110400500Y-78044865D01*
X110400499Y-77855136D01*
X110397585Y-77830009D01*
X110390681Y-77814374D01*
X110384373Y-77800086D01*
X110375301Y-77730808D01*
X110384374Y-77699912D01*
X110397584Y-77669995D01*
X110397584Y-77669994D01*
X110397584Y-77669993D01*
X110397585Y-77669991D01*
X110400500Y-77644865D01*
X110400499Y-77455136D01*
X110397585Y-77430009D01*
X110385807Y-77403334D01*
X110384373Y-77400086D01*
X110375301Y-77330808D01*
X110384374Y-77299912D01*
X110397584Y-77269995D01*
X110397584Y-77269994D01*
X110397584Y-77269993D01*
X110397585Y-77269991D01*
X110400500Y-77244865D01*
X110400500Y-77224499D01*
X110420185Y-77157460D01*
X110472989Y-77111705D01*
X110524500Y-77100499D01*
X110544856Y-77100499D01*
X110544864Y-77100499D01*
X110544879Y-77100497D01*
X110544882Y-77100497D01*
X110569987Y-77097586D01*
X110569987Y-77097585D01*
X110569991Y-77097585D01*
X110599913Y-77084372D01*
X110669190Y-77075301D01*
X110700086Y-77084373D01*
X110730007Y-77097584D01*
X110730009Y-77097585D01*
X110755135Y-77100500D01*
X110944864Y-77100499D01*
X110969991Y-77097585D01*
X110999913Y-77084372D01*
X111069190Y-77075301D01*
X111100086Y-77084373D01*
X111130007Y-77097584D01*
X111130009Y-77097585D01*
X111155135Y-77100500D01*
X111344864Y-77100499D01*
X111369991Y-77097585D01*
X111399913Y-77084372D01*
X111469190Y-77075301D01*
X111500086Y-77084373D01*
X111530007Y-77097584D01*
X111530009Y-77097585D01*
X111555135Y-77100500D01*
X111744864Y-77100499D01*
X111769991Y-77097585D01*
X111799913Y-77084372D01*
X111869190Y-77075301D01*
X111900086Y-77084373D01*
X111930007Y-77097584D01*
X111930009Y-77097585D01*
X111955135Y-77100500D01*
X112144864Y-77100499D01*
X112169991Y-77097585D01*
X112199913Y-77084372D01*
X112269190Y-77075301D01*
X112300086Y-77084373D01*
X112330007Y-77097584D01*
X112330009Y-77097585D01*
X112355135Y-77100500D01*
X112544864Y-77100499D01*
X112569991Y-77097585D01*
X112599913Y-77084372D01*
X112669190Y-77075301D01*
X112700086Y-77084373D01*
G37*
%TD.AperFunction*%
%TA.AperFunction,Conductor*%
G36*
X111043334Y-67434359D02*
G01*
X111087681Y-67462860D01*
X111127897Y-67503076D01*
X111176907Y-67527036D01*
X111228489Y-67574164D01*
X111246403Y-67641698D01*
X111224962Y-67708196D01*
X111170973Y-67752546D01*
X111146637Y-67760053D01*
X111128690Y-67763622D01*
X111128672Y-67763627D01*
X111080741Y-67778166D01*
X111050395Y-67790736D01*
X111036055Y-67796676D01*
X111036050Y-67796678D01*
X111036045Y-67796680D01*
X110991881Y-67820286D01*
X110951781Y-67847079D01*
X110951764Y-67847092D01*
X110913072Y-67878845D01*
X110913053Y-67878862D01*
X110878862Y-67913053D01*
X110878845Y-67913072D01*
X110847092Y-67951764D01*
X110847079Y-67951781D01*
X110820288Y-67991877D01*
X110820280Y-67991891D01*
X110796679Y-68036046D01*
X110796676Y-68036054D01*
X110778165Y-68080744D01*
X110778164Y-68080749D01*
X110763627Y-68128669D01*
X110756705Y-68163473D01*
X110751794Y-68188169D01*
X110751790Y-68188188D01*
X110751787Y-68188205D01*
X110748113Y-68212974D01*
X110745731Y-68237156D01*
X110745731Y-68237161D01*
X110745731Y-68237163D01*
X110744500Y-68262210D01*
X110744500Y-74737789D01*
X110745530Y-74758747D01*
X110745731Y-74762837D01*
X110745731Y-74762842D01*
X110748113Y-74787027D01*
X110751787Y-74811800D01*
X110752658Y-74816177D01*
X110763627Y-74871324D01*
X110764979Y-74875780D01*
X110778164Y-74919250D01*
X110796674Y-74963941D01*
X110796675Y-74963943D01*
X110820283Y-75008111D01*
X110820287Y-75008118D01*
X110820290Y-75008123D01*
X110820293Y-75008128D01*
X110820294Y-75008129D01*
X110847083Y-75048222D01*
X110864379Y-75069297D01*
X110878856Y-75086938D01*
X110878858Y-75086940D01*
X110878860Y-75086942D01*
X110913055Y-75121138D01*
X110913060Y-75121142D01*
X110913061Y-75121143D01*
X110951781Y-75152919D01*
X110951790Y-75152925D01*
X110951794Y-75152928D01*
X110991869Y-75179705D01*
X110991874Y-75179707D01*
X110991876Y-75179709D01*
X111036045Y-75203318D01*
X111065842Y-75215660D01*
X111080738Y-75221831D01*
X111080740Y-75221831D01*
X111080741Y-75221832D01*
X111128670Y-75236371D01*
X111173341Y-75245257D01*
X111173345Y-75245258D01*
X111188176Y-75248208D01*
X111188180Y-75248208D01*
X111188198Y-75248212D01*
X111212972Y-75251886D01*
X111216354Y-75252219D01*
X111237164Y-75254269D01*
X111262211Y-75255500D01*
X111265335Y-75255500D01*
X111301853Y-75263442D01*
X111302422Y-75261506D01*
X111441825Y-75302437D01*
X111500603Y-75340210D01*
X111529629Y-75403766D01*
X111519686Y-75472924D01*
X111494573Y-75509095D01*
X111369527Y-75634141D01*
X111353155Y-75662500D01*
X111302589Y-75710715D01*
X111245769Y-75724500D01*
X111155143Y-75724500D01*
X111155118Y-75724502D01*
X111130014Y-75727413D01*
X111130010Y-75727414D01*
X111100083Y-75740628D01*
X111030804Y-75749697D01*
X110999915Y-75740627D01*
X110969992Y-75727415D01*
X110944865Y-75724500D01*
X110755142Y-75724500D01*
X110755118Y-75724502D01*
X110730014Y-75727413D01*
X110730010Y-75727414D01*
X110700083Y-75740628D01*
X110630804Y-75749697D01*
X110599915Y-75740627D01*
X110569992Y-75727415D01*
X110544865Y-75724500D01*
X110355142Y-75724500D01*
X110355118Y-75724502D01*
X110330011Y-75727414D01*
X110330008Y-75727415D01*
X110227235Y-75772793D01*
X110147794Y-75852234D01*
X110098647Y-75963542D01*
X110095218Y-75962028D01*
X110068061Y-76006140D01*
X110005078Y-76036389D01*
X109935740Y-76027786D01*
X109897379Y-76001697D01*
X108896819Y-75001137D01*
X108863334Y-74939814D01*
X108860500Y-74913456D01*
X108860500Y-74816040D01*
X108880185Y-74749001D01*
X108896814Y-74728363D01*
X108963076Y-74662102D01*
X108963076Y-74662100D01*
X108963078Y-74662099D01*
X109009947Y-74566226D01*
X109019582Y-74546518D01*
X109030500Y-74471582D01*
X109030500Y-74028418D01*
X109019582Y-73953482D01*
X109015959Y-73946071D01*
X108963078Y-73837900D01*
X108963076Y-73837897D01*
X108872102Y-73746923D01*
X108872099Y-73746921D01*
X108756521Y-73690419D01*
X108756519Y-73690418D01*
X108756518Y-73690418D01*
X108681582Y-73679500D01*
X108338418Y-73679500D01*
X108263482Y-73690418D01*
X108263480Y-73690418D01*
X108263478Y-73690419D01*
X108147900Y-73746921D01*
X108147897Y-73746923D01*
X108056923Y-73837897D01*
X108056921Y-73837900D01*
X108000419Y-73953478D01*
X108000418Y-73953480D01*
X108000418Y-73953482D01*
X107989500Y-74028418D01*
X107989500Y-74471582D01*
X108000418Y-74546518D01*
X108000418Y-74546519D01*
X108000419Y-74546521D01*
X108056921Y-74662099D01*
X108056923Y-74662101D01*
X108056924Y-74662102D01*
X108123182Y-74728360D01*
X108156666Y-74789681D01*
X108159500Y-74816040D01*
X108159500Y-75156145D01*
X108180895Y-75235994D01*
X108183384Y-75245285D01*
X108183387Y-75245291D01*
X108229527Y-75325208D01*
X108229531Y-75325213D01*
X109325681Y-76421363D01*
X109359166Y-76482686D01*
X109362000Y-76509044D01*
X109362000Y-76679556D01*
X109342315Y-76746595D01*
X109289511Y-76792350D01*
X109263885Y-76799496D01*
X109264013Y-76799965D01*
X109255008Y-76802415D01*
X109152235Y-76847793D01*
X109072794Y-76927234D01*
X109027415Y-77030006D01*
X109027415Y-77030008D01*
X109024500Y-77055131D01*
X109024500Y-77244857D01*
X109024502Y-77244881D01*
X109027413Y-77269985D01*
X109027413Y-77269986D01*
X109027414Y-77269990D01*
X109027415Y-77269991D01*
X109040626Y-77299912D01*
X109040628Y-77299915D01*
X109049697Y-77369194D01*
X109040628Y-77400083D01*
X109027415Y-77430008D01*
X109024500Y-77455131D01*
X109024294Y-77458704D01*
X109024087Y-77458692D01*
X109024087Y-77458694D01*
X109024053Y-77458690D01*
X109022842Y-77458620D01*
X109004815Y-77520016D01*
X108952011Y-77565771D01*
X108882853Y-77575715D01*
X108853051Y-77567539D01*
X108843709Y-77563670D01*
X108747921Y-77551059D01*
X108700001Y-77544750D01*
X108699999Y-77544750D01*
X108556291Y-77563670D01*
X108556287Y-77563671D01*
X108422377Y-77619137D01*
X108307379Y-77707379D01*
X108219137Y-77822377D01*
X108163671Y-77956287D01*
X108163670Y-77956291D01*
X108144762Y-78099912D01*
X108144750Y-78100000D01*
X108157926Y-78200083D01*
X108163670Y-78243708D01*
X108163671Y-78243712D01*
X108219138Y-78377623D01*
X108219139Y-78377626D01*
X108305378Y-78490013D01*
X108330573Y-78555182D01*
X108316535Y-78623627D01*
X108267721Y-78673617D01*
X108207003Y-78689500D01*
X108123084Y-78689500D01*
X108028136Y-78704537D01*
X107913680Y-78762855D01*
X107913676Y-78762858D01*
X107822858Y-78853676D01*
X107822855Y-78853680D01*
X107764537Y-78968136D01*
X107749500Y-79063083D01*
X107749500Y-79335500D01*
X107729815Y-79402539D01*
X107677011Y-79448294D01*
X107625500Y-79459500D01*
X107089500Y-79459500D01*
X107022461Y-79439815D01*
X106976706Y-79387011D01*
X106965500Y-79335500D01*
X106965500Y-79119492D01*
X106985185Y-79052453D01*
X107001819Y-79031811D01*
X107039744Y-78993886D01*
X107080470Y-78953160D01*
X107126614Y-78873236D01*
X107131853Y-78853682D01*
X107150500Y-78784092D01*
X107150500Y-70693558D01*
X107170185Y-70626519D01*
X107186819Y-70605877D01*
X109630877Y-68161819D01*
X109692200Y-68128334D01*
X109718558Y-68125500D01*
X109781142Y-68125500D01*
X109781144Y-68125500D01*
X109870288Y-68101614D01*
X109897945Y-68085646D01*
X109950212Y-68055470D01*
X110398863Y-67606819D01*
X110460186Y-67573334D01*
X110486544Y-67570500D01*
X110681577Y-67570500D01*
X110681582Y-67570500D01*
X110756518Y-67559582D01*
X110814310Y-67531329D01*
X110872099Y-67503078D01*
X110872102Y-67503076D01*
X110912319Y-67462860D01*
X110973642Y-67429375D01*
X111043334Y-67434359D01*
G37*
%TD.AperFunction*%
%TA.AperFunction,Conductor*%
G36*
X121915110Y-77365541D02*
G01*
X121960865Y-77418345D01*
X121970809Y-77487503D01*
X121941784Y-77551059D01*
X121923558Y-77568232D01*
X121922377Y-77569138D01*
X121922375Y-77569139D01*
X121809034Y-77656109D01*
X121807379Y-77657379D01*
X121719137Y-77772377D01*
X121663671Y-77906287D01*
X121663670Y-77906291D01*
X121644750Y-78050000D01*
X121662161Y-78182251D01*
X121663670Y-78193708D01*
X121663671Y-78193712D01*
X121719137Y-78327622D01*
X121719138Y-78327624D01*
X121719139Y-78327625D01*
X121807379Y-78442621D01*
X121807381Y-78442622D01*
X121812327Y-78449068D01*
X121809784Y-78451018D01*
X121836062Y-78499142D01*
X121831078Y-78568834D01*
X121789206Y-78624767D01*
X121723742Y-78649184D01*
X121714896Y-78649500D01*
X120460147Y-78649500D01*
X120393108Y-78629815D01*
X120372466Y-78613181D01*
X119961818Y-78202533D01*
X119928333Y-78141210D01*
X119925499Y-78114852D01*
X119925499Y-77704518D01*
X119925498Y-77704509D01*
X119919412Y-77647885D01*
X119889554Y-77567835D01*
X119884569Y-77498143D01*
X119918053Y-77436820D01*
X119979376Y-77403334D01*
X120005735Y-77400500D01*
X120850322Y-77400500D01*
X120850325Y-77400500D01*
X120939469Y-77376614D01*
X120946136Y-77372765D01*
X120952321Y-77369194D01*
X120963970Y-77362469D01*
X121025970Y-77345856D01*
X121848071Y-77345856D01*
X121915110Y-77365541D01*
G37*
%TD.AperFunction*%
%TA.AperFunction,Conductor*%
G36*
X103043334Y-72914359D02*
G01*
X103087681Y-72942860D01*
X103147897Y-73003076D01*
X103147900Y-73003078D01*
X103241413Y-73048793D01*
X103263482Y-73059582D01*
X103338418Y-73070500D01*
X103338423Y-73070500D01*
X103681577Y-73070500D01*
X103681582Y-73070500D01*
X103756518Y-73059582D01*
X103814310Y-73031329D01*
X103872099Y-73003078D01*
X103872102Y-73003076D01*
X103912319Y-72962860D01*
X103973642Y-72929375D01*
X104043334Y-72934359D01*
X104087681Y-72962860D01*
X104127897Y-73003076D01*
X104127900Y-73003078D01*
X104221413Y-73048793D01*
X104243482Y-73059582D01*
X104304506Y-73068473D01*
X104368003Y-73097615D01*
X104405668Y-73156463D01*
X104405538Y-73226333D01*
X104399421Y-73242687D01*
X104363302Y-73321776D01*
X104344867Y-73450000D01*
X104363302Y-73578225D01*
X104406029Y-73671782D01*
X104417118Y-73696063D01*
X104501951Y-73793967D01*
X104610931Y-73864004D01*
X104735225Y-73900499D01*
X104735227Y-73900500D01*
X104848481Y-73900500D01*
X104915520Y-73920185D01*
X104936162Y-73936818D01*
X105013181Y-74013836D01*
X105046666Y-74075159D01*
X105049500Y-74101518D01*
X105049500Y-75186502D01*
X105029815Y-75253541D01*
X104977011Y-75299296D01*
X104907853Y-75309240D01*
X104884545Y-75303543D01*
X104809701Y-75277354D01*
X104809699Y-75277353D01*
X104779270Y-75274500D01*
X104779266Y-75274500D01*
X104270734Y-75274500D01*
X104270730Y-75274500D01*
X104240300Y-75277353D01*
X104240298Y-75277353D01*
X104112119Y-75322206D01*
X104112117Y-75322207D01*
X104002850Y-75402850D01*
X103922207Y-75512117D01*
X103922206Y-75512119D01*
X103877353Y-75640298D01*
X103877353Y-75640300D01*
X103874500Y-75670730D01*
X103874500Y-75903456D01*
X103854815Y-75970495D01*
X103838181Y-75991137D01*
X103737181Y-76092137D01*
X103675858Y-76125622D01*
X103606166Y-76120638D01*
X103550233Y-76078766D01*
X103525816Y-76013302D01*
X103525500Y-76004456D01*
X103525500Y-75670730D01*
X103522646Y-75640300D01*
X103522646Y-75640298D01*
X103477793Y-75512119D01*
X103477792Y-75512117D01*
X103473728Y-75506610D01*
X103397150Y-75402850D01*
X103287882Y-75322207D01*
X103287880Y-75322206D01*
X103159700Y-75277353D01*
X103129270Y-75274500D01*
X103129266Y-75274500D01*
X102688753Y-75274500D01*
X102621714Y-75254815D01*
X102575959Y-75202011D01*
X102566015Y-75132853D01*
X102595040Y-75069297D01*
X102613235Y-75052148D01*
X102615879Y-75050119D01*
X102643934Y-75033916D01*
X102672213Y-75022203D01*
X102703472Y-75013828D01*
X102783347Y-75003314D01*
X102783357Y-75003313D01*
X102792963Y-75002047D01*
X102797679Y-75001426D01*
X102797680Y-75001427D01*
X102896574Y-74988407D01*
X102929353Y-74981887D01*
X102960620Y-74973509D01*
X102992266Y-74962766D01*
X103082693Y-74925310D01*
X103112669Y-74910528D01*
X103140702Y-74894343D01*
X103168490Y-74875776D01*
X103246140Y-74816193D01*
X103271267Y-74794157D01*
X103294157Y-74771267D01*
X103316193Y-74746140D01*
X103375776Y-74668490D01*
X103394343Y-74640702D01*
X103410528Y-74612669D01*
X103425310Y-74582693D01*
X103462766Y-74492266D01*
X103473509Y-74460620D01*
X103481887Y-74429353D01*
X103488407Y-74396576D01*
X103502253Y-74291412D01*
X103503892Y-74274772D01*
X103504953Y-74258586D01*
X103505500Y-74241874D01*
X103505500Y-74133125D01*
X103504953Y-74116413D01*
X103503892Y-74100227D01*
X103502253Y-74083588D01*
X103484148Y-73946072D01*
X103477628Y-73913294D01*
X103469250Y-73882027D01*
X103458507Y-73850380D01*
X103408563Y-73729805D01*
X103408172Y-73729013D01*
X103393782Y-73699831D01*
X103377588Y-73671784D01*
X103377587Y-73671782D01*
X103359039Y-73644023D01*
X103359034Y-73644017D01*
X103359030Y-73644011D01*
X103279583Y-73540472D01*
X103257546Y-73515343D01*
X103234658Y-73492455D01*
X103234657Y-73492454D01*
X103234654Y-73492451D01*
X103209534Y-73470421D01*
X103209530Y-73470418D01*
X103106000Y-73390977D01*
X103105993Y-73390972D01*
X103078199Y-73372401D01*
X103078197Y-73372400D01*
X103050169Y-73356218D01*
X103050168Y-73356217D01*
X103050162Y-73356214D01*
X103020195Y-73341436D01*
X103020177Y-73341428D01*
X102899621Y-73291492D01*
X102899610Y-73291488D01*
X102867973Y-73280749D01*
X102867972Y-73280748D01*
X102867970Y-73280748D01*
X102836702Y-73272370D01*
X102836698Y-73272369D01*
X102836690Y-73272367D01*
X102836676Y-73272364D01*
X102816419Y-73268335D01*
X102754508Y-73235950D01*
X102719934Y-73175234D01*
X102723673Y-73105465D01*
X102764540Y-73048793D01*
X102786145Y-73035320D01*
X102852102Y-73003076D01*
X102852103Y-73003075D01*
X102912319Y-72942860D01*
X102973642Y-72909375D01*
X103043334Y-72914359D01*
G37*
%TD.AperFunction*%
%TA.AperFunction,Conductor*%
G36*
X121347621Y-72620185D02*
G01*
X121368263Y-72636819D01*
X121897763Y-73166319D01*
X121931248Y-73227642D01*
X121926264Y-73297334D01*
X121884392Y-73353267D01*
X121818928Y-73377684D01*
X121810082Y-73378000D01*
X119374997Y-73378000D01*
X119277228Y-73397447D01*
X119277221Y-73397450D01*
X119194334Y-73452833D01*
X119194333Y-73452834D01*
X119138950Y-73535721D01*
X119138947Y-73535728D01*
X119119500Y-73633495D01*
X119119500Y-73670500D01*
X119099815Y-73737539D01*
X119047011Y-73783294D01*
X118995500Y-73794500D01*
X117899997Y-73794500D01*
X117802228Y-73813947D01*
X117802221Y-73813950D01*
X117719334Y-73869333D01*
X117719333Y-73869334D01*
X117663950Y-73952221D01*
X117663947Y-73952228D01*
X117644500Y-74049995D01*
X117644500Y-74809389D01*
X117624815Y-74876428D01*
X117572011Y-74922183D01*
X117502853Y-74932127D01*
X117473053Y-74923952D01*
X117471687Y-74923386D01*
X117456250Y-74919249D01*
X117456250Y-74919250D01*
X117397883Y-74903611D01*
X117382541Y-74899500D01*
X117009747Y-74899500D01*
X116917459Y-74899500D01*
X116828315Y-74923386D01*
X116828312Y-74923387D01*
X116748394Y-74969527D01*
X116748389Y-74969531D01*
X116362181Y-75355740D01*
X116300858Y-75389225D01*
X116231166Y-75384241D01*
X116175233Y-75342369D01*
X116150816Y-75276905D01*
X116150500Y-75268059D01*
X116150500Y-74196544D01*
X116170185Y-74129505D01*
X116186819Y-74108863D01*
X117658863Y-72636819D01*
X117720186Y-72603334D01*
X117746544Y-72600500D01*
X121280582Y-72600500D01*
X121347621Y-72620185D01*
G37*
%TD.AperFunction*%
%TA.AperFunction,Conductor*%
G36*
X104209046Y-70830592D02*
G01*
X104229884Y-70847352D01*
X105713181Y-72330649D01*
X105746666Y-72391972D01*
X105749500Y-72418330D01*
X105749500Y-72964456D01*
X105729815Y-73031495D01*
X105677011Y-73077250D01*
X105607853Y-73087194D01*
X105544297Y-73058169D01*
X105537819Y-73052137D01*
X105046819Y-72561137D01*
X105013334Y-72499814D01*
X105010500Y-72473456D01*
X105010500Y-72278423D01*
X105010500Y-72278418D01*
X104999582Y-72203482D01*
X104984869Y-72173386D01*
X104943078Y-72087900D01*
X104943076Y-72087897D01*
X104852102Y-71996923D01*
X104852099Y-71996921D01*
X104736521Y-71940419D01*
X104736519Y-71940418D01*
X104736518Y-71940418D01*
X104661582Y-71929500D01*
X104318418Y-71929500D01*
X104243482Y-71940418D01*
X104243480Y-71940418D01*
X104243478Y-71940419D01*
X104127900Y-71996921D01*
X104127897Y-71996923D01*
X104087681Y-72037140D01*
X104026358Y-72070625D01*
X103956666Y-72065641D01*
X103912319Y-72037140D01*
X103872103Y-71996924D01*
X103850577Y-71986401D01*
X103798995Y-71939273D01*
X103781080Y-71871739D01*
X103802521Y-71805240D01*
X103850577Y-71763599D01*
X103872102Y-71753076D01*
X103963076Y-71662102D01*
X103963078Y-71662099D01*
X104007994Y-71570221D01*
X104019582Y-71546518D01*
X104030500Y-71471582D01*
X104030500Y-71028418D01*
X104029450Y-71021213D01*
X104019499Y-70952911D01*
X104029312Y-70883734D01*
X104074968Y-70830844D01*
X104141970Y-70811033D01*
X104209046Y-70830592D01*
G37*
%TD.AperFunction*%
%TD*%
M02*
